ETBook-DisplayItalic.ufo
<glyph name="exclam" format="2">
  <advance width="297"/>
  <unicode hex="0021"/>
  <outline>
    <contour>
      <point x="298" y="643" type="curve" smooth="yes"/>
      <point x="298" y="659"/>
      <point x="290" y="662"/>
      <point x="265" y="662" type="curve" smooth="yes"/>
      <point x="244" y="662" type="line" smooth="yes"/>
      <point x="214" y="662"/>
      <point x="213" y="660"/>
      <point x="208" y="624" type="curve" smooth="yes"/>
      <point x="148" y="177" type="line"/>
      <point x="148" y="169"/>
      <point x="164" y="164"/>
      <point x="171" y="177" type="curve"/>
      <point x="295" y="625" type="line" smooth="yes"/>
      <point x="297" y="632"/>
      <point x="298" y="637"/>
    </contour>
    <contour>
      <point x="179" y="48" type="curve" smooth="yes"/>
      <point x="179" y="77"/>
      <point x="162" y="97"/>
      <point x="138" y="97" type="curve" smooth="yes"/>
      <point x="111" y="97"/>
      <point x="92" y="74"/>
      <point x="88" y="43" type="curve"/>
      <point x="87" y="40"/>
      <point x="87" y="37"/>
      <point x="87" y="35" type="curve" smooth="yes"/>
      <point x="87" y="6"/>
      <point x="103" y="-14"/>
      <point x="129" y="-14" type="curve" smooth="yes"/>
      <point x="157" y="-14"/>
      <point x="179" y="13"/>
    </contour>
  </outline>
</glyph>
<glyph name="quotedbl" format="2">
  <advance width="424"/>
  <unicode hex="0022"/>
  <outline>
    <contour>
      <point x="486" y="625" type="curve" smooth="yes"/>
      <point x="486" y="648"/>
      <point x="471" y="662"/>
      <point x="447" y="662" type="curve" smooth="yes"/>
      <point x="405" y="662"/>
      <point x="376" y="624"/>
      <point x="370" y="564" type="curve" smooth="yes"/>
      <point x="365" y="513" type="line"/>
      <point x="350" y="364" type="line"/>
      <point x="378" y="364" type="line"/>
      <point x="447" y="513" type="line" smooth="yes"/>
      <point x="467" y="557"/>
      <point x="486" y="607"/>
    </contour>
    <contour>
      <point x="304" y="624" type="curve" smooth="yes"/>
      <point x="304" y="647"/>
      <point x="288" y="662"/>
      <point x="265" y="662" type="curve" smooth="yes"/>
      <point x="212" y="662"/>
      <point x="196" y="628"/>
      <point x="184" y="515" type="curve" smooth="yes"/>
      <point x="168" y="364" type="line"/>
      <point x="194" y="364" type="line"/>
      <point x="262" y="514" type="line" smooth="yes"/>
      <point x="281" y="555"/>
      <point x="292" y="577"/>
      <point x="297" y="592" type="curve"/>
      <point x="303" y="607"/>
      <point x="304" y="614"/>
    </contour>
  </outline>
</glyph>
<glyph name="numbersign" format="2">
  <advance width="680"/>
  <unicode hex="0023"/>
  <outline>
    <contour>
      <point x="634" y="182" type="line"/>
      <point x="634" y="239" type="line"/>
      <point x="482" y="239" type="line"/>
      <point x="522" y="431" type="line"/>
      <point x="634" y="431" type="line"/>
      <point x="634" y="488" type="line"/>
      <point x="533" y="488" type="line"/>
      <point x="576" y="696" type="line"/>
      <point x="521" y="696" type="line"/>
      <point x="478" y="488" type="line"/>
      <point x="264" y="488" type="line"/>
      <point x="307" y="696" type="line"/>
      <point x="252" y="696" type="line"/>
      <point x="209" y="488" type="line"/>
      <point x="44" y="488" type="line"/>
      <point x="44" y="431" type="line"/>
      <point x="197" y="431" type="line"/>
      <point x="157" y="239" type="line"/>
      <point x="44" y="239" type="line"/>
      <point x="44" y="182" type="line"/>
      <point x="146" y="182" type="line"/>
      <point x="104" y="-25" type="line"/>
      <point x="160" y="-25" type="line"/>
      <point x="201" y="182" type="line"/>
      <point x="417" y="182" type="line"/>
      <point x="373" y="-25" type="line"/>
      <point x="430" y="-25" type="line"/>
      <point x="471" y="182" type="line"/>
    </contour>
    <contour>
      <point x="467" y="431" type="line"/>
      <point x="428" y="240" type="line"/>
      <point x="212" y="240" type="line"/>
      <point x="252" y="431" type="line"/>
    </contour>
  </outline>
</glyph>
<glyph name="dollar" format="2">
  <advance width="472"/>
  <unicode hex="0024"/>
  <outline>
    <contour>
      <point x="474" y="492" type="curve" smooth="yes"/>
      <point x="474" y="544"/>
      <point x="444" y="582"/>
      <point x="395" y="599" type="curve" smooth="yes"/>
      <point x="386" y="602"/>
      <point x="385" y="608"/>
      <point x="386" y="615" type="curve" smooth="yes"/>
      <point x="395" y="663" type="line"/>
      <point x="397" y="669"/>
      <point x="390" y="672"/>
      <point x="384" y="672" type="curve" smooth="yes"/>
      <point x="379" y="672"/>
      <point x="372" y="669"/>
      <point x="372" y="664" type="curve"/>
      <point x="363" y="617" type="line" smooth="yes"/>
      <point x="362" y="611"/>
      <point x="356" y="608"/>
      <point x="349" y="608" type="curve"/>
      <point x="341" y="609"/>
      <point x="332" y="609"/>
      <point x="323" y="609" type="curve" smooth="yes"/>
      <point x="318" y="609"/>
      <point x="313" y="611"/>
      <point x="314" y="617" type="curve" smooth="yes"/>
      <point x="323" y="663" type="line"/>
      <point x="325" y="669"/>
      <point x="320" y="672"/>
      <point x="314" y="672" type="curve" smooth="yes"/>
      <point x="307" y="672"/>
      <point x="300" y="668"/>
      <point x="299" y="664" type="curve"/>
      <point x="288" y="606" type="line"/>
      <point x="205" y="591"/>
      <point x="156" y="531"/>
      <point x="156" y="448" type="curve" smooth="yes"/>
      <point x="156" y="395"/>
      <point x="174" y="353"/>
      <point x="217" y="308" type="curve" smooth="yes"/>
      <point x="224" y="300"/>
      <point x="224" y="292"/>
      <point x="221" y="279" type="curve" smooth="yes"/>
      <point x="168" y="23" type="line"/>
      <point x="149" y="38"/>
      <point x="141" y="53"/>
      <point x="141" y="74" type="curve" smooth="yes"/>
      <point x="141" y="88"/>
      <point x="145" y="102"/>
      <point x="145" y="115" type="curve" smooth="yes"/>
      <point x="145" y="137"/>
      <point x="130" y="153"/>
      <point x="110" y="153" type="curve" smooth="yes"/>
      <point x="87" y="153"/>
      <point x="69" y="134"/>
      <point x="69" y="106" type="curve" smooth="yes"/>
      <point x="69" y="57"/>
      <point x="107" y="15"/>
      <point x="162" y="-6" type="curve"/>
      <point x="146" y="-87" type="line"/>
      <point x="144" y="-91"/>
      <point x="149" y="-93"/>
      <point x="154" y="-94" type="curve" smooth="yes"/>
      <point x="160" y="-95"/>
      <point x="166" y="-93"/>
      <point x="168" y="-89" type="curve"/>
      <point x="183" y="-25" type="line"/>
      <point x="186" y="-20"/>
      <point x="189" y="-15"/>
      <point x="195" y="-14" type="curve"/>
      <point x="209" y="-16"/>
      <point x="209" y="-16"/>
      <point x="221" y="-16" type="curve"/>
      <point x="230" y="-17"/>
      <point x="230" y="-23"/>
      <point x="230" y="-29" type="curve"/>
      <point x="219" y="-88" type="line"/>
      <point x="218" y="-92"/>
      <point x="221" y="-95"/>
      <point x="228" y="-95" type="curve" smooth="yes"/>
      <point x="235" y="-95"/>
      <point x="241" y="-92"/>
      <point x="242" y="-88" type="curve"/>
      <point x="253" y="-30" type="line" smooth="yes"/>
      <point x="256" y="-16"/>
      <point x="261" y="-14"/>
      <point x="267" y="-13" type="curve" smooth="yes"/>
      <point x="357" y="0"/>
      <point x="412" y="59"/>
      <point x="412" y="141" type="curve" smooth="yes"/>
      <point x="412" y="195"/>
      <point x="383" y="245"/>
      <point x="322" y="303" type="curve"/>
      <point x="374" y="559" type="line" smooth="yes"/>
      <point x="377" y="573"/>
      <point x="380" y="574"/>
      <point x="388" y="569" type="curve" smooth="yes"/>
      <point x="406" y="558"/>
      <point x="415" y="543"/>
      <point x="415" y="526" type="curve" smooth="yes"/>
      <point x="415" y="522"/>
      <point x="414" y="518"/>
      <point x="414" y="515" type="curve"/>
      <point x="411" y="502"/>
      <point x="408" y="490"/>
      <point x="408" y="477" type="curve" smooth="yes"/>
      <point x="408" y="454"/>
      <point x="420" y="438"/>
      <point x="440" y="438" type="curve" smooth="yes"/>
      <point x="463" y="438"/>
      <point x="474" y="460"/>
    </contour>
    <contour>
      <point x="352" y="564" type="curve" smooth="yes"/>
      <point x="305" y="333" type="line" smooth="yes"/>
      <point x="304" y="328"/>
      <point x="298" y="327"/>
      <point x="294" y="330" type="curve"/>
      <point x="283" y="342"/>
      <point x="273" y="350"/>
      <point x="261" y="363" type="curve"/>
      <point x="304" y="572" type="line" smooth="yes"/>
      <point x="306" y="580"/>
      <point x="310" y="583"/>
      <point x="315" y="583" type="curve"/>
      <point x="325" y="584"/>
      <point x="335" y="584"/>
      <point x="345" y="583" type="curve" smooth="yes"/>
      <point x="353" y="582"/>
      <point x="355" y="578"/>
    </contour>
    <contour>
      <point x="278" y="558" type="curve" smooth="yes"/>
      <point x="245" y="400" type="line" smooth="yes"/>
      <point x="242" y="386"/>
      <point x="233" y="402"/>
      <point x="230" y="407" type="curve" smooth="yes"/>
      <point x="216" y="431"/>
      <point x="210" y="452"/>
      <point x="210" y="475" type="curve" smooth="yes"/>
      <point x="210" y="515"/>
      <point x="230" y="549"/>
      <point x="267" y="570" type="curve" smooth="yes"/>
      <point x="280" y="577"/>
      <point x="281" y="571"/>
    </contour>
    <contour>
      <point x="346" y="119" type="curve" smooth="yes"/>
      <point x="346" y="71"/>
      <point x="316" y="31"/>
      <point x="271" y="15" type="curve" smooth="yes"/>
      <point x="265" y="13"/>
      <point x="266" y="23"/>
      <point x="266" y="31" type="curve"/>
      <point x="301" y="203" type="line" smooth="yes"/>
      <point x="303" y="211"/>
      <point x="308" y="209"/>
      <point x="311" y="206" type="curve"/>
      <point x="336" y="173"/>
      <point x="346" y="150"/>
    </contour>
    <contour>
      <point x="282" y="220" type="curve" smooth="yes"/>
      <point x="242" y="25" type="line"/>
      <point x="237" y="16"/>
      <point x="238" y="9"/>
      <point x="232" y="9" type="curve" smooth="yes"/>
      <point x="219" y="9"/>
      <point x="213" y="10"/>
      <point x="201" y="12" type="curve" smooth="yes"/>
      <point x="191" y="14"/>
      <point x="195" y="16"/>
      <point x="193" y="29" type="curve"/>
      <point x="240" y="256" type="line"/>
      <point x="245" y="270"/>
      <point x="248" y="271"/>
      <point x="254" y="268" type="curve"/>
      <point x="262" y="261"/>
      <point x="270" y="252"/>
      <point x="278" y="244" type="curve"/>
      <point x="284" y="237"/>
      <point x="284" y="230"/>
    </contour>
  </outline>
</glyph>
<glyph name="percent" format="2">
  <advance width="731"/>
  <unicode hex="0025"/>
  <outline>
    <contour>
      <point x="752" y="194" type="curve" smooth="yes"/>
      <point x="771" y="293"/>
      <point x="728" y="374"/>
      <point x="650" y="374" type="curve" smooth="yes"/>
      <point x="573" y="374"/>
      <point x="499" y="295"/>
      <point x="480" y="197" type="curve" smooth="yes"/>
      <point x="461" y="99"/>
      <point x="503" y="17"/>
      <point x="583" y="17" type="curve" smooth="yes"/>
      <point x="660" y="17"/>
      <point x="733" y="96"/>
    </contour>
    <contour>
      <point x="655" y="623" type="line"/>
      <point x="659" y="626"/>
      <point x="665" y="637"/>
      <point x="654" y="641" type="curve"/>
      <point x="654" y="641"/>
      <point x="640" y="645"/>
      <point x="629" y="643" type="curve"/>
      <point x="618" y="644"/>
      <point x="616" y="639"/>
      <point x="610" y="631" type="curve"/>
      <point x="577" y="582"/>
      <point x="575" y="580"/>
      <point x="530" y="511" type="curve" smooth="yes"/>
      <point x="484" y="442"/>
      <point x="396" y="309"/>
      <point x="193" y="0" type="curve" smooth="yes"/>
      <point x="185" y="-12"/>
      <point x="192" y="-21"/>
      <point x="203" y="-22" type="curve"/>
      <point x="217" y="-22" type="line" smooth="yes"/>
      <point x="229" y="-22"/>
      <point x="231" y="-18"/>
      <point x="237" y="-10" type="curve"/>
    </contour>
    <contour>
      <point x="382" y="462" type="curve" smooth="yes"/>
      <point x="401" y="560"/>
      <point x="359" y="641"/>
      <point x="280" y="641" type="curve" smooth="yes"/>
      <point x="203" y="641"/>
      <point x="129" y="562"/>
      <point x="110" y="464" type="curve" smooth="yes"/>
      <point x="91" y="366"/>
      <point x="133" y="285"/>
      <point x="213" y="285" type="curve" smooth="yes"/>
      <point x="290" y="285"/>
      <point x="363" y="363"/>
    </contour>
    <contour>
      <point x="682" y="197" type="curve" smooth="yes"/>
      <point x="662" y="91"/>
      <point x="629" y="46"/>
      <point x="586" y="46" type="curve" smooth="yes"/>
      <point x="545" y="46"/>
      <point x="528" y="87"/>
      <point x="549" y="194" type="curve" smooth="yes"/>
      <point x="570" y="301"/>
      <point x="603" y="346"/>
      <point x="647" y="346" type="curve" smooth="yes"/>
      <point x="687" y="346"/>
      <point x="703" y="305"/>
    </contour>
    <contour>
      <point x="312" y="464" type="curve" smooth="yes"/>
      <point x="292" y="358"/>
      <point x="260" y="313"/>
      <point x="216" y="313" type="curve" smooth="yes"/>
      <point x="175" y="313"/>
      <point x="158" y="354"/>
      <point x="179" y="462" type="curve" smooth="yes"/>
      <point x="200" y="568"/>
      <point x="233" y="613"/>
      <point x="277" y="613" type="curve" smooth="yes"/>
      <point x="317" y="613"/>
      <point x="333" y="572"/>
    </contour>
  </outline>
</glyph>
<glyph name="ampersand" format="2">
  <advance width="720"/>
  <unicode hex="0026"/>
  <outline>
    <contour>
      <point x="772" y="393" type="curve" smooth="yes"/>
      <point x="772" y="411"/>
      <point x="762" y="426"/>
      <point x="743" y="426" type="curve" smooth="yes"/>
      <point x="723" y="426"/>
      <point x="715" y="415"/>
      <point x="715" y="401" type="curve"/>
      <point x="716" y="384"/>
      <point x="733" y="377"/>
      <point x="733" y="365" type="curve" smooth="yes"/>
      <point x="733" y="352"/>
      <point x="710" y="341"/>
      <point x="673" y="341" type="curve" smooth="yes"/>
      <point x="641" y="341"/>
      <point x="608" y="343"/>
      <point x="576" y="343" type="curve" smooth="yes"/>
      <point x="504" y="343"/>
      <point x="469" y="332"/>
      <point x="438" y="301" type="curve" smooth="yes"/>
      <point x="419" y="281"/>
      <point x="403" y="254"/>
      <point x="405" y="232" type="curve" smooth="yes"/>
      <point x="411" y="179"/>
      <point x="471" y="182"/>
      <point x="469" y="223" type="curve" smooth="yes"/>
      <point x="468" y="236"/>
      <point x="461" y="244"/>
      <point x="453" y="252" type="curve" smooth="yes"/>
      <point x="449" y="256"/>
      <point x="446" y="260"/>
      <point x="446" y="265" type="curve" smooth="yes"/>
      <point x="446" y="277"/>
      <point x="480" y="292"/>
      <point x="523" y="292" type="curve" smooth="yes"/>
      <point x="586" y="292"/>
      <point x="622" y="256"/>
      <point x="622" y="202" type="curve" smooth="yes"/>
      <point x="622" y="90"/>
      <point x="485" y="23"/>
      <point x="390" y="23" type="curve" smooth="yes"/>
      <point x="265" y="23"/>
      <point x="185" y="95"/>
      <point x="185" y="207" type="curve" smooth="yes"/>
      <point x="185" y="291"/>
      <point x="239" y="353"/>
      <point x="313" y="353" type="curve" smooth="yes"/>
      <point x="334" y="353"/>
      <point x="388" y="337"/>
      <point x="388" y="371" type="curve" smooth="yes"/>
      <point x="388" y="397"/>
      <point x="345" y="387"/>
      <point x="330" y="387" type="curve" smooth="yes"/>
      <point x="291" y="387"/>
      <point x="262" y="425"/>
      <point x="262" y="479" type="curve" smooth="yes"/>
      <point x="262" y="574"/>
      <point x="326" y="633"/>
      <point x="417" y="633" type="curve" smooth="yes"/>
      <point x="470" y="633"/>
      <point x="499" y="617"/>
      <point x="507" y="585" type="curve"/>
      <point x="509" y="579"/>
      <point x="510" y="572"/>
      <point x="512" y="565" type="curve"/>
      <point x="519" y="546"/>
      <point x="528" y="528"/>
      <point x="552" y="528" type="curve" smooth="yes"/>
      <point x="571" y="528"/>
      <point x="587" y="544"/>
      <point x="587" y="562" type="curve" smooth="yes"/>
      <point x="587" y="640"/>
      <point x="463" y="663"/>
      <point x="410" y="663" type="curve" smooth="yes"/>
      <point x="280" y="663"/>
      <point x="176" y="590"/>
      <point x="176" y="492" type="curve" smooth="yes"/>
      <point x="176" y="443"/>
      <point x="208" y="404"/>
      <point x="266" y="382" type="curve" smooth="yes"/>
      <point x="274" y="379"/>
      <point x="266" y="371"/>
      <point x="254" y="368" type="curve" smooth="yes"/>
      <point x="158" y="343"/>
      <point x="92" y="271"/>
      <point x="92" y="187" type="curve" smooth="yes"/>
      <point x="92" y="41"/>
      <point x="238" y="-19"/>
      <point x="357" y="-19" type="curve" smooth="yes"/>
      <point x="476" y="-19"/>
      <point x="653" y="57"/>
      <point x="653" y="202" type="curve" smooth="yes"/>
      <point x="653" y="235"/>
      <point x="641" y="259"/>
      <point x="613" y="283" type="curve" smooth="yes"/>
      <point x="603" y="291"/>
      <point x="622" y="291"/>
      <point x="626" y="291" type="curve"/>
      <point x="716" y="297"/>
      <point x="772" y="336"/>
    </contour>
  </outline>
</glyph>
<glyph name="quotesingle" format="2">
  <advance width="223"/>
  <unicode hex="0027"/>
  <outline>
    <contour>
      <point x="251" y="662" type="curve" smooth="yes"/>
      <point x="179" y="662"/>
      <point x="172" y="558"/>
      <point x="168" y="509" type="curve" smooth="yes"/>
      <point x="157" y="386" type="line"/>
      <point x="157" y="377"/>
      <point x="159" y="363"/>
      <point x="168" y="363" type="curve" smooth="yes"/>
      <point x="181" y="363"/>
      <point x="182" y="368"/>
      <point x="188" y="379" type="curve" smooth="yes"/>
      <point x="245" y="489" type="line" smooth="yes"/>
      <point x="284" y="564"/>
      <point x="321" y="662"/>
    </contour>
  </outline>
</glyph>
<glyph name="parenleft" format="2">
  <advance width="306"/>
  <unicode hex="0028"/>
  <outline>
    <contour>
      <point x="400" y="691" type="curve"/>
      <point x="398" y="695"/>
      <point x="393" y="698"/>
      <point x="384" y="690" type="curve"/>
      <point x="233" y="540"/>
      <point x="100" y="341"/>
      <point x="100" y="121" type="curve" smooth="yes"/>
      <point x="100" y="5"/>
      <point x="136" y="-122"/>
      <point x="184" y="-227" type="curve" smooth="yes"/>
      <point x="188" y="-236"/>
      <point x="195" y="-242"/>
      <point x="201" y="-239" type="curve"/>
      <point x="211" y="-235"/>
      <point x="208" y="-226"/>
      <point x="205" y="-217" type="curve" smooth="yes"/>
      <point x="151" y="-64"/>
      <point x="142" y="97"/>
      <point x="183" y="255" type="curve" smooth="yes"/>
      <point x="223" y="411"/>
      <point x="293" y="548"/>
      <point x="396" y="672" type="curve" smooth="yes"/>
      <point x="403" y="680"/>
      <point x="404" y="684"/>
    </contour>
  </outline>
</glyph>
<glyph name="parenright" format="2">
  <advance width="286"/>
  <unicode hex="0029"/>
  <outline>
    <contour>
      <point x="260" y="335" type="curve" smooth="yes"/>
      <point x="260" y="467"/>
      <point x="226" y="572"/>
      <point x="176" y="682" type="curve" smooth="yes"/>
      <point x="169" y="696"/>
      <point x="165" y="699"/>
      <point x="158" y="695" type="curve" smooth="yes"/>
      <point x="153" y="692"/>
      <point x="151" y="686"/>
      <point x="154" y="676" type="curve" smooth="yes"/>
      <point x="206" y="516"/>
      <point x="219" y="367"/>
      <point x="177" y="202" type="curve" smooth="yes"/>
      <point x="159" y="133"/>
      <point x="118" y="25"/>
      <point x="87" y="-36" type="curve" smooth="yes"/>
      <point x="57" y="-93"/>
      <point x="22" y="-146"/>
      <point x="-32" y="-209" type="curve"/>
      <point x="-35" y="-213"/>
      <point x="-46" y="-225"/>
      <point x="-40" y="-235" type="curve" smooth="yes"/>
      <point x="-37" y="-240"/>
      <point x="-27" y="-237"/>
      <point x="-20" y="-230" type="curve" smooth="yes"/>
      <point x="33" y="-178"/>
      <point x="84" y="-117"/>
      <point x="128" y="-53" type="curve" smooth="yes"/>
      <point x="218" y="79"/>
      <point x="260" y="202"/>
    </contour>
  </outline>
</glyph>
<glyph name="asterisk" format="2">
  <advance width="557"/>
  <unicode hex="002A"/>
  <outline>
    <contour>
      <point x="486" y="376" type="curve" smooth="yes"/>
      <point x="486" y="410"/>
      <point x="468" y="417"/>
      <point x="437" y="424" type="curve" smooth="yes"/>
      <point x="421" y="427"/>
      <point x="402" y="431"/>
      <point x="381" y="438" type="curve"/>
      <point x="363" y="443"/>
      <point x="344" y="451"/>
      <point x="322" y="464" type="curve" smooth="yes"/>
      <point x="310" y="471"/>
      <point x="309" y="473"/>
      <point x="322" y="480" type="curve" smooth="yes"/>
      <point x="344" y="491"/>
      <point x="364" y="499"/>
      <point x="381" y="504" type="curve" smooth="yes"/>
      <point x="403" y="511"/>
      <point x="422" y="515"/>
      <point x="437" y="519" type="curve" smooth="yes"/>
      <point x="469" y="527"/>
      <point x="486" y="536"/>
      <point x="486" y="567" type="curve" smooth="yes"/>
      <point x="486" y="576"/>
      <point x="480" y="603"/>
      <point x="446" y="603" type="curve" smooth="yes"/>
      <point x="430" y="603"/>
      <point x="419" y="593"/>
      <point x="409" y="581" type="curve"/>
      <point x="405" y="577"/>
      <point x="400" y="571"/>
      <point x="396" y="566" type="curve" smooth="yes"/>
      <point x="379" y="546"/>
      <point x="357" y="522"/>
      <point x="317" y="497" type="curve" smooth="yes"/>
      <point x="307" y="491"/>
      <point x="300" y="486"/>
      <point x="301" y="504" type="curve" smooth="yes"/>
      <point x="302" y="546"/>
      <point x="309" y="572"/>
      <point x="315" y="593" type="curve" smooth="yes"/>
      <point x="321" y="613"/>
      <point x="329" y="632"/>
      <point x="329" y="654" type="curve" smooth="yes"/>
      <point x="329" y="674"/>
      <point x="316" y="695"/>
      <point x="291" y="695" type="curve" smooth="yes"/>
      <point x="266" y="695"/>
      <point x="254" y="674"/>
      <point x="254" y="654" type="curve" smooth="yes"/>
      <point x="254" y="632"/>
      <point x="261" y="613"/>
      <point x="267" y="593" type="curve" smooth="yes"/>
      <point x="274" y="572"/>
      <point x="279" y="546"/>
      <point x="281" y="504" type="curve" smooth="yes"/>
      <point x="281" y="491"/>
      <point x="279" y="488"/>
      <point x="268" y="495" type="curve" smooth="yes"/>
      <point x="227" y="521"/>
      <point x="204" y="546"/>
      <point x="187" y="566" type="curve"/>
      <point x="182" y="571"/>
      <point x="178" y="577"/>
      <point x="174" y="581" type="curve" smooth="yes"/>
      <point x="163" y="593"/>
      <point x="152" y="603"/>
      <point x="136" y="603" type="curve" smooth="yes"/>
      <point x="103" y="603"/>
      <point x="96" y="576"/>
      <point x="96" y="567" type="curve" smooth="yes"/>
      <point x="96" y="536"/>
      <point x="114" y="527"/>
      <point x="145" y="519" type="curve" smooth="yes"/>
      <point x="161" y="515"/>
      <point x="180" y="511"/>
      <point x="201" y="504" type="curve"/>
      <point x="219" y="499"/>
      <point x="239" y="491"/>
      <point x="262" y="479" type="curve" smooth="yes"/>
      <point x="275" y="472"/>
      <point x="267" y="467"/>
      <point x="260" y="464" type="curve"/>
      <point x="238" y="451"/>
      <point x="219" y="443"/>
      <point x="202" y="438" type="curve" smooth="yes"/>
      <point x="180" y="431"/>
      <point x="161" y="427"/>
      <point x="146" y="424" type="curve" smooth="yes"/>
      <point x="114" y="417"/>
      <point x="96" y="410"/>
      <point x="96" y="376" type="curve" smooth="yes"/>
      <point x="96" y="360"/>
      <point x="110" y="341"/>
      <point x="132" y="341" type="curve" smooth="yes"/>
      <point x="145" y="341"/>
      <point x="155" y="345"/>
      <point x="163" y="352" type="curve"/>
      <point x="173" y="359"/>
      <point x="181" y="369"/>
      <point x="189" y="379" type="curve" smooth="yes"/>
      <point x="205" y="399"/>
      <point x="226" y="425"/>
      <point x="268" y="450" type="curve" smooth="yes"/>
      <point x="278" y="456"/>
      <point x="280" y="451"/>
      <point x="280" y="442" type="curve"/>
      <point x="279" y="387"/>
      <point x="273" y="362"/>
      <point x="266" y="345" type="curve"/>
      <point x="263" y="335"/>
      <point x="258" y="328"/>
      <point x="257" y="320" type="curve"/>
      <point x="254" y="312"/>
      <point x="252" y="303"/>
      <point x="252" y="291" type="curve" smooth="yes"/>
      <point x="252" y="267"/>
      <point x="267" y="247"/>
      <point x="291" y="247" type="curve" smooth="yes"/>
      <point x="315" y="247"/>
      <point x="330" y="267"/>
      <point x="330" y="291" type="curve" smooth="yes"/>
      <point x="330" y="303"/>
      <point x="328" y="312"/>
      <point x="326" y="320" type="curve"/>
      <point x="323" y="328"/>
      <point x="320" y="335"/>
      <point x="316" y="345" type="curve" smooth="yes"/>
      <point x="310" y="362"/>
      <point x="303" y="388"/>
      <point x="302" y="445" type="curve" smooth="yes"/>
      <point x="302" y="455"/>
      <point x="306" y="455"/>
      <point x="315" y="450" type="curve" smooth="yes"/>
      <point x="357" y="424"/>
      <point x="378" y="399"/>
      <point x="394" y="379" type="curve"/>
      <point x="398" y="373"/>
      <point x="402" y="368"/>
      <point x="407" y="363" type="curve"/>
      <point x="419" y="349"/>
      <point x="431" y="341"/>
      <point x="451" y="341" type="curve" smooth="yes"/>
      <point x="472" y="341"/>
      <point x="486" y="360"/>
    </contour>
  </outline>
</glyph>
<glyph name="plus" format="2">
  <advance width="679"/>
  <unicode hex="002B"/>
  <outline>
    <contour>
      <point x="609" y="304" type="line"/>
      <point x="609" y="362" type="line"/>
      <point x="367" y="362" type="line"/>
      <point x="367" y="608" type="line"/>
      <point x="309" y="608" type="line"/>
      <point x="309" y="362" type="line"/>
      <point x="69" y="362" type="line"/>
      <point x="69" y="304" type="line"/>
      <point x="309" y="304" type="line"/>
      <point x="309" y="60" type="line"/>
      <point x="367" y="60" type="line"/>
      <point x="367" y="304" type="line"/>
    </contour>
  </outline>
</glyph>
<glyph name="comma" format="2">
  <advance width="257"/>
  <unicode hex="002C"/>
  <outline>
    <contour>
      <point x="208" y="17" type="curve" smooth="yes"/>
      <point x="208" y="57"/>
      <point x="187" y="89"/>
      <point x="158" y="89" type="curve" smooth="yes"/>
      <point x="135" y="89"/>
      <point x="113" y="66"/>
      <point x="113" y="39" type="curve" smooth="yes"/>
      <point x="113" y="24"/>
      <point x="122" y="11"/>
      <point x="129" y="-2" type="curve"/>
      <point x="137" y="-15"/>
      <point x="145" y="-30"/>
      <point x="145" y="-46" type="curve" smooth="yes"/>
      <point x="145" y="-95"/>
      <point x="94" y="-126"/>
      <point x="59" y="-154" type="curve" smooth="yes"/>
      <point x="50" y="-161"/>
      <point x="52" y="-179"/>
      <point x="69" y="-173" type="curve"/>
      <point x="164" y="-117"/>
      <point x="208" y="-58"/>
    </contour>
  </outline>
</glyph>
<glyph name="hyphen" format="2">
  <advance width="332"/>
  <unicode hex="002D"/>
  <outline>
    <contour>
      <point x="305" y="226" type="curve" smooth="yes"/>
      <point x="307" y="238"/>
      <point x="303" y="239"/>
      <point x="294" y="239" type="curve" smooth="yes"/>
      <point x="85" y="239" type="line" smooth="yes"/>
      <point x="66" y="239"/>
      <point x="68" y="237"/>
      <point x="64" y="226" type="curve"/>
      <point x="63" y="222"/>
      <point x="61" y="218"/>
      <point x="60" y="206" type="curve" smooth="yes"/>
      <point x="57" y="183"/>
      <point x="57" y="184"/>
      <point x="78" y="184" type="curve" smooth="yes"/>
      <point x="286" y="184" type="line"/>
      <point x="295" y="182"/>
      <point x="297" y="187"/>
      <point x="299" y="193" type="curve"/>
      <point x="301" y="201"/>
      <point x="303" y="210"/>
    </contour>
  </outline>
</glyph>
<glyph name="period" format="2">
  <advance width="244"/>
  <unicode hex="002E"/>
  <outline>
    <contour>
      <point x="168" y="48" type="curve" smooth="yes"/>
      <point x="168" y="76"/>
      <point x="152" y="96"/>
      <point x="127" y="96" type="curve" smooth="yes"/>
      <point x="102" y="96"/>
      <point x="80" y="73"/>
      <point x="77" y="42" type="curve" smooth="yes"/>
      <point x="73" y="14"/>
      <point x="85" y="-14"/>
      <point x="118" y="-14" type="curve" smooth="yes"/>
      <point x="147" y="-14"/>
      <point x="168" y="13"/>
    </contour>
  </outline>
</glyph>
<glyph name="slash" format="2">
  <advance width="349"/>
  <unicode hex="002F"/>
  <outline>
    <contour>
      <point x="368" y="587" type="curve" smooth="yes"/>
      <point x="377" y="605"/>
      <point x="364" y="613"/>
      <point x="359" y="614" type="curve"/>
      <point x="334" y="617" type="line" smooth="yes"/>
      <point x="315" y="619"/>
      <point x="310" y="604"/>
      <point x="305" y="596" type="curve"/>
      <point x="234" y="436"/>
      <point x="78" y="120"/>
      <point x="-7" y="-38" type="curve"/>
      <point x="-14" y="-57"/>
      <point x="-1" y="-61"/>
      <point x="8" y="-62" type="curve" smooth="yes"/>
      <point x="35" y="-64" type="line" smooth="yes"/>
      <point x="45" y="-65"/>
      <point x="54" y="-55"/>
      <point x="63" y="-44" type="curve"/>
      <point x="137" y="115"/>
      <point x="267" y="382"/>
    </contour>
  </outline>
</glyph>
<glyph name="zero" format="2">
  <advance width="432"/>
  <unicode hex="0030"/>
  <outline>
    <contour>
      <point x="412" y="288" type="curve" smooth="yes"/>
      <point x="412" y="374"/>
      <point x="360" y="454"/>
      <point x="312" y="454" type="curve" smooth="yes"/>
      <point x="286" y="454"/>
      <point x="242" y="434"/>
      <point x="203" y="407" type="curve" smooth="yes"/>
      <point x="113" y="344"/>
      <point x="60" y="253"/>
      <point x="60" y="161" type="curve" smooth="yes"/>
      <point x="60" y="70"/>
      <point x="110" y="-16"/>
      <point x="158" y="-16" type="curve" smooth="yes"/>
      <point x="173" y="-16"/>
      <point x="194" y="-10"/>
      <point x="217" y="0" type="curve" smooth="yes"/>
      <point x="269" y="23"/>
      <point x="324" y="69"/>
      <point x="355" y="111" type="curve" smooth="yes"/>
      <point x="392" y="160"/>
      <point x="412" y="222"/>
    </contour>
    <contour>
      <point x="337" y="274" type="curve" smooth="yes"/>
      <point x="337" y="145"/>
      <point x="272" y="31"/>
      <point x="205" y="31" type="curve" smooth="yes"/>
      <point x="169" y="31"/>
      <point x="136" y="85"/>
      <point x="136" y="158" type="curve" smooth="yes"/>
      <point x="136" y="289"/>
      <point x="196" y="404"/>
      <point x="259" y="404" type="curve" smooth="yes"/>
      <point x="301" y="404"/>
      <point x="337" y="349"/>
    </contour>
  </outline>
</glyph>
<glyph name="one" format="2">
  <advance width="380"/>
  <unicode hex="0031"/>
  <outline>
    <contour>
      <point x="319" y="446" type="line" smooth="yes"/>
      <point x="320" y="451"/>
      <point x="312" y="460"/>
      <point x="305" y="460" type="curve" smooth="yes"/>
      <point x="297" y="460"/>
      <point x="293" y="461"/>
      <point x="284" y="454" type="curve"/>
      <point x="156" y="381" type="line"/>
      <point x="150" y="379"/>
      <point x="148" y="372"/>
      <point x="148" y="365" type="curve" smooth="yes"/>
      <point x="148" y="360"/>
      <point x="149" y="353"/>
      <point x="153" y="355" type="curve" smooth="yes"/>
      <point x="222" y="386" type="line"/>
      <point x="225" y="386"/>
      <point x="235" y="395"/>
      <point x="232" y="378" type="curve" smooth="yes"/>
      <point x="172" y="73" type="line" smooth="yes"/>
      <point x="169" y="57"/>
      <point x="168" y="41"/>
      <point x="151" y="34" type="curve" smooth="yes"/>
      <point x="131" y="26"/>
      <point x="103" y="23"/>
      <point x="81" y="22" type="curve"/>
      <point x="78" y="21"/>
      <point x="73" y="16"/>
      <point x="72" y="9" type="curve"/>
      <point x="71" y="5"/>
      <point x="73" y="-1"/>
      <point x="77" y="-1" type="curve" smooth="yes"/>
      <point x="136" y="1"/>
      <point x="234" y="0"/>
      <point x="309" y="-1" type="curve" smooth="yes"/>
      <point x="319" y="-1"/>
      <point x="322" y="22"/>
      <point x="314" y="22" type="curve"/>
      <point x="255" y="26"/>
      <point x="242" y="31"/>
      <point x="242" y="50" type="curve" smooth="yes"/>
      <point x="242" y="52"/>
      <point x="242" y="58"/>
      <point x="248" y="86" type="curve" smooth="yes"/>
    </contour>
  </outline>
</glyph>
<glyph name="two" format="2">
  <advance width="414"/>
  <unicode hex="0032"/>
  <outline>
    <contour>
      <point x="409" y="348" type="curve" smooth="yes"/>
      <point x="409" y="401"/>
      <point x="366" y="455"/>
      <point x="300" y="455" type="curve" smooth="yes"/>
      <point x="217" y="455"/>
      <point x="156" y="389"/>
      <point x="121" y="346" type="curve"/>
      <point x="116" y="336"/>
      <point x="130" y="320"/>
      <point x="139" y="329" type="curve"/>
      <point x="172" y="366"/>
      <point x="211" y="409"/>
      <point x="266" y="409" type="curve" smooth="yes"/>
      <point x="299" y="409"/>
      <point x="331" y="391"/>
      <point x="331" y="352" type="curve" smooth="yes"/>
      <point x="331" y="324"/>
      <point x="323" y="303"/>
      <point x="301" y="277" type="curve" smooth="yes"/>
      <point x="245" y="213"/>
      <point x="166" y="161"/>
      <point x="104" y="96" type="curve" smooth="yes"/>
      <point x="80" y="70"/>
      <point x="58" y="45"/>
      <point x="37" y="21" type="curve"/>
      <point x="34" y="15"/>
      <point x="31" y="-1"/>
      <point x="38" y="-1" type="curve" smooth="yes"/>
      <point x="123" y="0"/>
      <point x="231" y="0"/>
      <point x="309" y="-1" type="curve" smooth="yes"/>
      <point x="319" y="-1"/>
      <point x="325" y="2"/>
      <point x="330" y="9" type="curve"/>
      <point x="342" y="41"/>
      <point x="363" y="90"/>
      <point x="378" y="123" type="curve" smooth="yes"/>
      <point x="382" y="133"/>
      <point x="358" y="137"/>
      <point x="353" y="124" type="curve"/>
      <point x="344" y="109"/>
      <point x="339" y="99"/>
      <point x="334" y="90" type="curve" smooth="yes"/>
      <point x="321" y="67"/>
      <point x="299" y="63"/>
      <point x="274" y="63" type="curve" smooth="yes"/>
      <point x="127" y="63" type="line" smooth="yes"/>
      <point x="114" y="63"/>
      <point x="106" y="65"/>
      <point x="111" y="70" type="curve" smooth="yes"/>
      <point x="140" y="98"/>
      <point x="187" y="140"/>
      <point x="279" y="196" type="curve" smooth="yes"/>
      <point x="343" y="234"/>
      <point x="409" y="275"/>
    </contour>
  </outline>
</glyph>
<glyph name="three" format="2">
  <advance width="427"/>
  <unicode hex="0033"/>
  <outline>
    <contour>
      <point x="421" y="368" type="curve" smooth="yes"/>
      <point x="421" y="379"/>
      <point x="419" y="452"/>
      <point x="319" y="452" type="curve" smooth="yes"/>
      <point x="262" y="452"/>
      <point x="199" y="426"/>
      <point x="120" y="339" type="curve"/>
      <point x="111" y="327"/>
      <point x="131" y="317"/>
      <point x="137" y="323" type="curve" smooth="yes"/>
      <point x="198" y="385"/>
      <point x="247" y="408"/>
      <point x="283" y="408" type="curve" smooth="yes"/>
      <point x="315" y="408"/>
      <point x="340" y="385"/>
      <point x="340" y="351" type="curve" smooth="yes"/>
      <point x="340" y="271"/>
      <point x="230" y="219"/>
      <point x="170" y="192" type="curve" smooth="yes"/>
      <point x="163" y="189"/>
      <point x="160" y="181"/>
      <point x="160" y="174" type="curve"/>
      <point x="161" y="167"/>
      <point x="169" y="165"/>
      <point x="177" y="168" type="curve" smooth="yes"/>
      <point x="198" y="177"/>
      <point x="212" y="181"/>
      <point x="233" y="181" type="curve" smooth="yes"/>
      <point x="278" y="181"/>
      <point x="305" y="139"/>
      <point x="305" y="83" type="curve" smooth="yes"/>
      <point x="305" y="-46"/>
      <point x="208" y="-142"/>
      <point x="134" y="-142" type="curve" smooth="yes"/>
      <point x="116" y="-142"/>
      <point x="95" y="-135"/>
      <point x="78" y="-126" type="curve" smooth="yes"/>
      <point x="62" y="-118"/>
      <point x="45" y="-106"/>
      <point x="26" y="-106" type="curve" smooth="yes"/>
      <point x="7" y="-106"/>
      <point x="-1" y="-127"/>
      <point x="-1" y="-143" type="curve" smooth="yes"/>
      <point x="-1" y="-165"/>
      <point x="16" y="-184"/>
      <point x="67" y="-184" type="curve" smooth="yes"/>
      <point x="192" y="-184"/>
      <point x="385" y="-54"/>
      <point x="385" y="115" type="curve" smooth="yes"/>
      <point x="385" y="148"/>
      <point x="369" y="172"/>
      <point x="352" y="189" type="curve" smooth="yes"/>
      <point x="337" y="203"/>
      <point x="314" y="216"/>
      <point x="293" y="221" type="curve"/>
      <point x="288" y="221"/>
      <point x="287" y="227"/>
      <point x="293" y="230" type="curve" smooth="yes"/>
      <point x="341" y="252"/>
      <point x="421" y="303"/>
    </contour>
  </outline>
</glyph>
<glyph name="four" format="2">
  <advance width="448"/>
  <unicode hex="0034"/>
  <outline>
    <contour>
      <point x="430" y="62" type="curve"/>
      <point x="434" y="81"/>
      <point x="425" y="90"/>
      <point x="419" y="90" type="curve" smooth="yes"/>
      <point x="351" y="90" type="line"/>
      <point x="347" y="91"/>
      <point x="346" y="94"/>
      <point x="347" y="101" type="curve"/>
      <point x="375" y="236"/>
      <point x="391" y="316"/>
      <point x="414" y="431" type="curve" smooth="yes"/>
      <point x="416" y="441"/>
      <point x="410" y="446"/>
      <point x="401" y="445" type="curve" smooth="yes"/>
      <point x="386" y="444" type="line"/>
      <point x="283" y="343"/>
      <point x="190" y="230"/>
      <point x="70" y="82" type="curve" smooth="yes"/>
      <point x="61" y="71"/>
      <point x="64" y="58"/>
      <point x="64" y="44" type="curve" smooth="yes"/>
      <point x="64" y="38"/>
      <point x="71" y="35"/>
      <point x="75" y="35" type="curve" smooth="yes"/>
      <point x="247" y="35" type="line" smooth="yes"/>
      <point x="249" y="35"/>
      <point x="260" y="33"/>
      <point x="257" y="26" type="curve"/>
      <point x="218" y="-169" type="line" smooth="yes"/>
      <point x="215" y="-182"/>
      <point x="226" y="-184"/>
      <point x="236" y="-184" type="curve" smooth="yes"/>
      <point x="271" y="-184" type="line"/>
      <point x="278" y="-186"/>
      <point x="289" y="-182"/>
      <point x="291" y="-170" type="curve" smooth="yes"/>
      <point x="331" y="23" type="line"/>
      <point x="333" y="27"/>
      <point x="338" y="35"/>
      <point x="354" y="35" type="curve" smooth="yes"/>
      <point x="415" y="35" type="line"/>
      <point x="424" y="36"/>
      <point x="428" y="49"/>
    </contour>
    <contour>
      <point x="331" y="342" type="curve"/>
      <point x="330" y="342" type="line"/>
      <point x="308" y="252"/>
      <point x="292" y="191"/>
      <point x="269" y="101" type="curve"/>
      <point x="268" y="94"/>
      <point x="259" y="94"/>
      <point x="254" y="94" type="curve" smooth="yes"/>
      <point x="131" y="94" type="line"/>
      <point x="128" y="95"/>
      <point x="121" y="98"/>
      <point x="125" y="103" type="curve" smooth="yes"/>
      <point x="165" y="156"/>
      <point x="261" y="274"/>
    </contour>
  </outline>
</glyph>
<glyph name="five" format="2">
  <advance width="432"/>
  <unicode hex="0035"/>
  <outline>
    <contour>
      <point x="387" y="466" type="curve"/>
      <point x="387" y="474"/>
      <point x="369" y="472"/>
      <point x="367" y="467" type="curve"/>
      <point x="365" y="461"/>
      <point x="362" y="449"/>
      <point x="357" y="445" type="curve"/>
      <point x="348" y="437"/>
      <point x="222" y="441"/>
      <point x="221" y="441" type="curve" smooth="yes"/>
      <point x="188" y="441"/>
      <point x="182" y="445"/>
      <point x="174" y="410" type="curve" smooth="yes"/>
      <point x="159" y="349"/>
      <point x="148" y="297"/>
      <point x="133" y="241" type="curve" smooth="yes"/>
      <point x="130" y="229"/>
      <point x="125" y="221"/>
      <point x="147" y="220" type="curve" smooth="yes"/>
      <point x="161" y="219"/>
      <point x="299" y="189"/>
      <point x="299" y="73" type="curve" smooth="yes"/>
      <point x="299" y="-27"/>
      <point x="229" y="-116"/>
      <point x="146" y="-116" type="curve" smooth="yes"/>
      <point x="131" y="-116"/>
      <point x="114" y="-109"/>
      <point x="100" y="-103" type="curve" smooth="yes"/>
      <point x="66" y="-88"/>
      <point x="61" y="-86"/>
      <point x="50" y="-86" type="curve" smooth="yes"/>
      <point x="29" y="-86"/>
      <point x="11" y="-119"/>
      <point x="11" y="-135" type="curve" smooth="yes"/>
      <point x="11" y="-167"/>
      <point x="69" y="-172"/>
      <point x="86" y="-172" type="curve" smooth="yes"/>
      <point x="168" y="-172"/>
      <point x="247" y="-108"/>
      <point x="288" y="-63" type="curve" smooth="yes"/>
      <point x="356" y="12"/>
      <point x="363" y="73"/>
      <point x="363" y="109" type="curve" smooth="yes"/>
      <point x="363" y="145"/>
      <point x="354" y="192"/>
      <point x="316" y="225" type="curve" smooth="yes"/>
      <point x="291" y="248"/>
      <point x="243" y="274"/>
      <point x="186" y="283" type="curve" smooth="yes"/>
      <point x="176" y="285"/>
      <point x="173" y="288"/>
      <point x="174" y="291" type="curve"/>
      <point x="180" y="324"/>
      <point x="184" y="339"/>
      <point x="190" y="363" type="curve" smooth="yes"/>
      <point x="192" y="370"/>
      <point x="197" y="370"/>
      <point x="200" y="370" type="curve" smooth="yes"/>
      <point x="248" y="370"/>
      <point x="297" y="367"/>
      <point x="346" y="366" type="curve" smooth="yes"/>
      <point x="356" y="366"/>
      <point x="359" y="369"/>
      <point x="362" y="378" type="curve"/>
      <point x="370" y="408"/>
      <point x="378" y="435"/>
    </contour>
  </outline>
</glyph>
<glyph name="six" format="2">
  <advance width="463"/>
  <unicode hex="0036"/>
  <outline>
    <contour>
      <point x="497" y="663" type="curve"/>
      <point x="496" y="668"/>
      <point x="489" y="670"/>
      <point x="486" y="670" type="curve"/>
      <point x="438" y="662"/>
      <point x="351" y="649"/>
      <point x="247" y="548" type="curve" smooth="yes"/>
      <point x="154" y="458"/>
      <point x="86" y="341"/>
      <point x="86" y="211" type="curve" smooth="yes"/>
      <point x="86" y="109"/>
      <point x="133" y="-9"/>
      <point x="217" y="-9" type="curve" smooth="yes"/>
      <point x="309" y="-9"/>
      <point x="436" y="151"/>
      <point x="436" y="302" type="curve" smooth="yes"/>
      <point x="436" y="388"/>
      <point x="382" y="449"/>
      <point x="348" y="449" type="curve" smooth="yes"/>
      <point x="334" y="449"/>
      <point x="291" y="429"/>
      <point x="253" y="392" type="curve" smooth="yes"/>
      <point x="230" y="370"/>
      <point x="223" y="362"/>
      <point x="205" y="339" type="curve"/>
      <point x="198" y="331"/>
      <point x="183" y="320"/>
      <point x="187" y="332" type="curve" smooth="yes"/>
      <point x="243" y="511"/>
      <point x="361" y="612"/>
      <point x="487" y="647" type="curve"/>
      <point x="494" y="648"/>
      <point x="499" y="657"/>
    </contour>
    <contour>
      <point x="362" y="257" type="curve" smooth="yes"/>
      <point x="362" y="141"/>
      <point x="311" y="38"/>
      <point x="254" y="38" type="curve" smooth="yes"/>
      <point x="208" y="38"/>
      <point x="166" y="97"/>
      <point x="166" y="190" type="curve" smooth="yes"/>
      <point x="166" y="235"/>
      <point x="168" y="262"/>
      <point x="219" y="323" type="curve" smooth="yes"/>
      <point x="243" y="351"/>
      <point x="281" y="389"/>
      <point x="305" y="389" type="curve" smooth="yes"/>
      <point x="333" y="389"/>
      <point x="362" y="331"/>
    </contour>
  </outline>
</glyph>
<glyph name="seven" format="2">
  <advance width="409"/>
  <unicode hex="0037"/>
  <outline>
    <contour>
      <point x="420" y="428" type="curve"/>
      <point x="420" y="437" type="line" smooth="yes"/>
      <point x="420" y="444"/>
      <point x="405" y="445"/>
      <point x="394" y="444" type="curve" smooth="yes"/>
      <point x="370" y="442"/>
      <point x="359" y="441"/>
      <point x="340" y="441" type="curve" smooth="yes"/>
      <point x="280" y="441"/>
      <point x="241" y="448"/>
      <point x="145" y="443" type="curve" smooth="yes"/>
      <point x="123" y="442"/>
      <point x="122" y="441"/>
      <point x="117" y="421" type="curve" smooth="yes"/>
      <point x="83" y="284" type="line"/>
      <point x="82" y="277"/>
      <point x="80" y="276"/>
      <point x="89" y="273" type="curve"/>
      <point x="94" y="272"/>
      <point x="101" y="273"/>
      <point x="102" y="277" type="curve"/>
      <point x="122" y="336" type="line" smooth="yes"/>
      <point x="130" y="360"/>
      <point x="132" y="370"/>
      <point x="158" y="373" type="curve" smooth="yes"/>
      <point x="219" y="379"/>
      <point x="271" y="371"/>
      <point x="333" y="373" type="curve" smooth="yes"/>
      <point x="339" y="373"/>
      <point x="359" y="374"/>
      <point x="352" y="363" type="curve" smooth="yes"/>
      <point x="59" y="-130" type="line" smooth="yes"/>
      <point x="54" y="-138"/>
      <point x="38" y="-169"/>
      <point x="62" y="-169" type="curve" smooth="yes"/>
      <point x="84" y="-169" type="line" smooth="yes"/>
      <point x="95" y="-169"/>
      <point x="99" y="-166"/>
      <point x="121" y="-126" type="curve" smooth="yes"/>
      <point x="396" y="379" type="line" smooth="yes"/>
      <point x="405" y="395"/>
      <point x="414" y="411"/>
    </contour>
  </outline>
</glyph>
<glyph name="eight" format="2">
  <advance width="463"/>
  <unicode hex="0038"/>
  <outline>
    <contour>
      <point x="450" y="508" type="curve" smooth="yes"/>
      <point x="450" y="544"/>
      <point x="406" y="614"/>
      <point x="344" y="614" type="curve" smooth="yes"/>
      <point x="309" y="614"/>
      <point x="243" y="573"/>
      <point x="232" y="565" type="curve" smooth="yes"/>
      <point x="161" y="513"/>
      <point x="155" y="477"/>
      <point x="155" y="452" type="curve" smooth="yes"/>
      <point x="155" y="410"/>
      <point x="190" y="367"/>
      <point x="214" y="341" type="curve" smooth="yes"/>
      <point x="219" y="336"/>
      <point x="214" y="330"/>
      <point x="211" y="328" type="curve" smooth="yes"/>
      <point x="160" y="297"/>
      <point x="57" y="228"/>
      <point x="57" y="145" type="curve" smooth="yes"/>
      <point x="57" y="114"/>
      <point x="73" y="76"/>
      <point x="94" y="47" type="curve" smooth="yes"/>
      <point x="136" y="-11"/>
      <point x="165" y="-12"/>
      <point x="181" y="-12" type="curve" smooth="yes"/>
      <point x="247" y="-12"/>
      <point x="390" y="76"/>
      <point x="390" y="199" type="curve" smooth="yes"/>
      <point x="390" y="271"/>
      <point x="348" y="316"/>
      <point x="315" y="347" type="curve" smooth="yes"/>
      <point x="312" y="350"/>
      <point x="309" y="353"/>
      <point x="315" y="357" type="curve" smooth="yes"/>
      <point x="427" y="425"/>
      <point x="450" y="477"/>
    </contour>
    <contour>
      <point x="386" y="486" type="curve" smooth="yes"/>
      <point x="386" y="434"/>
      <point x="332" y="396"/>
      <point x="291" y="368" type="curve"/>
      <point x="259" y="398"/>
      <point x="217" y="440"/>
      <point x="217" y="486" type="curve" smooth="yes"/>
      <point x="217" y="546"/>
      <point x="281" y="576"/>
      <point x="300" y="576" type="curve" smooth="yes"/>
      <point x="324" y="576"/>
      <point x="386" y="533"/>
    </contour>
    <contour>
      <point x="334" y="161" type="curve" smooth="yes"/>
      <point x="334" y="67"/>
      <point x="238" y="22"/>
      <point x="218" y="22" type="curve" smooth="yes"/>
      <point x="180" y="22"/>
      <point x="122" y="117"/>
      <point x="122" y="172" type="curve" smooth="yes"/>
      <point x="122" y="239"/>
      <point x="192" y="288"/>
      <point x="237" y="317" type="curve"/>
      <point x="272" y="290"/>
      <point x="334" y="239"/>
    </contour>
  </outline>
</glyph>
<glyph name="nine" format="2">
  <advance width="494"/>
  <unicode hex="0039"/>
  <outline>
    <contour>
      <point x="440" y="230" type="curve" smooth="yes"/>
      <point x="440" y="339"/>
      <point x="387" y="455"/>
      <point x="303" y="455" type="curve" smooth="yes"/>
      <point x="233" y="455"/>
      <point x="87" y="325"/>
      <point x="87" y="141" type="curve" smooth="yes"/>
      <point x="87" y="55"/>
      <point x="127" y="2"/>
      <point x="177" y="2" type="curve" smooth="yes"/>
      <point x="247" y="2"/>
      <point x="315" y="83"/>
      <point x="330" y="102" type="curve" smooth="yes"/>
      <point x="341" y="116"/>
      <point x="332" y="91"/>
      <point x="331" y="87" type="curve"/>
      <point x="278" y="-49"/>
      <point x="202" y="-133"/>
      <point x="44" y="-189" type="curve"/>
      <point x="41" y="-191"/>
      <point x="37" y="-195"/>
      <point x="37" y="-200" type="curve"/>
      <point x="38" y="-206"/>
      <point x="43" y="-214"/>
      <point x="52" y="-212" type="curve" smooth="yes"/>
      <point x="78" y="-205"/>
      <point x="116" y="-196"/>
      <point x="160" y="-176" type="curve" smooth="yes"/>
      <point x="203" y="-157"/>
      <point x="252" y="-128"/>
      <point x="299" y="-82" type="curve" smooth="yes"/>
      <point x="390" y="7"/>
      <point x="440" y="130"/>
    </contour>
    <contour>
      <point x="358" y="256" type="curve" smooth="yes"/>
      <point x="358" y="117"/>
      <point x="249" y="57"/>
      <point x="219" y="57" type="curve" smooth="yes"/>
      <point x="183" y="57"/>
      <point x="160" y="121"/>
      <point x="160" y="188" type="curve" smooth="yes"/>
      <point x="160" y="323"/>
      <point x="216" y="406"/>
      <point x="271" y="406" type="curve" smooth="yes"/>
      <point x="312" y="406"/>
      <point x="358" y="350"/>
    </contour>
  </outline>
</glyph>
<glyph name="colon" format="2">
  <advance width="297"/>
  <unicode hex="003A"/>
  <outline>
    <contour>
      <point x="270" y="375" type="curve" smooth="yes"/>
      <point x="270" y="404"/>
      <point x="253" y="425"/>
      <point x="229" y="425" type="curve" smooth="yes"/>
      <point x="198" y="425"/>
      <point x="182" y="402"/>
      <point x="177" y="371" type="curve"/>
      <point x="176" y="342"/>
      <point x="191" y="314"/>
      <point x="220" y="314" type="curve" smooth="yes"/>
      <point x="248" y="314"/>
      <point x="270" y="340"/>
    </contour>
    <contour>
      <point x="206" y="48" type="curve" smooth="yes"/>
      <point x="206" y="77"/>
      <point x="190" y="97"/>
      <point x="165" y="97" type="curve" smooth="yes"/>
      <point x="138" y="97"/>
      <point x="116" y="75"/>
      <point x="113" y="43" type="curve" smooth="yes"/>
      <point x="111" y="16"/>
      <point x="124" y="-14"/>
      <point x="156" y="-14" type="curve" smooth="yes"/>
      <point x="185" y="-14"/>
      <point x="206" y="13"/>
    </contour>
  </outline>
</glyph>
<glyph name="semicolon" format="2">
  <advance width="297"/>
  <unicode hex="003B"/>
  <outline>
    <contour>
      <point x="266" y="373" type="curve" smooth="yes"/>
      <point x="266" y="402"/>
      <point x="248" y="425"/>
      <point x="224" y="425" type="curve" smooth="yes"/>
      <point x="191" y="425"/>
      <point x="172" y="394"/>
      <point x="172" y="366" type="curve" smooth="yes"/>
      <point x="172" y="337"/>
      <point x="190" y="314"/>
      <point x="214" y="314" type="curve" smooth="yes"/>
      <point x="243" y="314"/>
      <point x="266" y="338"/>
    </contour>
    <contour>
      <point x="207" y="23" type="curve" smooth="yes"/>
      <point x="207" y="65"/>
      <point x="186" y="97"/>
      <point x="156" y="97" type="curve" smooth="yes"/>
      <point x="130" y="97"/>
      <point x="111" y="75"/>
      <point x="111" y="47" type="curve" smooth="yes"/>
      <point x="111" y="33"/>
      <point x="115" y="19"/>
      <point x="127" y="-2" type="curve" smooth="yes"/>
      <point x="139" y="-24"/>
      <point x="142" y="-31"/>
      <point x="142" y="-46" type="curve" smooth="yes"/>
      <point x="142" y="-81"/>
      <point x="121" y="-114"/>
      <point x="62" y="-152" type="curve"/>
      <point x="56" y="-157"/>
      <point x="46" y="-164"/>
      <point x="52" y="-176" type="curve"/>
      <point x="55" y="-180"/>
      <point x="60" y="-181"/>
      <point x="66" y="-178" type="curve"/>
      <point x="163" y="-120"/>
      <point x="207" y="-55"/>
    </contour>
  </outline>
</glyph>
<glyph name="less" format="2">
  <advance width="679"/>
  <unicode hex="003C"/>
  <outline>
    <contour>
      <point x="609" y="76" type="line"/>
      <point x="609" y="140" type="line"/>
      <point x="149" y="334" type="line"/>
      <point x="609" y="528" type="line"/>
      <point x="609" y="592" type="line"/>
      <point x="70" y="360" type="line"/>
      <point x="70" y="309" type="line"/>
    </contour>
  </outline>
</glyph>
<glyph name="equal" format="2">
  <advance width="679"/>
  <unicode hex="003D"/>
  <outline>
    <contour>
      <point x="609" y="424" type="line"/>
      <point x="609" y="483" type="line"/>
      <point x="70" y="483" type="line"/>
      <point x="70" y="424" type="line"/>
    </contour>
    <contour>
      <point x="609" y="188" type="line"/>
      <point x="609" y="247" type="line"/>
      <point x="70" y="247" type="line"/>
      <point x="70" y="188" type="line"/>
    </contour>
  </outline>
</glyph>
<glyph name="greater" format="2">
  <advance width="679"/>
  <unicode hex="003E"/>
  <outline>
    <contour>
      <point x="609" y="308" type="line"/>
      <point x="609" y="359" type="line"/>
      <point x="70" y="592" type="line"/>
      <point x="70" y="527" type="line"/>
      <point x="531" y="333" type="line"/>
      <point x="70" y="140" type="line"/>
      <point x="70" y="76" type="line"/>
    </contour>
  </outline>
</glyph>
<glyph name="question" format="2">
  <advance width="403"/>
  <unicode hex="003F"/>
  <outline>
    <contour>
      <point x="396" y="501" type="curve" smooth="yes"/>
      <point x="396" y="597"/>
      <point x="337" y="662"/>
      <point x="252" y="662" type="curve" smooth="yes"/>
      <point x="200" y="662"/>
      <point x="158" y="640"/>
      <point x="158" y="607" type="curve" smooth="yes"/>
      <point x="158" y="585"/>
      <point x="170" y="567"/>
      <point x="186" y="567" type="curve" smooth="yes"/>
      <point x="213" y="567"/>
      <point x="240" y="583"/>
      <point x="270" y="583" type="curve" smooth="yes"/>
      <point x="321" y="583"/>
      <point x="358" y="548"/>
      <point x="358" y="503" type="curve" smooth="yes"/>
      <point x="358" y="458"/>
      <point x="331" y="434"/>
      <point x="297" y="413" type="curve" smooth="yes"/>
      <point x="266" y="394"/>
      <point x="225" y="376"/>
      <point x="203" y="346" type="curve" smooth="yes"/>
      <point x="178" y="313"/>
      <point x="158" y="249"/>
      <point x="153" y="169" type="curve" smooth="yes"/>
      <point x="152" y="155"/>
      <point x="174" y="160"/>
      <point x="176" y="169" type="curve" smooth="yes"/>
      <point x="185" y="208"/>
      <point x="190" y="219"/>
      <point x="204" y="245" type="curve" smooth="yes"/>
      <point x="220" y="276"/>
      <point x="243" y="291"/>
      <point x="268" y="304" type="curve" smooth="yes"/>
      <point x="294" y="318"/>
      <point x="321" y="330"/>
      <point x="343" y="351" type="curve" smooth="yes"/>
      <point x="376" y="383"/>
      <point x="396" y="439"/>
    </contour>
    <contour>
      <point x="185" y="48" type="curve" smooth="yes"/>
      <point x="185" y="77"/>
      <point x="168" y="97"/>
      <point x="143" y="97" type="curve" smooth="yes"/>
      <point x="118" y="97"/>
      <point x="97" y="74"/>
      <point x="94" y="42" type="curve"/>
      <point x="94" y="15"/>
      <point x="101" y="-14"/>
      <point x="134" y="-14" type="curve" smooth="yes"/>
      <point x="164" y="-14"/>
      <point x="185" y="13"/>
    </contour>
  </outline>
</glyph>
<glyph name="at" format="2">
  <advance width="933"/>
  <unicode hex="0040"/>
  <outline>
    <contour>
      <point x="968" y="84" type="curve"/>
      <point x="963" y="89"/>
      <point x="959" y="96"/>
      <point x="951" y="97" type="curve"/>
      <point x="945" y="97"/>
      <point x="939" y="93"/>
      <point x="935" y="89" type="curve"/>
      <point x="859" y="-91"/>
      <point x="717" y="-178"/>
      <point x="537" y="-178" type="curve" smooth="yes"/>
      <point x="311" y="-178"/>
      <point x="151" y="-24"/>
      <point x="151" y="212" type="curve" smooth="yes"/>
      <point x="151" y="480"/>
      <point x="338" y="681"/>
      <point x="576" y="681" type="curve" smooth="yes"/>
      <point x="762" y="681"/>
      <point x="894" y="563"/>
      <point x="894" y="382" type="curve" smooth="yes"/>
      <point x="894" y="289"/>
      <point x="862" y="193"/>
      <point x="808" y="127" type="curve" smooth="yes"/>
      <point x="774" y="85"/>
      <point x="723" y="54"/>
      <point x="687" y="54" type="curve" smooth="yes"/>
      <point x="600" y="54"/>
      <point x="741" y="434"/>
      <point x="747" y="456" type="curve"/>
      <point x="750" y="477"/>
      <point x="745" y="483"/>
      <point x="734" y="484" type="curve"/>
      <point x="693" y="476" type="line"/>
      <point x="684" y="473"/>
      <point x="672" y="464"/>
      <point x="666" y="447" type="curve"/>
      <point x="661" y="442"/>
      <point x="659" y="427"/>
      <point x="651" y="443" type="curve" smooth="yes"/>
      <point x="635" y="476"/>
      <point x="609" y="490"/>
      <point x="574" y="490" type="curve" smooth="yes"/>
      <point x="529" y="490"/>
      <point x="475" y="460"/>
      <point x="424" y="408" type="curve" smooth="yes"/>
      <point x="349" y="330"/>
      <point x="298" y="220"/>
      <point x="298" y="134" type="curve" smooth="yes"/>
      <point x="298" y="66"/>
      <point x="337" y="14"/>
      <point x="390" y="14" type="curve" smooth="yes"/>
      <point x="425" y="14"/>
      <point x="467" y="34"/>
      <point x="506" y="69" type="curve" smooth="yes"/>
      <point x="530" y="91"/>
      <point x="541" y="103"/>
      <point x="567" y="136" type="curve" smooth="yes"/>
      <point x="580" y="152"/>
      <point x="580" y="140"/>
      <point x="579" y="134" type="curve" smooth="yes"/>
      <point x="576" y="112"/>
      <point x="575" y="101"/>
      <point x="575" y="86" type="curve" smooth="yes"/>
      <point x="575" y="38"/>
      <point x="601" y="14"/>
      <point x="653" y="14" type="curve" smooth="yes"/>
      <point x="805" y="14"/>
      <point x="928" y="176"/>
      <point x="928" y="373" type="curve" smooth="yes"/>
      <point x="928" y="581"/>
      <point x="784" y="712"/>
      <point x="572" y="712" type="curve" smooth="yes"/>
      <point x="307" y="712"/>
      <point x="100" y="504"/>
      <point x="100" y="225" type="curve" smooth="yes"/>
      <point x="100" y="-34"/>
      <point x="285" y="-213"/>
      <point x="535" y="-213" type="curve" smooth="yes"/>
      <point x="735" y="-213"/>
      <point x="905" y="-109"/>
    </contour>
    <contour>
      <point x="639" y="390" type="curve" smooth="yes"/>
      <point x="639" y="362"/>
      <point x="632" y="325"/>
      <point x="617" y="277" type="curve" smooth="yes"/>
      <point x="602" y="231"/>
      <point x="592" y="211"/>
      <point x="566" y="176" type="curve" smooth="yes"/>
      <point x="517" y="110"/>
      <point x="475" y="79"/>
      <point x="436" y="79" type="curve" smooth="yes"/>
      <point x="406" y="79"/>
      <point x="381" y="110"/>
      <point x="381" y="149" type="curve" smooth="yes"/>
      <point x="381" y="218"/>
      <point x="435" y="341"/>
      <point x="498" y="415" type="curve" smooth="yes"/>
      <point x="523" y="445"/>
      <point x="553" y="462"/>
      <point x="579" y="462" type="curve" smooth="yes"/>
      <point x="614" y="462"/>
      <point x="639" y="433"/>
    </contour>
  </outline>
</glyph>
<glyph name="B" format="2">
  <advance width="646"/>
  <unicode hex="0042"/>
  <outline>
    <contour>
      <point x="635" y="507" type="curve" smooth="yes"/>
      <point x="635" y="596"/>
      <point x="559" y="646"/>
      <point x="431" y="646" type="curve" smooth="yes"/>
      <point x="149" y="646" type="line" smooth="yes"/>
      <point x="144" y="646"/>
      <point x="139" y="641"/>
      <point x="138" y="634" type="curve" smooth="yes"/>
      <point x="137" y="625"/>
      <point x="141" y="621"/>
      <point x="146" y="621" type="curve"/>
      <point x="153" y="620"/>
      <point x="160" y="622"/>
      <point x="169" y="621" type="curve"/>
      <point x="243" y="622"/>
      <point x="229" y="568"/>
      <point x="219" y="520" type="curve" smooth="yes"/>
      <point x="135" y="125" type="line" smooth="yes"/>
      <point x="120" y="56"/>
      <point x="105" y="33"/>
      <point x="62" y="27" type="curve" smooth="yes"/>
      <point x="52" y="26"/>
      <point x="41" y="26"/>
      <point x="31" y="26" type="curve" smooth="yes"/>
      <point x="15" y="26"/>
      <point x="11" y="-3"/>
      <point x="29" y="-3" type="curve" smooth="yes"/>
      <point x="116" y="-2"/>
      <point x="240" y="-2"/>
      <point x="342" y="-3" type="curve" smooth="yes"/>
      <point x="513" y="-4"/>
      <point x="617" y="71"/>
      <point x="617" y="192" type="curve" smooth="yes"/>
      <point x="617" y="265"/>
      <point x="569" y="326"/>
      <point x="490" y="354" type="curve"/>
      <point x="486" y="355"/>
      <point x="484" y="362"/>
      <point x="490" y="363" type="curve" smooth="yes"/>
      <point x="580" y="381"/>
      <point x="635" y="436"/>
    </contour>
    <contour>
      <point x="542" y="515" type="curve" smooth="yes"/>
      <point x="542" y="466"/>
      <point x="520" y="431"/>
      <point x="478" y="407" type="curve" smooth="yes"/>
      <point x="446" y="389"/>
      <point x="414" y="382"/>
      <point x="344" y="382" type="curve" smooth="yes"/>
      <point x="297" y="382" type="line" smooth="yes"/>
      <point x="289" y="382"/>
      <point x="281" y="388"/>
      <point x="283" y="396" type="curve" smooth="yes"/>
      <point x="326" y="607" type="line"/>
      <point x="329" y="613"/>
      <point x="336" y="618"/>
      <point x="344" y="618" type="curve" smooth="yes"/>
      <point x="391" y="618" type="line" smooth="yes"/>
      <point x="438" y="618"/>
      <point x="468" y="614"/>
      <point x="490" y="605" type="curve" smooth="yes"/>
      <point x="523" y="591"/>
      <point x="542" y="559"/>
    </contour>
    <contour>
      <point x="520" y="204" type="curve" smooth="yes"/>
      <point x="520" y="143"/>
      <point x="493" y="90"/>
      <point x="449" y="59" type="curve" smooth="yes"/>
      <point x="415" y="36"/>
      <point x="384" y="29"/>
      <point x="323" y="29" type="curve" smooth="yes"/>
      <point x="238" y="29"/>
      <point x="223" y="49"/>
      <point x="223" y="101" type="curve" smooth="yes"/>
      <point x="223" y="110"/>
      <point x="225" y="123"/>
      <point x="228" y="139" type="curve" smooth="yes"/>
      <point x="271" y="342" type="line"/>
      <point x="271" y="347"/>
      <point x="281" y="351"/>
      <point x="285" y="351" type="curve" smooth="yes"/>
      <point x="338" y="351" type="line" smooth="yes"/>
      <point x="452" y="351"/>
      <point x="520" y="294"/>
    </contour>
  </outline>
</glyph>
<glyph name="C" format="2">
  <advance width="712"/>
  <unicode hex="0043"/>
  <outline>
    <contour>
      <point x="727" y="590" type="curve" smooth="yes"/>
      <point x="731" y="607"/>
      <point x="726" y="615"/>
      <point x="719" y="619" type="curve"/>
      <point x="650" y="649"/>
      <point x="577" y="663"/>
      <point x="501" y="663" type="curve" smooth="yes"/>
      <point x="237" y="663"/>
      <point x="29" y="494"/>
      <point x="29" y="277" type="curve" smooth="yes"/>
      <point x="29" y="92"/>
      <point x="174" y="-18"/>
      <point x="348" y="-18" type="curve" smooth="yes"/>
      <point x="387" y="-18"/>
      <point x="426" y="-13"/>
      <point x="480" y="-2" type="curve" smooth="yes"/>
      <point x="525" y="7"/>
      <point x="529" y="7"/>
      <point x="541" y="7" type="curve" smooth="yes"/>
      <point x="555" y="7"/>
      <point x="558" y="6"/>
      <point x="571" y="2" type="curve"/>
      <point x="578" y="-3"/>
      <point x="589" y="-3"/>
      <point x="590" y="2" type="curve"/>
      <point x="600" y="39"/>
      <point x="625" y="116"/>
      <point x="642" y="159" type="curve" smooth="yes"/>
      <point x="647" y="171"/>
      <point x="624" y="176"/>
      <point x="619" y="167" type="curve"/>
      <point x="550" y="68"/>
      <point x="462" y="15"/>
      <point x="353" y="15" type="curve" smooth="yes"/>
      <point x="209" y="15"/>
      <point x="126" y="115"/>
      <point x="126" y="271" type="curve" smooth="yes"/>
      <point x="126" y="473"/>
      <point x="292" y="630"/>
      <point x="494" y="630" type="curve" smooth="yes"/>
      <point x="612" y="630"/>
      <point x="667" y="582"/>
      <point x="667" y="489" type="curve" smooth="yes"/>
      <point x="667" y="478"/>
      <point x="667" y="477"/>
      <point x="665" y="464" type="curve" smooth="yes"/>
      <point x="663" y="454"/>
      <point x="683" y="444"/>
      <point x="688" y="460" type="curve" smooth="yes"/>
      <point x="701" y="503"/>
      <point x="718" y="555"/>
    </contour>
  </outline>
</glyph>
<glyph name="D" format="2">
  <advance width="793"/>
  <unicode hex="0044"/>
  <outline>
    <contour>
      <point x="780" y="358" type="curve" smooth="yes"/>
      <point x="780" y="532"/>
      <point x="638" y="646"/>
      <point x="424" y="646" type="curve" smooth="yes"/>
      <point x="127" y="646" type="line" smooth="yes"/>
      <point x="111" y="646"/>
      <point x="104" y="617"/>
      <point x="120" y="617" type="curve" smooth="yes"/>
      <point x="198" y="616"/>
      <point x="230" y="619"/>
      <point x="211" y="531" type="curve" smooth="yes"/>
      <point x="125" y="125" type="line" smooth="yes"/>
      <point x="108" y="47"/>
      <point x="98" y="34"/>
      <point x="50" y="32" type="curve" smooth="yes"/>
      <point x="38" y="31"/>
      <point x="28" y="30"/>
      <point x="17" y="29" type="curve"/>
      <point x="-2" y="26"/>
      <point x="-5" y="-3"/>
      <point x="13" y="-3" type="curve" smooth="yes"/>
      <point x="126" y="-2"/>
      <point x="263" y="-3"/>
      <point x="362" y="-3" type="curve" smooth="yes"/>
      <point x="597" y="-4"/>
      <point x="780" y="155"/>
    </contour>
    <contour>
      <point x="679" y="363" type="curve" smooth="yes"/>
      <point x="679" y="220"/>
      <point x="584" y="92"/>
      <point x="451" y="50" type="curve" smooth="yes"/>
      <point x="414" y="38"/>
      <point x="356" y="31"/>
      <point x="301" y="31" type="curve" smooth="yes"/>
      <point x="221" y="31"/>
      <point x="196" y="38"/>
      <point x="212" y="113" type="curve" smooth="yes"/>
      <point x="315" y="600" type="line"/>
      <point x="321" y="616"/>
      <point x="336" y="614"/>
      <point x="349" y="615" type="curve" smooth="yes"/>
      <point x="523" y="622"/>
      <point x="679" y="554"/>
    </contour>
  </outline>
</glyph>
<glyph name="E" format="2">
  <advance width="662"/>
  <unicode hex="0045"/>
  <outline>
    <contour>
      <point x="670" y="623" type="curve" smooth="yes"/>
      <point x="673" y="643"/>
      <point x="665" y="646"/>
      <point x="648" y="646" type="curve" smooth="yes"/>
      <point x="137" y="646" type="line" smooth="yes"/>
      <point x="129" y="646"/>
      <point x="120" y="642"/>
      <point x="118" y="633" type="curve"/>
      <point x="117" y="626"/>
      <point x="119" y="620"/>
      <point x="127" y="619" type="curve"/>
      <point x="153" y="619" type="line" smooth="yes"/>
      <point x="195" y="619"/>
      <point x="219" y="605"/>
      <point x="219" y="575" type="curve" smooth="yes"/>
      <point x="219" y="567"/>
      <point x="218" y="555"/>
      <point x="213" y="532" type="curve" smooth="yes"/>
      <point x="125" y="113" type="line" smooth="yes"/>
      <point x="112" y="50"/>
      <point x="98" y="33"/>
      <point x="50" y="29" type="curve" smooth="yes"/>
      <point x="42" y="28"/>
      <point x="28" y="30"/>
      <point x="17" y="29" type="curve"/>
      <point x="10" y="29"/>
      <point x="4" y="22"/>
      <point x="2" y="13" type="curve"/>
      <point x="1" y="6"/>
      <point x="6" y="-2"/>
      <point x="13" y="-2" type="curve" smooth="yes"/>
      <point x="170" y="1"/>
      <point x="398" y="0"/>
      <point x="535" y="-2" type="curve" smooth="yes"/>
      <point x="563" y="-2"/>
      <point x="567" y="-1"/>
      <point x="575" y="7" type="curve"/>
      <point x="582" y="16"/>
      <point x="606" y="106"/>
      <point x="620" y="140" type="curve"/>
      <point x="621" y="148"/>
      <point x="606" y="151"/>
      <point x="599" y="141" type="curve" smooth="yes"/>
      <point x="571" y="104"/>
      <point x="559" y="95"/>
      <point x="527" y="72" type="curve" smooth="yes"/>
      <point x="488" y="44"/>
      <point x="447" y="31"/>
      <point x="379" y="31" type="curve" smooth="yes"/>
      <point x="309" y="31" type="line" smooth="yes"/>
      <point x="257" y="31"/>
      <point x="196" y="29"/>
      <point x="211" y="97" type="curve" smooth="yes"/>
      <point x="254" y="297" type="line" smooth="yes"/>
      <point x="256" y="308"/>
      <point x="265" y="311"/>
      <point x="277" y="311" type="curve" smooth="yes"/>
      <point x="414" y="311" type="line" smooth="yes"/>
      <point x="498" y="311"/>
      <point x="521" y="296"/>
      <point x="521" y="244" type="curve" smooth="yes"/>
      <point x="521" y="209"/>
      <point x="543" y="222"/>
      <point x="544" y="228" type="curve" smooth="yes"/>
      <point x="552" y="274"/>
      <point x="570" y="365"/>
      <point x="581" y="409" type="curve"/>
      <point x="586" y="420"/>
      <point x="562" y="420"/>
      <point x="560" y="413" type="curve"/>
      <point x="535" y="360"/>
      <point x="510" y="345"/>
      <point x="450" y="345" type="curve" smooth="yes"/>
      <point x="286" y="345" type="line" smooth="yes"/>
      <point x="273" y="345"/>
      <point x="264" y="348"/>
      <point x="266" y="358" type="curve" smooth="yes"/>
      <point x="317" y="601" type="line" smooth="yes"/>
      <point x="320" y="614"/>
      <point x="330" y="615"/>
      <point x="342" y="615" type="curve" smooth="yes"/>
      <point x="510" y="615" type="line" smooth="yes"/>
      <point x="592" y="615"/>
      <point x="624" y="588"/>
      <point x="624" y="521" type="curve" smooth="yes"/>
      <point x="624" y="509"/>
      <point x="617" y="498"/>
      <point x="634" y="497" type="curve"/>
      <point x="641" y="497"/>
      <point x="645" y="499"/>
      <point x="644" y="503" type="curve"/>
      <point x="650" y="527"/>
      <point x="663" y="585"/>
    </contour>
  </outline>
</glyph>
<glyph name="F" format="2">
  <advance width="549"/>
  <unicode hex="0046"/>
  <outline>
    <contour>
      <point x="610" y="626" type="line" smooth="yes"/>
      <point x="614" y="645"/>
      <point x="594" y="646"/>
      <point x="582" y="646" type="curve" smooth="yes"/>
      <point x="444" y="645"/>
      <point x="256" y="645"/>
      <point x="143" y="646" type="curve"/>
      <point x="124" y="648"/>
      <point x="120" y="617"/>
      <point x="133" y="617" type="curve" smooth="yes"/>
      <point x="150" y="617" type="line" smooth="yes"/>
      <point x="191" y="617"/>
      <point x="215" y="601"/>
      <point x="215" y="573" type="curve" smooth="yes"/>
      <point x="215" y="564"/>
      <point x="214" y="555"/>
      <point x="209" y="532" type="curve" smooth="yes"/>
      <point x="120" y="113" type="line" smooth="yes"/>
      <point x="105" y="41"/>
      <point x="85" y="25"/>
      <point x="32" y="25" type="curve" smooth="yes"/>
      <point x="21" y="25" type="line"/>
      <point x="8" y="27"/>
      <point x="2" y="-2"/>
      <point x="17" y="-2" type="curve" smooth="yes"/>
      <point x="93" y="-1"/>
      <point x="220" y="-1"/>
      <point x="289" y="-2" type="curve"/>
      <point x="299" y="-1"/>
      <point x="302" y="6"/>
      <point x="303" y="12" type="curve"/>
      <point x="304" y="29"/>
      <point x="286" y="30"/>
      <point x="274" y="27" type="curve"/>
      <point x="201" y="27"/>
      <point x="198" y="53"/>
      <point x="210" y="112" type="curve" smooth="yes"/>
      <point x="249" y="297" type="line" smooth="yes"/>
      <point x="251" y="307"/>
      <point x="260" y="311"/>
      <point x="264" y="311" type="curve" smooth="yes"/>
      <point x="400" y="311" type="line" smooth="yes"/>
      <point x="458" y="311"/>
      <point x="476" y="293"/>
      <point x="476" y="225" type="curve" smooth="yes"/>
      <point x="476" y="217"/>
      <point x="497" y="215"/>
      <point x="499" y="227" type="curve" smooth="yes"/>
      <point x="504" y="266"/>
      <point x="522" y="352"/>
      <point x="537" y="405" type="curve" smooth="yes"/>
      <point x="544" y="431"/>
      <point x="516" y="419"/>
      <point x="514" y="414" type="curve"/>
      <point x="487" y="363"/>
      <point x="465" y="346"/>
      <point x="414" y="345" type="curve" smooth="yes"/>
      <point x="379" y="345"/>
      <point x="296" y="344"/>
      <point x="276" y="345" type="curve" smooth="yes"/>
      <point x="264" y="345"/>
      <point x="260" y="353"/>
      <point x="262" y="363" type="curve"/>
      <point x="262" y="363"/>
      <point x="314" y="604"/>
      <point x="319" y="602" type="curve"/>
      <point x="324" y="616"/>
      <point x="339" y="616"/>
      <point x="342" y="616" type="curve" smooth="yes"/>
      <point x="464" y="616" type="line" smooth="yes"/>
      <point x="539" y="616"/>
      <point x="563" y="593"/>
      <point x="563" y="521" type="curve" smooth="yes"/>
      <point x="563" y="514"/>
      <point x="558" y="496"/>
      <point x="572" y="497" type="curve"/>
      <point x="578" y="498"/>
      <point x="584" y="500"/>
      <point x="584" y="503" type="curve"/>
    </contour>
  </outline>
</glyph>
<glyph name="G" format="2">
  <advance width="747"/>
  <unicode hex="0047"/>
  <outline>
    <contour>
      <point x="763" y="242" type="curve"/>
      <point x="704" y="240"/>
      <point x="601" y="240"/>
      <point x="526" y="242" type="curve" smooth="yes"/>
      <point x="517" y="242"/>
      <point x="507" y="218"/>
      <point x="522" y="216" type="curve" smooth="yes"/>
      <point x="531" y="215" type="line" smooth="yes"/>
      <point x="576" y="210"/>
      <point x="591" y="206"/>
      <point x="591" y="171" type="curve" smooth="yes"/>
      <point x="591" y="142"/>
      <point x="577" y="70"/>
      <point x="557" y="51" type="curve" smooth="yes"/>
      <point x="534" y="28"/>
      <point x="473" y="12"/>
      <point x="412" y="12" type="curve" smooth="yes"/>
      <point x="232" y="12"/>
      <point x="159" y="108"/>
      <point x="159" y="271" type="curve" smooth="yes"/>
      <point x="159" y="473"/>
      <point x="288" y="632"/>
      <point x="485" y="632" type="curve" smooth="yes"/>
      <point x="609" y="632"/>
      <point x="688" y="572"/>
      <point x="714" y="468" type="curve" smooth="yes"/>
      <point x="716" y="461"/>
      <point x="740" y="461"/>
      <point x="737" y="474" type="curve"/>
      <point x="733" y="595" type="line"/>
      <point x="731" y="608"/>
      <point x="726" y="615"/>
      <point x="722" y="616" type="curve"/>
      <point x="642" y="645"/>
      <point x="564" y="662"/>
      <point x="489" y="662" type="curve" smooth="yes"/>
      <point x="236" y="662"/>
      <point x="61" y="494"/>
      <point x="61" y="284" type="curve" smooth="yes"/>
      <point x="61" y="87"/>
      <point x="230" y="-18"/>
      <point x="409" y="-18" type="curve" smooth="yes"/>
      <point x="498" y="-18"/>
      <point x="607" y="-3"/>
      <point x="692" y="19" type="curve" smooth="yes"/>
      <point x="704" y="22"/>
      <point x="701" y="39"/>
      <point x="696" y="41" type="curve"/>
      <point x="649" y="43"/>
      <point x="656" y="73"/>
      <point x="665" y="108" type="curve" smooth="yes"/>
      <point x="679" y="168"/>
      <point x="672" y="206"/>
      <point x="747" y="215" type="curve"/>
      <point x="751" y="215"/>
      <point x="756" y="215"/>
      <point x="760" y="215" type="curve"/>
      <point x="768" y="216"/>
      <point x="772" y="241"/>
    </contour>
  </outline>
</glyph>
<glyph name="H" format="2">
  <advance width="773"/>
  <unicode hex="0048"/>
  <outline>
    <contour>
      <point x="842" y="632" type="curve"/>
      <point x="844" y="641"/>
      <point x="840" y="646"/>
      <point x="834" y="646" type="curve"/>
      <point x="774" y="642"/>
      <point x="640" y="643"/>
      <point x="570" y="646" type="curve" smooth="yes"/>
      <point x="563" y="646"/>
      <point x="558" y="641"/>
      <point x="558" y="634" type="curve"/>
      <point x="557" y="619"/>
      <point x="567" y="621"/>
      <point x="579" y="621" type="curve" smooth="yes"/>
      <point x="651" y="621"/>
      <point x="649" y="584"/>
      <point x="638" y="533" type="curve" smooth="yes"/>
      <point x="602" y="361" type="line"/>
      <point x="601" y="354"/>
      <point x="592" y="346"/>
      <point x="584" y="346" type="curve" smooth="yes"/>
      <point x="265" y="346" type="line" smooth="yes"/>
      <point x="257" y="346"/>
      <point x="250" y="354"/>
      <point x="254" y="363" type="curve"/>
      <point x="289" y="532" type="line" smooth="yes"/>
      <point x="304" y="605"/>
      <point x="324" y="620"/>
      <point x="387" y="620" type="curve" smooth="yes"/>
      <point x="404" y="620"/>
      <point x="411" y="616"/>
      <point x="414" y="634" type="curve" smooth="yes"/>
      <point x="415" y="640"/>
      <point x="412" y="646"/>
      <point x="400" y="646" type="curve" smooth="yes"/>
      <point x="326" y="643"/>
      <point x="186" y="643"/>
      <point x="117" y="646" type="curve" smooth="yes"/>
      <point x="110" y="646"/>
      <point x="105" y="638"/>
      <point x="105" y="631" type="curve"/>
      <point x="104" y="626"/>
      <point x="109" y="621"/>
      <point x="112" y="620" type="curve"/>
      <point x="145" y="620" type="line" smooth="yes"/>
      <point x="187" y="620"/>
      <point x="207" y="606"/>
      <point x="207" y="577" type="curve" smooth="yes"/>
      <point x="207" y="568"/>
      <point x="205" y="555"/>
      <point x="200" y="533" type="curve" smooth="yes"/>
      <point x="114" y="125" type="line" smooth="yes"/>
      <point x="97" y="45"/>
      <point x="74" y="25"/>
      <point x="15" y="25" type="curve" smooth="yes"/>
      <point x="-5" y="25" type="line" smooth="yes"/>
      <point x="-9" y="25"/>
      <point x="-14" y="19"/>
      <point x="-15" y="11" type="curve" smooth="yes"/>
      <point x="-16" y="5"/>
      <point x="-13" y="-2"/>
      <point x="-2" y="-2" type="curve" smooth="yes"/>
      <point x="72" y="1"/>
      <point x="211" y="-1"/>
      <point x="282" y="-2" type="curve"/>
      <point x="289" y="-3"/>
      <point x="295" y="0"/>
      <point x="297" y="11" type="curve"/>
      <point x="299" y="29"/>
      <point x="278" y="25"/>
      <point x="266" y="25" type="curve" smooth="yes"/>
      <point x="192" y="24"/>
      <point x="189" y="55"/>
      <point x="201" y="112" type="curve" smooth="yes"/>
      <point x="240" y="295" type="line" smooth="yes"/>
      <point x="242" y="305"/>
      <point x="248" y="308"/>
      <point x="258" y="308" type="curve" smooth="yes"/>
      <point x="572" y="308" type="line" smooth="yes"/>
      <point x="580" y="308"/>
      <point x="589" y="302"/>
      <point x="585" y="285" type="curve" smooth="yes"/>
      <point x="549" y="113" type="line" smooth="yes"/>
      <point x="536" y="52"/>
      <point x="520" y="30"/>
      <point x="474" y="25" type="curve" smooth="yes"/>
      <point x="464" y="24"/>
      <point x="453" y="26"/>
      <point x="440" y="24" type="curve" smooth="yes"/>
      <point x="432" y="23"/>
      <point x="426" y="18"/>
      <point x="425" y="10" type="curve" smooth="yes"/>
      <point x="424" y="3"/>
      <point x="427" y="-2"/>
      <point x="438" y="-2" type="curve" smooth="yes"/>
      <point x="506" y="1"/>
      <point x="644" y="1"/>
      <point x="712" y="-2" type="curve"/>
      <point x="720" y="0"/>
      <point x="728" y="1"/>
      <point x="728" y="12" type="curve" smooth="yes"/>
      <point x="728" y="30"/>
      <point x="705" y="23"/>
      <point x="693" y="24" type="curve" smooth="yes"/>
      <point x="630" y="29"/>
      <point x="628" y="62"/>
      <point x="639" y="112" type="curve" smooth="yes"/>
      <point x="725" y="519" type="line" smooth="yes"/>
      <point x="741" y="596"/>
      <point x="758" y="617"/>
      <point x="805" y="621" type="curve" smooth="yes"/>
      <point x="813" y="622"/>
      <point x="823" y="621"/>
      <point x="831" y="621" type="curve"/>
      <point x="834" y="622"/>
      <point x="840" y="627"/>
    </contour>
  </outline>
</glyph>
<glyph name="I" format="2">
  <advance width="356"/>
  <unicode hex="0049"/>
  <outline>
    <contour>
      <point x="426" y="631" type="curve"/>
      <point x="429" y="638"/>
      <point x="429" y="646"/>
      <point x="421" y="646" type="curve" smooth="yes"/>
      <point x="352" y="643"/>
      <point x="224" y="643"/>
      <point x="160" y="646" type="curve" smooth="yes"/>
      <point x="151" y="646"/>
      <point x="146" y="642"/>
      <point x="144" y="635" type="curve"/>
      <point x="138" y="618"/>
      <point x="155" y="618"/>
      <point x="166" y="619" type="curve"/>
      <point x="238" y="614"/>
      <point x="236" y="589"/>
      <point x="224" y="533" type="curve" smooth="yes"/>
      <point x="135" y="113" type="line" smooth="yes"/>
      <point x="122" y="50"/>
      <point x="108" y="24"/>
      <point x="39" y="25" type="curve" smooth="yes"/>
      <point x="34" y="25"/>
      <point x="25" y="19"/>
      <point x="23" y="13" type="curve" smooth="yes"/>
      <point x="21" y="6"/>
      <point x="23" y="-2"/>
      <point x="30" y="-2" type="curve"/>
      <point x="95" y="2"/>
      <point x="231" y="0"/>
      <point x="301" y="-2" type="curve"/>
      <point x="305" y="-1"/>
      <point x="311" y="4"/>
      <point x="313" y="9" type="curve"/>
      <point x="314" y="16"/>
      <point x="311" y="23"/>
      <point x="303" y="23" type="curve" smooth="yes"/>
      <point x="228" y="22"/>
      <point x="210" y="43"/>
      <point x="225" y="112" type="curve" smooth="yes"/>
      <point x="314" y="532" type="line" smooth="yes"/>
      <point x="329" y="605"/>
      <point x="344" y="616"/>
      <point x="408" y="620" type="curve"/>
      <point x="417" y="617"/>
      <point x="423" y="622"/>
    </contour>
  </outline>
</glyph>
<glyph name="J" format="2">
  <advance width="338"/>
  <unicode hex="004A"/>
  <outline>
    <contour>
      <point x="414" y="631" type="curve"/>
      <point x="417" y="642"/>
      <point x="413" y="646"/>
      <point x="406" y="646" type="curve" smooth="yes"/>
      <point x="341" y="643"/>
      <point x="206" y="642"/>
      <point x="136" y="646" type="curve"/>
      <point x="127" y="646"/>
      <point x="124" y="640"/>
      <point x="123" y="632" type="curve" smooth="yes"/>
      <point x="122" y="624"/>
      <point x="125" y="621"/>
      <point x="132" y="621" type="curve"/>
      <point x="144" y="620"/>
      <point x="155" y="621"/>
      <point x="166" y="620" type="curve" smooth="yes"/>
      <point x="230" y="616"/>
      <point x="219" y="577"/>
      <point x="211" y="533" type="curve" smooth="yes"/>
      <point x="92" y="-98" type="line" smooth="yes"/>
      <point x="85" y="-134"/>
      <point x="80" y="-149"/>
      <point x="73" y="-166" type="curve" smooth="yes"/>
      <point x="55" y="-206"/>
      <point x="25" y="-231"/>
      <point x="-25" y="-231" type="curve" smooth="yes"/>
      <point x="-45" y="-231"/>
      <point x="-62" y="-226"/>
      <point x="-81" y="-220" type="curve" smooth="yes"/>
      <point x="-96" y="-215"/>
      <point x="-111" y="-205"/>
      <point x="-127" y="-205" type="curve" smooth="yes"/>
      <point x="-139" y="-205"/>
      <point x="-154" y="-209"/>
      <point x="-162" y="-220" type="curve" smooth="yes"/>
      <point x="-171" y="-232"/>
      <point x="-177" y="-251"/>
      <point x="-177" y="-259" type="curve" smooth="yes"/>
      <point x="-177" y="-278"/>
      <point x="-156" y="-287"/>
      <point x="-106" y="-287" type="curve" smooth="yes"/>
      <point x="-27" y="-287"/>
      <point x="35" y="-258"/>
      <point x="95" y="-208" type="curve" smooth="yes"/>
      <point x="155" y="-159"/>
      <point x="179" y="-112"/>
      <point x="197" y="-15" type="curve" smooth="yes"/>
      <point x="301" y="532" type="line" smooth="yes"/>
      <point x="313" y="594"/>
      <point x="328" y="613"/>
      <point x="373" y="618" type="curve" smooth="yes"/>
      <point x="387" y="619"/>
      <point x="408" y="613"/>
    </contour>
  </outline>
</glyph>
<glyph name="K" format="2">
  <advance width="710"/>
  <unicode hex="004B"/>
  <outline>
    <contour>
      <point x="810" y="640" type="curve"/>
      <point x="809" y="645"/>
      <point x="804" y="645"/>
      <point x="801" y="645" type="curve" smooth="yes"/>
      <point x="723" y="643"/>
      <point x="645" y="641"/>
      <point x="567" y="645" type="curve"/>
      <point x="562" y="645"/>
      <point x="557" y="639"/>
      <point x="556" y="632" type="curve"/>
      <point x="553" y="620"/>
      <point x="558" y="620"/>
      <point x="566" y="620" type="curve" smooth="yes"/>
      <point x="598" y="620"/>
      <point x="608" y="613"/>
      <point x="608" y="596" type="curve" smooth="yes"/>
      <point x="608" y="580"/>
      <point x="589" y="567"/>
      <point x="579" y="560" type="curve" smooth="yes"/>
      <point x="476" y="491"/>
      <point x="385" y="420"/>
      <point x="283" y="348" type="curve" smooth="yes"/>
      <point x="269" y="338"/>
      <point x="266" y="346"/>
      <point x="268" y="354" type="curve" smooth="yes"/>
      <point x="305" y="531" type="line" smooth="yes"/>
      <point x="320" y="604"/>
      <point x="339" y="619"/>
      <point x="401" y="620" type="curve" smooth="yes"/>
      <point x="402" y="620"/>
      <point x="412" y="620"/>
      <point x="412" y="620" type="curve"/>
      <point x="424" y="620"/>
      <point x="431" y="645"/>
      <point x="417" y="645" type="curve" smooth="yes"/>
      <point x="347" y="642"/>
      <point x="219" y="643"/>
      <point x="162" y="645" type="curve" smooth="yes"/>
      <point x="146" y="645"/>
      <point x="145" y="619"/>
      <point x="154" y="620" type="curve"/>
      <point x="161" y="620" type="line" smooth="yes"/>
      <point x="204" y="620"/>
      <point x="222" y="605"/>
      <point x="222" y="576" type="curve" smooth="yes"/>
      <point x="222" y="567"/>
      <point x="221" y="554"/>
      <point x="216" y="532" type="curve" smooth="yes"/>
      <point x="126" y="112" type="line" smooth="yes"/>
      <point x="112" y="48"/>
      <point x="96" y="28"/>
      <point x="46" y="23" type="curve" smooth="yes"/>
      <point x="32" y="22"/>
      <point x="15" y="29"/>
      <point x="9" y="10" type="curve" smooth="yes"/>
      <point x="7" y="4"/>
      <point x="10" y="-1"/>
      <point x="20" y="-3" type="curve"/>
      <point x="86" y="-1"/>
      <point x="219" y="-1"/>
      <point x="291" y="-3" type="curve"/>
      <point x="300" y="0"/>
      <point x="301" y="2"/>
      <point x="303" y="10" type="curve"/>
      <point x="305" y="21"/>
      <point x="293" y="23"/>
      <point x="285" y="22" type="curve"/>
      <point x="200" y="22"/>
      <point x="205" y="54"/>
      <point x="217" y="111" type="curve" smooth="yes"/>
      <point x="252" y="279" type="line" smooth="yes"/>
      <point x="254" y="289"/>
      <point x="257" y="291"/>
      <point x="262" y="295" type="curve"/>
      <point x="291" y="313" type="line"/>
      <point x="535" y="8" type="line"/>
      <point x="540" y="1"/>
      <point x="546" y="-3"/>
      <point x="556" y="-3" type="curve" smooth="yes"/>
      <point x="601" y="-1"/>
      <point x="666" y="-1"/>
      <point x="705" y="-3" type="curve"/>
      <point x="715" y="-3"/>
      <point x="721" y="24"/>
      <point x="711" y="24" type="curve" smooth="yes"/>
      <point x="704" y="24" type="line" smooth="yes"/>
      <point x="656" y="24"/>
      <point x="619" y="36"/>
      <point x="578" y="88" type="curve" smooth="yes"/>
      <point x="369" y="349" type="line" smooth="yes"/>
      <point x="366" y="353"/>
      <point x="361" y="360"/>
      <point x="372" y="368" type="curve" smooth="yes"/>
      <point x="450" y="428"/>
      <point x="570" y="517"/>
      <point x="570" y="517" type="curve"/>
      <point x="651" y="578"/>
      <point x="711" y="604"/>
      <point x="753" y="612" type="curve" smooth="yes"/>
      <point x="794" y="620" type="line"/>
      <point x="799" y="622"/>
      <point x="797" y="621"/>
      <point x="802" y="622" type="curve" smooth="yes"/>
      <point x="806" y="623"/>
      <point x="811" y="633"/>
    </contour>
  </outline>
</glyph>
<glyph name="L" format="2">
  <advance width="603"/>
  <unicode hex="004C"/>
  <outline>
    <contour>
      <point x="623" y="138" type="curve"/>
      <point x="627" y="152"/>
      <point x="607" y="154"/>
      <point x="601" y="146" type="curve" smooth="yes"/>
      <point x="568" y="105"/>
      <point x="546" y="86"/>
      <point x="513" y="68" type="curve" smooth="yes"/>
      <point x="475" y="47"/>
      <point x="433" y="39"/>
      <point x="373" y="38" type="curve" smooth="yes"/>
      <point x="344" y="38"/>
      <point x="295" y="38"/>
      <point x="270" y="38" type="curve" smooth="yes"/>
      <point x="211" y="39"/>
      <point x="213" y="79"/>
      <point x="222" y="122" type="curve" smooth="yes"/>
      <point x="309" y="532" type="line" smooth="yes"/>
      <point x="324" y="605"/>
      <point x="344" y="620"/>
      <point x="406" y="620" type="curve" smooth="yes"/>
      <point x="416" y="620"/>
      <point x="427" y="618"/>
      <point x="430" y="631" type="curve" smooth="yes"/>
      <point x="431" y="636"/>
      <point x="429" y="646"/>
      <point x="422" y="646" type="curve"/>
      <point x="353" y="642"/>
      <point x="214" y="642"/>
      <point x="145" y="646" type="curve"/>
      <point x="141" y="646"/>
      <point x="138" y="640"/>
      <point x="136" y="635" type="curve"/>
      <point x="130" y="614"/>
      <point x="146" y="620"/>
      <point x="159" y="620" type="curve" smooth="yes"/>
      <point x="233" y="620"/>
      <point x="230" y="588"/>
      <point x="218" y="533" type="curve" smooth="yes"/>
      <point x="133" y="127" type="line" smooth="yes"/>
      <point x="118" y="53"/>
      <point x="98" y="30"/>
      <point x="49" y="27" type="curve"/>
      <point x="41" y="26"/>
      <point x="39" y="27"/>
      <point x="30" y="26" type="curve"/>
      <point x="24" y="25"/>
      <point x="12" y="17"/>
      <point x="16" y="2" type="curve" smooth="yes"/>
      <point x="17" y="-2"/>
      <point x="27" y="-2"/>
      <point x="32" y="-1" type="curve"/>
      <point x="163" y="2"/>
      <point x="417" y="-2"/>
      <point x="554" y="-2" type="curve" smooth="yes"/>
      <point x="571" y="-2"/>
      <point x="578" y="12"/>
      <point x="580" y="18" type="curve"/>
      <point x="594" y="53"/>
      <point x="609" y="106"/>
    </contour>
  </outline>
</glyph>
<glyph name="M" format="2">
  <advance width="883"/>
  <unicode hex="004D"/>
  <outline>
    <contour>
      <point x="956" y="641" type="curve" smooth="yes"/>
      <point x="955" y="645"/>
      <point x="951" y="646"/>
      <point x="943" y="646" type="curve" smooth="yes"/>
      <point x="902" y="644"/>
      <point x="825" y="645"/>
      <point x="789" y="646" type="curve" smooth="yes"/>
      <point x="781" y="646"/>
      <point x="774" y="645"/>
      <point x="770" y="638" type="curve"/>
      <point x="436" y="130" type="line"/>
      <point x="430" y="119"/>
      <point x="424" y="131"/>
      <point x="422" y="139" type="curve"/>
      <point x="352" y="637" type="line"/>
      <point x="352" y="644"/>
      <point x="343" y="647"/>
      <point x="333" y="646" type="curve"/>
      <point x="287" y="644"/>
      <point x="202" y="644"/>
      <point x="156" y="645" type="curve"/>
      <point x="143" y="648"/>
      <point x="139" y="626"/>
      <point x="146" y="622" type="curve"/>
      <point x="155" y="620"/>
      <point x="161" y="620"/>
      <point x="176" y="620" type="curve" smooth="yes"/>
      <point x="248" y="619"/>
      <point x="248" y="578"/>
      <point x="232" y="524" type="curve" smooth="yes"/>
      <point x="132" y="181" type="line" smooth="yes"/>
      <point x="114" y="120"/>
      <point x="98" y="79"/>
      <point x="84" y="62" type="curve" smooth="yes"/>
      <point x="67" y="41"/>
      <point x="42" y="27"/>
      <point x="5" y="22" type="curve"/>
      <point x="2" y="22"/>
      <point x="-4" y="18"/>
      <point x="-6" y="11" type="curve"/>
      <point x="-7" y="5"/>
      <point x="-5" y="-2"/>
      <point x="0" y="-2" type="curve"/>
      <point x="54" y="1"/>
      <point x="161" y="0"/>
      <point x="215" y="-2" type="curve" smooth="yes"/>
      <point x="218" y="-2"/>
      <point x="222" y="2"/>
      <point x="223" y="10" type="curve"/>
      <point x="225" y="16"/>
      <point x="225" y="22"/>
      <point x="220" y="22" type="curve"/>
      <point x="169" y="26"/>
      <point x="147" y="45"/>
      <point x="147" y="87" type="curve" smooth="yes"/>
      <point x="147" y="101"/>
      <point x="149" y="116"/>
      <point x="153" y="129" type="curve" smooth="yes"/>
      <point x="272" y="537" type="line" smooth="yes"/>
      <point x="274" y="545"/>
      <point x="281" y="554"/>
      <point x="283" y="536" type="curve" smooth="yes"/>
      <point x="357" y="2" type="line"/>
      <point x="360" y="-5"/>
      <point x="386" y="-9"/>
      <point x="402" y="1" type="curve"/>
      <point x="744" y="541" type="line" smooth="yes"/>
      <point x="752" y="554"/>
      <point x="759" y="554"/>
      <point x="755" y="537" type="curve" smooth="yes"/>
      <point x="663" y="113" type="line" smooth="yes"/>
      <point x="651" y="56"/>
      <point x="636" y="33"/>
      <point x="596" y="26" type="curve" smooth="yes"/>
      <point x="583" y="24"/>
      <point x="570" y="24"/>
      <point x="556" y="24" type="curve" smooth="yes"/>
      <point x="546" y="24"/>
      <point x="540" y="-3"/>
      <point x="553" y="-2" type="curve"/>
      <point x="607" y="-1"/>
      <point x="716" y="3"/>
      <point x="814" y="-2" type="curve"/>
      <point x="819" y="-3"/>
      <point x="826" y="3"/>
      <point x="827" y="9" type="curve"/>
      <point x="832" y="25"/>
      <point x="820" y="23"/>
      <point x="809" y="23" type="curve" smooth="yes"/>
      <point x="737" y="23"/>
      <point x="741" y="62"/>
      <point x="752" y="112" type="curve" smooth="yes"/>
      <point x="841" y="532" type="line" smooth="yes"/>
      <point x="856" y="605"/>
      <point x="877" y="621"/>
      <point x="939" y="621" type="curve" smooth="yes"/>
      <point x="946" y="621" type="line"/>
      <point x="955" y="620"/>
      <point x="957" y="636"/>
    </contour>
  </outline>
</glyph>
<glyph name="N" format="2">
  <advance width="789"/>
  <unicode hex="004E"/>
  <outline>
    <contour>
      <point x="856" y="646" type="curve" smooth="yes"/>
      <point x="787" y="644"/>
      <point x="680" y="645"/>
      <point x="633" y="646" type="curve" smooth="yes"/>
      <point x="629" y="646"/>
      <point x="624" y="642"/>
      <point x="623" y="635" type="curve"/>
      <point x="623" y="629"/>
      <point x="625" y="623"/>
      <point x="628" y="623" type="curve"/>
      <point x="711" y="617"/>
      <point x="726" y="587"/>
      <point x="711" y="515" type="curve" smooth="yes"/>
      <point x="630" y="133" type="line"/>
      <point x="627" y="124"/>
      <point x="620" y="119"/>
      <point x="611" y="133" type="curve" smooth="yes"/>
      <point x="283" y="638" type="line" smooth="yes"/>
      <point x="280" y="643"/>
      <point x="272" y="646"/>
      <point x="251" y="646" type="curve" smooth="yes"/>
      <point x="220" y="645"/>
      <point x="171" y="644"/>
      <point x="134" y="646" type="curve"/>
      <point x="131" y="646"/>
      <point x="124" y="643"/>
      <point x="123" y="635" type="curve" smooth="yes"/>
      <point x="122" y="628"/>
      <point x="122" y="623"/>
      <point x="130" y="621" type="curve"/>
      <point x="164" y="616"/>
      <point x="196" y="618"/>
      <point x="219" y="587" type="curve"/>
      <point x="128" y="136" type="line" smooth="yes"/>
      <point x="112" y="55"/>
      <point x="89" y="31"/>
      <point x="23" y="22" type="curve"/>
      <point x="11" y="23"/>
      <point x="7" y="-3"/>
      <point x="20" y="-2" type="curve" smooth="yes"/>
      <point x="77" y="1"/>
      <point x="190" y="0"/>
      <point x="247" y="-2" type="curve" smooth="yes"/>
      <point x="252" y="-2"/>
      <point x="255" y="4"/>
      <point x="256" y="11" type="curve" smooth="yes"/>
      <point x="258" y="24"/>
      <point x="254" y="25"/>
      <point x="242" y="25" type="curve"/>
      <point x="165" y="35"/>
      <point x="159" y="77"/>
      <point x="171" y="141" type="curve" smooth="yes"/>
      <point x="245" y="522" type="line" smooth="yes"/>
      <point x="247" y="532"/>
      <point x="251" y="537"/>
      <point x="260" y="526" type="curve"/>
      <point x="603" y="-11" type="line"/>
      <point x="609" y="-18"/>
      <point x="633" y="-16"/>
      <point x="634" y="-11" type="curve" smooth="yes"/>
      <point x="745" y="515" type="line" smooth="yes"/>
      <point x="760" y="586"/>
      <point x="788" y="615"/>
      <point x="851" y="624" type="curve"/>
      <point x="859" y="624"/>
      <point x="870" y="647"/>
    </contour>
  </outline>
</glyph>
<glyph name="O" format="2">
  <advance width="819"/>
  <unicode hex="004F"/>
  <outline>
    <contour>
      <point x="782" y="358" type="curve" smooth="yes"/>
      <point x="782" y="529"/>
      <point x="656" y="662"/>
      <point x="480" y="662" type="curve" smooth="yes"/>
      <point x="267" y="662"/>
      <point x="88" y="491"/>
      <point x="88" y="287" type="curve" smooth="yes"/>
      <point x="88" y="114"/>
      <point x="211" y="-18"/>
      <point x="387" y="-18" type="curve" smooth="yes"/>
      <point x="606" y="-18"/>
      <point x="782" y="150"/>
    </contour>
    <contour>
      <point x="688" y="389" type="curve" smooth="yes"/>
      <point x="688" y="176"/>
      <point x="556" y="12"/>
      <point x="387" y="13" type="curve" smooth="yes"/>
      <point x="256" y="14"/>
      <point x="182" y="109"/>
      <point x="182" y="262" type="curve" smooth="yes"/>
      <point x="182" y="369"/>
      <point x="226" y="482"/>
      <point x="295" y="555" type="curve" smooth="yes"/>
      <point x="342" y="605"/>
      <point x="406" y="631"/>
      <point x="481" y="631" type="curve" smooth="yes"/>
      <point x="609" y="632"/>
      <point x="688" y="532"/>
    </contour>
  </outline>
</glyph>
<glyph name="P" format="2">
  <advance width="564"/>
  <unicode hex="0050"/>
  <outline>
    <contour>
      <point x="589" y="467" type="curve" smooth="yes"/>
      <point x="589" y="524"/>
      <point x="565" y="572"/>
      <point x="520" y="604" type="curve" smooth="yes"/>
      <point x="474" y="637"/>
      <point x="429" y="646"/>
      <point x="332" y="646" type="curve" smooth="yes"/>
      <point x="278" y="646"/>
      <point x="171" y="645"/>
      <point x="111" y="647" type="curve" smooth="yes"/>
      <point x="103" y="647"/>
      <point x="97" y="645"/>
      <point x="95" y="633" type="curve" smooth="yes"/>
      <point x="94" y="627"/>
      <point x="94" y="621"/>
      <point x="104" y="619" type="curve"/>
      <point x="193" y="619"/>
      <point x="183" y="575"/>
      <point x="173" y="527" type="curve" smooth="yes"/>
      <point x="88" y="125" type="line" smooth="yes"/>
      <point x="71" y="45"/>
      <point x="51" y="26"/>
      <point x="-10" y="23" type="curve" smooth="yes"/>
      <point x="-13" y="23"/>
      <point x="-17" y="18"/>
      <point x="-19" y="10" type="curve"/>
      <point x="-20" y="4"/>
      <point x="-17" y="-2"/>
      <point x="-12" y="-2" type="curve"/>
      <point x="53" y="2"/>
      <point x="184" y="1"/>
      <point x="252" y="-2" type="curve" smooth="yes"/>
      <point x="256" y="-2"/>
      <point x="260" y="3"/>
      <point x="262" y="8" type="curve" smooth="yes"/>
      <point x="269" y="26"/>
      <point x="257" y="24"/>
      <point x="243" y="24" type="curve" smooth="yes"/>
      <point x="171" y="24"/>
      <point x="163" y="53"/>
      <point x="175" y="112" type="curve" smooth="yes"/>
      <point x="277" y="598" type="line" smooth="yes"/>
      <point x="280" y="611"/>
      <point x="288" y="614"/>
      <point x="297" y="614" type="curve" smooth="yes"/>
      <point x="339" y="614"/>
      <point x="381" y="617"/>
      <point x="421" y="604" type="curve" smooth="yes"/>
      <point x="466" y="589"/>
      <point x="495" y="542"/>
      <point x="495" y="481" type="curve" smooth="yes"/>
      <point x="495" y="436"/>
      <point x="481" y="392"/>
      <point x="456" y="355" type="curve" smooth="yes"/>
      <point x="415" y="294"/>
      <point x="340" y="267"/>
      <point x="266" y="276" type="curve" smooth="yes"/>
      <point x="256" y="277"/>
      <point x="249" y="260"/>
      <point x="262" y="254" type="curve"/>
      <point x="304" y="245"/>
      <point x="373" y="253"/>
      <point x="413" y="262" type="curve" smooth="yes"/>
      <point x="515" y="286"/>
      <point x="589" y="371"/>
    </contour>
  </outline>
</glyph>
<glyph name="Q" format="2">
  <advance width="798"/>
  <unicode hex="0051"/>
  <outline>
    <contour>
      <point x="784" y="-156" type="curve" smooth="yes"/>
      <point x="790" y="-151"/>
      <point x="778" y="-131"/>
      <point x="768" y="-139" type="curve"/>
      <point x="739" y="-153"/>
      <point x="714" y="-156"/>
      <point x="670" y="-145" type="curve" smooth="yes"/>
      <point x="629" y="-134"/>
      <point x="527" y="-61"/>
      <point x="494" y="-38" type="curve" smooth="yes"/>
      <point x="481" y="-29"/>
      <point x="473" y="-24"/>
      <point x="468" y="-21" type="curve"/>
      <point x="461" y="-15"/>
      <point x="469" y="-12"/>
      <point x="474" y="-11" type="curve" smooth="yes"/>
      <point x="661" y="25"/>
      <point x="778" y="182"/>
      <point x="778" y="358" type="curve" smooth="yes"/>
      <point x="778" y="531"/>
      <point x="648" y="662"/>
      <point x="458" y="662" type="curve" smooth="yes"/>
      <point x="239" y="662"/>
      <point x="62" y="488"/>
      <point x="62" y="287" type="curve" smooth="yes"/>
      <point x="62" y="147"/>
      <point x="165" y="19"/>
      <point x="305" y="-11" type="curve" smooth="yes"/>
      <point x="311" y="-12"/>
      <point x="332" y="-27"/>
      <point x="337" y="-31" type="curve"/>
      <point x="426" y="-89"/>
      <point x="553" y="-202"/>
      <point x="663" y="-202" type="curve" smooth="yes"/>
      <point x="719" y="-202"/>
      <point x="751" y="-184"/>
    </contour>
    <contour>
      <point x="679" y="388" type="curve" smooth="yes"/>
      <point x="679" y="176"/>
      <point x="565" y="11"/>
      <point x="387" y="11" type="curve" smooth="yes"/>
      <point x="248" y="11"/>
      <point x="161" y="109"/>
      <point x="161" y="261" type="curve" smooth="yes"/>
      <point x="161" y="369"/>
      <point x="206" y="482"/>
      <point x="278" y="555" type="curve" smooth="yes"/>
      <point x="329" y="606"/>
      <point x="388" y="633"/>
      <point x="467" y="633" type="curve" smooth="yes"/>
      <point x="599" y="633"/>
      <point x="679" y="532"/>
    </contour>
  </outline>
</glyph>
<glyph name="R" format="2">
  <advance width="624"/>
  <unicode hex="0052"/>
  <outline>
    <contour>
      <point x="657" y="-4" type="curve" smooth="yes"/>
      <point x="662" y="-2"/>
      <point x="666" y="15"/>
      <point x="656" y="15" type="curve" smooth="yes"/>
      <point x="625" y="15"/>
      <point x="594" y="26"/>
      <point x="569" y="46" type="curve" smooth="yes"/>
      <point x="537" y="71"/>
      <point x="513" y="96"/>
      <point x="487" y="147" type="curve" smooth="yes"/>
      <point x="470" y="181"/>
      <point x="455" y="214"/>
      <point x="440" y="248" type="curve" smooth="yes"/>
      <point x="433" y="262"/>
      <point x="426" y="275"/>
      <point x="417" y="288" type="curve" smooth="yes"/>
      <point x="413" y="294"/>
      <point x="417" y="297"/>
      <point x="422" y="298" type="curve" smooth="yes"/>
      <point x="535" y="322"/>
      <point x="607" y="392"/>
      <point x="607" y="486" type="curve" smooth="yes"/>
      <point x="607" y="583"/>
      <point x="528" y="645"/>
      <point x="411" y="646" type="curve" smooth="yes"/>
      <point x="344" y="646"/>
      <point x="215" y="644"/>
      <point x="147" y="647" type="curve" smooth="yes"/>
      <point x="141" y="647"/>
      <point x="132" y="645"/>
      <point x="130" y="633" type="curve" smooth="yes"/>
      <point x="127" y="619"/>
      <point x="142" y="619"/>
      <point x="153" y="619" type="curve" smooth="yes"/>
      <point x="221" y="619"/>
      <point x="224" y="584"/>
      <point x="213" y="533" type="curve" smooth="yes"/>
      <point x="123" y="113" type="line" smooth="yes"/>
      <point x="107" y="40"/>
      <point x="88" y="24"/>
      <point x="20" y="24" type="curve" smooth="yes"/>
      <point x="12" y="24" type="line"/>
      <point x="2" y="25"/>
      <point x="-7" y="-3"/>
      <point x="6" y="-2" type="curve" smooth="yes"/>
      <point x="59" y="1"/>
      <point x="207" y="1"/>
      <point x="285" y="-2" type="curve" smooth="yes"/>
      <point x="293" y="-2"/>
      <point x="299" y="1"/>
      <point x="300" y="5" type="curve" smooth="yes"/>
      <point x="305" y="22"/>
      <point x="299" y="23"/>
      <point x="282" y="23" type="curve" smooth="yes"/>
      <point x="207" y="23"/>
      <point x="202" y="53"/>
      <point x="214" y="112" type="curve" smooth="yes"/>
      <point x="245" y="263" type="line" smooth="yes"/>
      <point x="247" y="271"/>
      <point x="253" y="278"/>
      <point x="261" y="278" type="curve" smooth="yes"/>
      <point x="284" y="278"/>
      <point x="302" y="279"/>
      <point x="327" y="281" type="curve"/>
      <point x="341" y="253"/>
      <point x="344" y="247"/>
      <point x="366" y="195" type="curve" smooth="yes"/>
      <point x="381" y="159"/>
      <point x="392" y="120"/>
      <point x="413" y="86" type="curve" smooth="yes"/>
      <point x="467" y="2"/>
      <point x="527" y="-12"/>
      <point x="622" y="-12" type="curve" smooth="yes"/>
      <point x="635" y="-12"/>
      <point x="649" y="-7"/>
    </contour>
    <contour>
      <point x="474" y="585" type="curve" smooth="yes"/>
      <point x="550" y="524"/>
      <point x="503" y="390"/>
      <point x="428" y="346" type="curve" smooth="yes"/>
      <point x="408" y="334"/>
      <point x="387" y="322"/>
      <point x="364" y="316" type="curve" smooth="yes"/>
      <point x="340" y="309"/>
      <point x="323" y="308"/>
      <point x="272" y="308" type="curve" smooth="yes"/>
      <point x="264" y="308"/>
      <point x="256" y="314"/>
      <point x="257" y="318" type="curve" smooth="yes"/>
      <point x="316" y="597" type="line" smooth="yes"/>
      <point x="317" y="603"/>
      <point x="326" y="615"/>
      <point x="341" y="615" type="curve" smooth="yes"/>
      <point x="385" y="615"/>
      <point x="437" y="615"/>
    </contour>
  </outline>
</glyph>
<glyph name="S" format="2">
  <advance width="517"/>
  <unicode hex="0053"/>
  <outline>
    <contour>
      <point x="510" y="646" type="curve"/>
      <point x="511" y="649"/>
      <point x="506" y="651"/>
      <point x="500" y="652" type="curve" smooth="yes"/>
      <point x="494" y="653"/>
      <point x="487" y="651"/>
      <point x="485" y="647" type="curve"/>
      <point x="476" y="638"/>
      <point x="465" y="633"/>
      <point x="453" y="633" type="curve" smooth="yes"/>
      <point x="412" y="633"/>
      <point x="373" y="653"/>
      <point x="328" y="653" type="curve" smooth="yes"/>
      <point x="211" y="653"/>
      <point x="128" y="578"/>
      <point x="128" y="484" type="curve" smooth="yes"/>
      <point x="128" y="310"/>
      <point x="395" y="272"/>
      <point x="395" y="131" type="curve" smooth="yes"/>
      <point x="395" y="60"/>
      <point x="338" y="12"/>
      <point x="240" y="12" type="curve" smooth="yes"/>
      <point x="127" y="12"/>
      <point x="68" y="72"/>
      <point x="68" y="172" type="curve" smooth="yes"/>
      <point x="68" y="179"/>
      <point x="69" y="183"/>
      <point x="69" y="195" type="curve"/>
      <point x="71" y="207"/>
      <point x="50" y="209"/>
      <point x="47" y="196" type="curve" smooth="yes"/>
      <point x="15" y="69" type="line" smooth="yes"/>
      <point x="14" y="64"/>
      <point x="14" y="48"/>
      <point x="19" y="45" type="curve" smooth="yes"/>
      <point x="89" y="5"/>
      <point x="165" y="-18"/>
      <point x="236" y="-18" type="curve" smooth="yes"/>
      <point x="380" y="-18"/>
      <point x="471" y="59"/>
      <point x="471" y="168" type="curve" smooth="yes"/>
      <point x="471" y="215"/>
      <point x="446" y="263"/>
      <point x="413" y="296" type="curve" smooth="yes"/>
      <point x="348" y="361"/>
      <point x="200" y="426"/>
      <point x="200" y="523" type="curve" smooth="yes"/>
      <point x="200" y="582"/>
      <point x="246" y="623"/>
      <point x="328" y="623" type="curve" smooth="yes"/>
      <point x="420" y="623"/>
      <point x="463" y="571"/>
      <point x="463" y="476" type="curve" smooth="yes"/>
      <point x="463" y="471"/>
      <point x="470" y="470"/>
      <point x="475" y="470" type="curve" smooth="yes"/>
      <point x="480" y="470"/>
      <point x="487" y="471"/>
      <point x="487" y="476" type="curve"/>
      <point x="493" y="535"/>
      <point x="506" y="625"/>
    </contour>
  </outline>
</glyph>
<glyph name="T" format="2">
  <advance width="630"/>
  <unicode hex="0054"/>
  <outline>
    <contour>
      <point x="734" y="674" type="curve" smooth="yes"/>
      <point x="735" y="677"/>
      <point x="729" y="680"/>
      <point x="724" y="680" type="curve" smooth="yes"/>
      <point x="720" y="680"/>
      <point x="714" y="678"/>
      <point x="712" y="675" type="curve"/>
      <point x="686" y="650"/>
      <point x="672" y="646"/>
      <point x="599" y="646" type="curve" smooth="yes"/>
      <point x="200" y="646" type="line" smooth="yes"/>
      <point x="160" y="646"/>
      <point x="148" y="651"/>
      <point x="130" y="674" type="curve"/>
      <point x="129" y="679"/>
      <point x="123" y="679"/>
      <point x="120" y="679" type="curve" smooth="yes"/>
      <point x="114" y="679"/>
      <point x="109" y="677"/>
      <point x="108" y="674" type="curve"/>
      <point x="103" y="634"/>
      <point x="83" y="549"/>
      <point x="72" y="507" type="curve"/>
      <point x="70" y="503"/>
      <point x="74" y="497"/>
      <point x="80" y="495" type="curve"/>
      <point x="86" y="494"/>
      <point x="93" y="499"/>
      <point x="94" y="502" type="curve"/>
      <point x="114" y="547"/>
      <point x="125" y="569"/>
      <point x="150" y="589" type="curve" smooth="yes"/>
      <point x="174" y="608"/>
      <point x="204" y="612"/>
      <point x="254" y="612" type="curve" smooth="yes"/>
      <point x="349" y="612" type="line" smooth="yes"/>
      <point x="353" y="612"/>
      <point x="366" y="611"/>
      <point x="362" y="591" type="curve" smooth="yes"/>
      <point x="258" y="113" type="line" smooth="yes"/>
      <point x="244" y="48"/>
      <point x="231" y="30"/>
      <point x="178" y="27" type="curve" smooth="yes"/>
      <point x="168" y="26"/>
      <point x="160" y="26"/>
      <point x="146" y="26" type="curve" smooth="yes"/>
      <point x="133" y="26"/>
      <point x="125" y="-2"/>
      <point x="138" y="-2" type="curve" smooth="yes"/>
      <point x="214" y="0"/>
      <point x="361" y="0"/>
      <point x="434" y="-2" type="curve" smooth="yes"/>
      <point x="439" y="-2"/>
      <point x="445" y="5"/>
      <point x="446" y="13" type="curve" smooth="yes"/>
      <point x="447" y="19"/>
      <point x="444" y="26"/>
      <point x="439" y="26" type="curve" smooth="yes"/>
      <point x="424" y="26"/>
      <point x="409" y="26"/>
      <point x="398" y="27" type="curve" smooth="yes"/>
      <point x="346" y="31"/>
      <point x="336" y="49"/>
      <point x="349" y="112" type="curve" smooth="yes"/>
      <point x="451" y="596" type="line" smooth="yes"/>
      <point x="453" y="604"/>
      <point x="460" y="611"/>
      <point x="468" y="612" type="curve"/>
      <point x="597" y="612" type="line" smooth="yes"/>
      <point x="637" y="612"/>
      <point x="656" y="602"/>
      <point x="665" y="583" type="curve" smooth="yes"/>
      <point x="670" y="573"/>
      <point x="672" y="561"/>
      <point x="674" y="548" type="curve"/>
      <point x="675" y="535"/>
      <point x="675" y="520"/>
      <point x="675" y="504" type="curve"/>
      <point x="676" y="494"/>
      <point x="696" y="495"/>
      <point x="699" y="504" type="curve"/>
      <point x="706" y="551"/>
      <point x="723" y="638"/>
    </contour>
  </outline>
</glyph>
<glyph name="U" format="2">
  <advance width="740"/>
  <unicode hex="0055"/>
  <outline>
    <contour>
      <point x="804" y="633" type="curve"/>
      <point x="804" y="639"/>
      <point x="803" y="649"/>
      <point x="795" y="648" type="curve" smooth="yes"/>
      <point x="721" y="642"/>
      <point x="621" y="646"/>
      <point x="573" y="647" type="curve"/>
      <point x="569" y="648"/>
      <point x="565" y="643"/>
      <point x="563" y="635" type="curve"/>
      <point x="562" y="628"/>
      <point x="562" y="621"/>
      <point x="568" y="621" type="curve" smooth="yes"/>
      <point x="651" y="621"/>
      <point x="670" y="593"/>
      <point x="656" y="517" type="curve" smooth="yes"/>
      <point x="605" y="246" type="line" smooth="yes"/>
      <point x="579" y="110"/>
      <point x="518" y="12"/>
      <point x="355" y="12" type="curve" smooth="yes"/>
      <point x="235" y="12"/>
      <point x="166" y="74"/>
      <point x="166" y="167" type="curve" smooth="yes"/>
      <point x="166" y="194"/>
      <point x="170" y="228"/>
      <point x="178" y="266" type="curve" smooth="yes"/>
      <point x="235" y="532" type="line" smooth="yes"/>
      <point x="251" y="609"/>
      <point x="265" y="623"/>
      <point x="333" y="620" type="curve" smooth="yes"/>
      <point x="344" y="619"/>
      <point x="351" y="621"/>
      <point x="351" y="634" type="curve"/>
      <point x="352" y="640"/>
      <point x="347" y="647"/>
      <point x="339" y="647" type="curve" smooth="yes"/>
      <point x="268" y="644"/>
      <point x="136" y="644"/>
      <point x="73" y="647" type="curve"/>
      <point x="68" y="648"/>
      <point x="61" y="643"/>
      <point x="59" y="636" type="curve"/>
      <point x="58" y="630"/>
      <point x="63" y="621"/>
      <point x="68" y="621" type="curve" smooth="yes"/>
      <point x="85" y="621" type="line" smooth="yes"/>
      <point x="157" y="621"/>
      <point x="154" y="580"/>
      <point x="143" y="528" type="curve" smooth="yes"/>
      <point x="88" y="270" type="line" smooth="yes"/>
      <point x="74" y="202"/>
      <point x="66" y="146"/>
      <point x="107" y="83" type="curve" smooth="yes"/>
      <point x="152" y="15"/>
      <point x="220" y="-18"/>
      <point x="338" y="-18" type="curve" smooth="yes"/>
      <point x="447" y="-18"/>
      <point x="539" y="17"/>
      <point x="595" y="109" type="curve" smooth="yes"/>
      <point x="618" y="147"/>
      <point x="629" y="175"/>
      <point x="640" y="236" type="curve" smooth="yes"/>
      <point x="691" y="510" type="line" smooth="yes"/>
      <point x="708" y="602"/>
      <point x="732" y="614"/>
      <point x="790" y="621" type="curve"/>
      <point x="796" y="620"/>
      <point x="802" y="625"/>
    </contour>
  </outline>
</glyph>
<glyph name="V" format="2">
  <advance width="639"/>
  <unicode hex="0056"/>
  <outline>
    <contour>
      <point x="738" y="647" type="curve" smooth="yes"/>
      <point x="662" y="645"/>
      <point x="617" y="645"/>
      <point x="537" y="647" type="curve" smooth="yes"/>
      <point x="532" y="647"/>
      <point x="527" y="643"/>
      <point x="526" y="635" type="curve"/>
      <point x="526" y="628"/>
      <point x="529" y="622"/>
      <point x="535" y="622" type="curve"/>
      <point x="542" y="620"/>
      <point x="545" y="620"/>
      <point x="553" y="619" type="curve"/>
      <point x="575" y="618"/>
      <point x="599" y="618"/>
      <point x="599" y="587" type="curve" smooth="yes"/>
      <point x="599" y="570"/>
      <point x="591" y="554"/>
      <point x="559" y="517" type="curve" smooth="yes"/>
      <point x="211" y="107" type="line" smooth="yes"/>
      <point x="197" y="90"/>
      <point x="195" y="98"/>
      <point x="196" y="113" type="curve" smooth="yes"/>
      <point x="221" y="533" type="line" smooth="yes"/>
      <point x="224" y="582"/>
      <point x="236" y="613"/>
      <point x="272" y="619" type="curve" smooth="yes"/>
      <point x="287" y="622"/>
      <point x="305" y="619"/>
      <point x="315" y="620" type="curve"/>
      <point x="329" y="620"/>
      <point x="332" y="647"/>
      <point x="323" y="647" type="curve" smooth="yes"/>
      <point x="257" y="644"/>
      <point x="180" y="644"/>
      <point x="64" y="647" type="curve" smooth="yes"/>
      <point x="53" y="647"/>
      <point x="50" y="618"/>
      <point x="60" y="620" type="curve"/>
      <point x="65" y="620" type="line" smooth="yes"/>
      <point x="128" y="620"/>
      <point x="136" y="587"/>
      <point x="133" y="533" type="curve" smooth="yes"/>
      <point x="106" y="-5" type="line"/>
      <point x="106" y="-14"/>
      <point x="114" y="-22"/>
      <point x="123" y="-22" type="curve" smooth="yes"/>
      <point x="135" y="-22"/>
      <point x="146" y="-19"/>
      <point x="148" y="-16" type="curve"/>
      <point x="617" y="529" type="line" smooth="yes"/>
      <point x="660" y="579"/>
      <point x="689" y="608"/>
      <point x="733" y="622" type="curve"/>
      <point x="745" y="623"/>
      <point x="747" y="647"/>
    </contour>
  </outline>
</glyph>
<glyph name="W" format="2">
  <advance width="892"/>
  <unicode hex="0057"/>
  <outline>
    <contour>
      <point x="1015" y="635" type="curve"/>
      <point x="1017" y="640"/>
      <point x="1017" y="647"/>
      <point x="1011" y="647" type="curve"/>
      <point x="944" y="643"/>
      <point x="856" y="646"/>
      <point x="815" y="647" type="curve" smooth="yes"/>
      <point x="811" y="647"/>
      <point x="805" y="643"/>
      <point x="803" y="634" type="curve"/>
      <point x="802" y="628"/>
      <point x="806" y="620"/>
      <point x="812" y="620" type="curve" smooth="yes"/>
      <point x="826" y="620"/>
      <point x="841" y="620"/>
      <point x="855" y="616" type="curve" smooth="yes"/>
      <point x="902" y="601"/>
      <point x="868" y="544"/>
      <point x="851" y="520" type="curve" smooth="yes"/>
      <point x="572" y="124" type="line" smooth="yes"/>
      <point x="561" y="108"/>
      <point x="558" y="116"/>
      <point x="559" y="130" type="curve" smooth="yes"/>
      <point x="588" y="538" type="line" smooth="yes"/>
      <point x="593" y="607"/>
      <point x="595" y="612"/>
      <point x="670" y="620" type="curve"/>
      <point x="677" y="620"/>
      <point x="686" y="647"/>
      <point x="675" y="647" type="curve" smooth="yes"/>
      <point x="610" y="645"/>
      <point x="485" y="645"/>
      <point x="425" y="647" type="curve" smooth="yes"/>
      <point x="417" y="647"/>
      <point x="412" y="619"/>
      <point x="423" y="620" type="curve"/>
      <point x="486" y="618"/>
      <point x="498" y="610"/>
      <point x="498" y="563" type="curve" smooth="yes"/>
      <point x="498" y="526" type="line"/>
      <point x="183" y="122" type="line" smooth="yes"/>
      <point x="169" y="104"/>
      <point x="168" y="115"/>
      <point x="170" y="130" type="curve" smooth="yes"/>
      <point x="211" y="525" type="line" smooth="yes"/>
      <point x="219" y="600"/>
      <point x="227" y="612"/>
      <point x="295" y="620" type="curve"/>
      <point x="299" y="620"/>
      <point x="305" y="627"/>
      <point x="306" y="633" type="curve" smooth="yes"/>
      <point x="307" y="640"/>
      <point x="304" y="648"/>
      <point x="297" y="647" type="curve"/>
      <point x="232" y="645"/>
      <point x="114" y="645"/>
      <point x="58" y="647" type="curve" smooth="yes"/>
      <point x="52" y="647"/>
      <point x="47" y="641"/>
      <point x="46" y="636" type="curve" smooth="yes"/>
      <point x="44" y="627"/>
      <point x="48" y="621"/>
      <point x="55" y="621" type="curve"/>
      <point x="64" y="619"/>
      <point x="80" y="618"/>
      <point x="89" y="618" type="curve" smooth="yes"/>
      <point x="109" y="617"/>
      <point x="126" y="611"/>
      <point x="126" y="561" type="curve" smooth="yes"/>
      <point x="126" y="555"/>
      <point x="126" y="549"/>
      <point x="125" y="542" type="curve"/>
      <point x="79" y="-6" type="line"/>
      <point x="78" y="-12"/>
      <point x="84" y="-14"/>
      <point x="90" y="-16" type="curve"/>
      <point x="94" y="-17"/>
      <point x="108" y="-16"/>
      <point x="112" y="-15" type="curve"/>
      <point x="119" y="-15"/>
      <point x="125" y="-7"/>
      <point x="127" y="-5" type="curve"/>
      <point x="487" y="457" type="line"/>
      <point x="497" y="467"/>
      <point x="497" y="454"/>
      <point x="497" y="449" type="curve"/>
      <point x="465" y="-5" type="line"/>
      <point x="465" y="-10"/>
      <point x="472" y="-12"/>
      <point x="477" y="-14" type="curve"/>
      <point x="481" y="-16"/>
      <point x="491" y="-15"/>
      <point x="497" y="-15" type="curve" smooth="yes"/>
      <point x="509" y="-15"/>
      <point x="515" y="-7"/>
      <point x="518" y="-3" type="curve" smooth="yes"/>
      <point x="906" y="536" type="line" smooth="yes"/>
      <point x="947" y="593"/>
      <point x="973" y="614"/>
      <point x="1006" y="622" type="curve"/>
      <point x="1010" y="622"/>
      <point x="1014" y="628"/>
    </contour>
  </outline>
</glyph>
<glyph name="X" format="2">
  <advance width="704"/>
  <unicode hex="0058"/>
  <outline>
    <contour>
      <point x="788" y="637" type="curve"/>
      <point x="788" y="643"/>
      <point x="789" y="646"/>
      <point x="778" y="646" type="curve" smooth="yes"/>
      <point x="703" y="643"/>
      <point x="605" y="644"/>
      <point x="538" y="646" type="curve" smooth="yes"/>
      <point x="529" y="646"/>
      <point x="523" y="621"/>
      <point x="535" y="622" type="curve"/>
      <point x="592" y="620"/>
      <point x="608" y="612"/>
      <point x="608" y="591" type="curve" smooth="yes"/>
      <point x="608" y="578"/>
      <point x="600" y="566"/>
      <point x="582" y="548" type="curve" smooth="yes"/>
      <point x="444" y="405" type="line"/>
      <point x="436" y="399"/>
      <point x="433" y="395"/>
      <point x="428" y="404" type="curve" smooth="yes"/>
      <point x="351" y="557" type="line" smooth="yes"/>
      <point x="345" y="568"/>
      <point x="337" y="580"/>
      <point x="337" y="593" type="curve" smooth="yes"/>
      <point x="337" y="615"/>
      <point x="352" y="621"/>
      <point x="410" y="622" type="curve" smooth="yes"/>
      <point x="414" y="622"/>
      <point x="417" y="628"/>
      <point x="418" y="634" type="curve" smooth="yes"/>
      <point x="419" y="640"/>
      <point x="415" y="646"/>
      <point x="409" y="646" type="curve" smooth="yes"/>
      <point x="354" y="645"/>
      <point x="228" y="644"/>
      <point x="133" y="646" type="curve" smooth="yes"/>
      <point x="131" y="646"/>
      <point x="124" y="643"/>
      <point x="122" y="636" type="curve"/>
      <point x="122" y="630"/>
      <point x="123" y="622"/>
      <point x="127" y="622" type="curve" smooth="yes"/>
      <point x="196" y="620"/>
      <point x="221" y="610"/>
      <point x="244" y="568" type="curve" smooth="yes"/>
      <point x="367" y="342" type="line"/>
      <point x="369" y="333"/>
      <point x="367" y="328"/>
      <point x="363" y="322" type="curve"/>
      <point x="130" y="89" type="line" smooth="yes"/>
      <point x="75" y="34"/>
      <point x="78" y="33"/>
      <point x="-4" y="22" type="curve"/>
      <point x="-8" y="22"/>
      <point x="-11" y="16"/>
      <point x="-12" y="9" type="curve" smooth="yes"/>
      <point x="-13" y="3"/>
      <point x="-13" y="-2"/>
      <point x="-2" y="-1" type="curve" smooth="yes"/>
      <point x="64" y="2"/>
      <point x="174" y="-1"/>
      <point x="232" y="-2" type="curve"/>
      <point x="239" y="-3"/>
      <point x="243" y="19"/>
      <point x="237" y="21" type="curve"/>
      <point x="160" y="26"/>
      <point x="132" y="47"/>
      <point x="199" y="114" type="curve" smooth="yes"/>
      <point x="377" y="293" type="line"/>
      <point x="385" y="302"/>
      <point x="392" y="294"/>
      <point x="398" y="285" type="curve"/>
      <point x="507" y="80" type="line" smooth="yes"/>
      <point x="535" y="27"/>
      <point x="502" y="23"/>
      <point x="446" y="21" type="curve"/>
      <point x="442" y="22"/>
      <point x="438" y="16"/>
      <point x="437" y="12" type="curve" smooth="yes"/>
      <point x="436" y="7"/>
      <point x="436" y="-3"/>
      <point x="450" y="-2" type="curve" smooth="yes"/>
      <point x="511" y="0"/>
      <point x="635" y="0"/>
      <point x="702" y="-2" type="curve" smooth="yes"/>
      <point x="707" y="-2"/>
      <point x="715" y="18"/>
      <point x="706" y="19" type="curve" smooth="yes"/>
      <point x="643" y="28"/>
      <point x="628" y="37"/>
      <point x="591" y="105" type="curve" smooth="yes"/>
      <point x="454" y="358" type="line" smooth="yes"/>
      <point x="452" y="362"/>
      <point x="453" y="371"/>
      <point x="457" y="374" type="curve"/>
      <point x="619" y="541" type="line" smooth="yes"/>
      <point x="673" y="597"/>
      <point x="717" y="616"/>
      <point x="778" y="624" type="curve"/>
      <point x="782" y="624"/>
      <point x="787" y="630"/>
    </contour>
  </outline>
</glyph>
<glyph name="Y" format="2">
  <advance width="639"/>
  <unicode hex="0059"/>
  <outline>
    <contour>
      <point x="762" y="638" type="curve" smooth="yes"/>
      <point x="763" y="643"/>
      <point x="757" y="646"/>
      <point x="752" y="646" type="curve"/>
      <point x="689" y="642"/>
      <point x="638" y="643"/>
      <point x="575" y="646" type="curve"/>
      <point x="565" y="648"/>
      <point x="558" y="624"/>
      <point x="567" y="622" type="curve"/>
      <point x="610" y="620"/>
      <point x="629" y="610"/>
      <point x="629" y="590" type="curve" smooth="yes"/>
      <point x="629" y="575"/>
      <point x="620" y="564"/>
      <point x="590" y="529" type="curve" smooth="yes"/>
      <point x="406" y="315" type="line" smooth="yes"/>
      <point x="393" y="299"/>
      <point x="393" y="307"/>
      <point x="390" y="315" type="curve"/>
      <point x="288" y="548" type="line" smooth="yes"/>
      <point x="259" y="615"/>
      <point x="270" y="617"/>
      <point x="329" y="622" type="curve"/>
      <point x="332" y="622"/>
      <point x="334" y="629"/>
      <point x="335" y="634" type="curve"/>
      <point x="338" y="642"/>
      <point x="334" y="645"/>
      <point x="328" y="646" type="curve"/>
      <point x="276" y="644"/>
      <point x="176" y="643"/>
      <point x="114" y="646" type="curve" smooth="yes"/>
      <point x="108" y="646"/>
      <point x="104" y="641"/>
      <point x="103" y="635" type="curve" smooth="yes"/>
      <point x="101" y="625"/>
      <point x="103" y="622"/>
      <point x="113" y="622" type="curve"/>
      <point x="149" y="620"/>
      <point x="166" y="608"/>
      <point x="191" y="550" type="curve" smooth="yes"/>
      <point x="317" y="263" type="line"/>
      <point x="285" y="113" type="line" smooth="yes"/>
      <point x="276" y="72"/>
      <point x="266" y="52"/>
      <point x="250" y="41" type="curve" smooth="yes"/>
      <point x="230" y="28"/>
      <point x="193" y="28"/>
      <point x="170" y="27" type="curve"/>
      <point x="160" y="26"/>
      <point x="153" y="0"/>
      <point x="162" y="-2" type="curve"/>
      <point x="248" y="0"/>
      <point x="388" y="0"/>
      <point x="464" y="-2" type="curve" smooth="yes"/>
      <point x="469" y="-2"/>
      <point x="479" y="25"/>
      <point x="469" y="27" type="curve"/>
      <point x="462" y="29"/>
      <point x="449" y="28"/>
      <point x="441" y="28" type="curve" smooth="yes"/>
      <point x="369" y="26"/>
      <point x="362" y="50"/>
      <point x="375" y="112" type="curve" smooth="yes"/>
      <point x="406" y="262" type="line"/>
      <point x="660" y="554" type="line" smooth="yes"/>
      <point x="701" y="602"/>
      <point x="714" y="609"/>
      <point x="756" y="625" type="curve"/>
      <point x="757" y="626"/>
      <point x="760" y="629"/>
    </contour>
  </outline>
</glyph>
<glyph name="Z" format="2">
  <advance width="687"/>
  <unicode hex="005A"/>
  <outline>
    <contour>
      <point x="727" y="622" type="curve"/>
      <point x="731" y="638"/>
      <point x="730" y="648"/>
      <point x="710" y="646" type="curve"/>
      <point x="582" y="645"/>
      <point x="352" y="644"/>
      <point x="226" y="646" type="curve" smooth="yes"/>
      <point x="220" y="646"/>
      <point x="208" y="643"/>
      <point x="206" y="634" type="curve"/>
      <point x="202" y="597"/>
      <point x="175" y="510"/>
      <point x="165" y="472" type="curve"/>
      <point x="165" y="467"/>
      <point x="172" y="466"/>
      <point x="177" y="466" type="curve"/>
      <point x="182" y="467"/>
      <point x="189" y="468"/>
      <point x="190" y="471" type="curve" smooth="yes"/>
      <point x="229" y="574"/>
      <point x="284" y="613"/>
      <point x="386" y="613" type="curve" smooth="yes"/>
      <point x="580" y="613" type="line" smooth="yes"/>
      <point x="590" y="613"/>
      <point x="600" y="613"/>
      <point x="586" y="600" type="curve" smooth="yes"/>
      <point x="416" y="431"/>
      <point x="150" y="165"/>
      <point x="2" y="21" type="curve" smooth="yes"/>
      <point x="0" y="19"/>
      <point x="-3" y="0"/>
      <point x="3" y="-2" type="curve"/>
      <point x="163" y="0"/>
      <point x="433" y="0"/>
      <point x="584" y="-2" type="curve" smooth="yes"/>
      <point x="593" y="-2"/>
      <point x="604" y="4"/>
      <point x="607" y="17" type="curve" smooth="yes"/>
      <point x="618" y="58"/>
      <point x="640" y="141"/>
      <point x="651" y="174" type="curve" smooth="yes"/>
      <point x="653" y="181"/>
      <point x="652" y="184"/>
      <point x="646" y="186" type="curve"/>
      <point x="642" y="187"/>
      <point x="634" y="184"/>
      <point x="630" y="181" type="curve"/>
      <point x="600" y="131"/>
      <point x="578" y="101"/>
      <point x="549" y="75" type="curve" smooth="yes"/>
      <point x="514" y="44"/>
      <point x="478" y="32"/>
      <point x="411" y="32" type="curve" smooth="yes"/>
      <point x="148" y="32" type="line"/>
      <point x="135" y="34"/>
      <point x="133" y="35"/>
      <point x="142" y="44" type="curve" smooth="yes"/>
      <point x="299" y="201"/>
      <point x="578" y="479"/>
    </contour>
  </outline>
</glyph>
<glyph name="bracketleft" format="2">
  <advance width="307"/>
  <unicode hex="005B"/>
  <outline>
    <contour>
      <point x="434" y="681" type="line"/>
      <point x="240" y="681" type="line"/>
      <point x="59" y="-228" type="line"/>
      <point x="253" y="-228" type="line"/>
      <point x="257" y="-207" type="line"/>
      <point x="185" y="-207" type="line" smooth="yes"/>
      <point x="146" y="-207"/>
      <point x="135" y="-200"/>
      <point x="135" y="-187" type="curve" smooth="yes"/>
      <point x="135" y="-183"/>
      <point x="136" y="-176"/>
      <point x="138" y="-168" type="curve" smooth="yes"/>
      <point x="295" y="622" type="line" smooth="yes"/>
      <point x="301" y="651"/>
      <point x="309" y="659"/>
      <point x="336" y="659" type="curve" smooth="yes"/>
      <point x="429" y="659" type="line"/>
    </contour>
  </outline>
</glyph>
<glyph name="backslash" format="2">
  <advance width="223"/>
  <unicode hex="005C"/>
  <outline>
    <contour>
      <point x="231" y="-16" type="line"/>
      <point x="142" y="662" type="line"/>
      <point x="74" y="662" type="line"/>
      <point x="163" y="-16" type="line"/>
    </contour>
  </outline>
</glyph>
<glyph name="bracketright" format="2">
  <advance width="307"/>
  <unicode hex="005D"/>
  <outline>
    <contour>
      <point x="335" y="681" type="line"/>
      <point x="140" y="681" type="line"/>
      <point x="136" y="660" type="line"/>
      <point x="207" y="660" type="line" smooth="yes"/>
      <point x="247" y="660"/>
      <point x="258" y="654"/>
      <point x="258" y="641" type="curve" smooth="yes"/>
      <point x="258" y="637"/>
      <point x="257" y="628"/>
      <point x="256" y="621" type="curve"/>
      <point x="99" y="-168" type="line" smooth="yes"/>
      <point x="93" y="-198"/>
      <point x="84" y="-206"/>
      <point x="57" y="-206" type="curve" smooth="yes"/>
      <point x="-37" y="-206" type="line"/>
      <point x="-41" y="-228" type="line"/>
      <point x="153" y="-228" type="line"/>
    </contour>
  </outline>
</glyph>
<glyph name="asciicircum" format="2">
  <advance width="434"/>
  <unicode hex="005E"/>
  <outline>
    <contour>
      <point x="501" y="334" type="line"/>
      <point x="287" y="700" type="line"/>
      <point x="271" y="700" type="line"/>
      <point x="54" y="334" type="line"/>
      <point x="105" y="334" type="line"/>
      <point x="278" y="627" type="line"/>
      <point x="450" y="334" type="line"/>
    </contour>
  </outline>
</glyph>
<glyph name="underscore" format="2">
  <advance width="509"/>
  <unicode hex="005F"/>
  <outline>
    <contour>
      <point x="517" y="-189" type="curve"/>
      <point x="515" y="-183"/>
      <point x="510" y="-182"/>
      <point x="503" y="-180" type="curve"/>
      <point x="486" y="-183"/>
      <point x="137" y="-181"/>
      <point x="14" y="-181" type="curve" smooth="yes"/>
      <point x="-3" y="-181"/>
      <point x="-6" y="-193"/>
      <point x="-6" y="-199" type="curve"/>
      <point x="-7" y="-209"/>
      <point x="-9" y="-198"/>
      <point x="-9" y="-209" type="curve"/>
      <point x="-10" y="-219"/>
      <point x="-2" y="-223"/>
      <point x="5" y="-222" type="curve"/>
      <point x="502" y="-222" type="line"/>
      <point x="509" y="-223"/>
      <point x="514" y="-215"/>
      <point x="516" y="-211" type="curve"/>
      <point x="517" y="-194"/>
      <point x="521" y="-204"/>
    </contour>
  </outline>
</glyph>
<glyph name="grave" format="2">
  <advance width="339"/>
  <unicode hex="0060"/>
  <outline>
    <contour>
      <point x="313" y="499" type="curve" smooth="yes"/>
      <point x="265" y="651" type="line"/>
      <point x="265" y="652"/>
      <point x="264" y="653"/>
      <point x="264" y="654" type="curve"/>
      <point x="261" y="658"/>
      <point x="257" y="657"/>
      <point x="252" y="657" type="curve" smooth="yes"/>
      <point x="178" y="657" type="line" smooth="yes"/>
      <point x="172" y="657"/>
      <point x="165" y="653"/>
      <point x="172" y="644" type="curve" smooth="yes"/>
      <point x="295" y="498" type="line"/>
      <point x="298" y="495"/>
      <point x="303" y="494"/>
      <point x="307" y="494" type="curve" smooth="yes"/>
      <point x="312" y="494"/>
      <point x="314" y="496"/>
    </contour>
  </outline>
</glyph>
<glyph name="b" format="2">
  <advance width="415"/>
  <unicode hex="0062"/>
  <outline>
    <contour>
      <point x="357" y="405" type="curve" smooth="yes"/>
      <point x="349" y="419"/>
      <point x="339" y="430"/>
      <point x="330" y="430" type="curve" smooth="yes"/>
      <point x="292" y="430"/>
      <point x="201" y="322"/>
      <point x="174" y="292" type="curve"/>
      <point x="168" y="286"/>
      <point x="162" y="286"/>
      <point x="165" y="300" type="curve" smooth="yes"/>
      <point x="251" y="727" type="line" smooth="yes"/>
      <point x="258" y="762"/>
      <point x="247" y="767"/>
      <point x="211" y="746" type="curve" smooth="yes"/>
      <point x="124" y="695" type="line" smooth="yes"/>
      <point x="115" y="690"/>
      <point x="113" y="668"/>
      <point x="133" y="677" type="curve"/>
      <point x="149" y="686"/>
      <point x="166" y="694"/>
      <point x="171" y="694" type="curve" smooth="yes"/>
      <point x="177" y="694"/>
      <point x="177" y="687"/>
      <point x="176" y="683" type="curve" smooth="yes"/>
      <point x="133" y="501"/>
      <point x="105" y="326"/>
      <point x="68" y="143" type="curve" smooth="yes"/>
      <point x="53" y="68"/>
      <point x="62" y="-12"/>
      <point x="161" y="-12" type="curve" smooth="yes"/>
      <point x="315" y="-12"/>
      <point x="444" y="255"/>
    </contour>
    <contour>
      <point x="317" y="264" type="curve" smooth="yes"/>
      <point x="317" y="195"/>
      <point x="264" y="14"/>
      <point x="175" y="14" type="curve" smooth="yes"/>
      <point x="112" y="14"/>
      <point x="127" y="101"/>
      <point x="135" y="142" type="curve" smooth="yes"/>
      <point x="154" y="236" type="line" smooth="yes"/>
      <point x="157" y="251"/>
      <point x="153" y="245"/>
      <point x="162" y="255" type="curve" smooth="yes"/>
      <point x="174" y="269"/>
      <point x="195" y="294"/>
      <point x="216" y="317" type="curve" smooth="yes"/>
      <point x="241" y="344"/>
      <point x="269" y="369"/>
      <point x="284" y="369" type="curve" smooth="yes"/>
      <point x="302" y="369"/>
      <point x="317" y="328"/>
    </contour>
  </outline>
</glyph>
<glyph name="c" format="2">
  <advance width="300"/>
  <unicode hex="0063"/>
  <outline>
    <contour>
      <point x="316" y="389" type="curve" smooth="yes"/>
      <point x="316" y="414"/>
      <point x="294" y="429"/>
      <point x="262" y="429" type="curve" smooth="yes"/>
      <point x="127" y="429"/>
      <point x="35" y="212"/>
      <point x="35" y="98" type="curve" smooth="yes"/>
      <point x="35" y="32"/>
      <point x="71" y="-12"/>
      <point x="124" y="-12" type="curve" smooth="yes"/>
      <point x="169" y="-12"/>
      <point x="230" y="22"/>
      <point x="280" y="81" type="curve"/>
      <point x="282" y="86"/>
      <point x="280" y="92"/>
      <point x="273" y="97" type="curve"/>
      <point x="270" y="101"/>
      <point x="260" y="103"/>
      <point x="259" y="99" type="curve"/>
      <point x="226" y="60"/>
      <point x="189" y="37"/>
      <point x="159" y="37" type="curve" smooth="yes"/>
      <point x="53" y="37"/>
      <point x="128" y="258"/>
      <point x="148" y="309" type="curve" smooth="yes"/>
      <point x="168" y="358"/>
      <point x="189" y="380"/>
      <point x="211" y="380" type="curve" smooth="yes"/>
      <point x="219" y="380"/>
      <point x="226" y="378"/>
      <point x="238" y="372" type="curve"/>
      <point x="255" y="362"/>
      <point x="267" y="354"/>
      <point x="287" y="354" type="curve" smooth="yes"/>
      <point x="304" y="354"/>
      <point x="316" y="369"/>
    </contour>
  </outline>
</glyph>
<glyph name="d" format="2">
  <advance width="450"/>
  <unicode hex="0064"/>
  <outline>
    <contour>
      <point x="458" y="724" type="line" smooth="yes"/>
      <point x="466" y="764"/>
      <point x="439" y="754"/>
      <point x="421" y="744" type="curve" smooth="yes"/>
      <point x="314" y="685" type="line"/>
      <point x="308" y="683"/>
      <point x="306" y="675"/>
      <point x="307" y="667" type="curve"/>
      <point x="309" y="659"/>
      <point x="313" y="656"/>
      <point x="319" y="660" type="curve"/>
      <point x="336" y="669"/>
      <point x="353" y="680"/>
      <point x="370" y="689" type="curve" smooth="yes"/>
      <point x="384" y="696"/>
      <point x="390" y="700"/>
      <point x="386" y="678" type="curve" smooth="yes"/>
      <point x="337" y="426" type="line" smooth="yes"/>
      <point x="335" y="415"/>
      <point x="329" y="401"/>
      <point x="323" y="408" type="curve" smooth="yes"/>
      <point x="289" y="444"/>
      <point x="240" y="430"/>
      <point x="203" y="402" type="curve" smooth="yes"/>
      <point x="110" y="334"/>
      <point x="49" y="221"/>
      <point x="49" y="114" type="curve" smooth="yes"/>
      <point x="49" y="42"/>
      <point x="73" y="-12"/>
      <point x="109" y="-12" type="curve" smooth="yes"/>
      <point x="140" y="-12"/>
      <point x="203" y="41"/>
      <point x="269" y="125" type="curve"/>
      <point x="272" y="130"/>
      <point x="281" y="148"/>
      <point x="279" y="127" type="curve" smooth="yes"/>
      <point x="275" y="92"/>
      <point x="261" y="60"/>
      <point x="261" y="21" type="curve" smooth="yes"/>
      <point x="261" y="1"/>
      <point x="269" y="-12"/>
      <point x="284" y="-12" type="curve" smooth="yes"/>
      <point x="313" y="-12"/>
      <point x="371" y="37"/>
      <point x="410" y="97" type="curve" smooth="yes"/>
      <point x="415" y="105"/>
      <point x="410" y="110"/>
      <point x="406" y="114" type="curve"/>
      <point x="402" y="117"/>
      <point x="398" y="117"/>
      <point x="396" y="114" type="curve" smooth="yes"/>
      <point x="367" y="73"/>
      <point x="346" y="53"/>
      <point x="338" y="53" type="curve" smooth="yes"/>
      <point x="330" y="53"/>
      <point x="334" y="71"/>
      <point x="335" y="76" type="curve" smooth="yes"/>
    </contour>
    <contour>
      <point x="319" y="337" type="curve"/>
      <point x="290" y="187" type="line"/>
      <point x="228" y="100"/>
      <point x="171" y="42"/>
      <point x="149" y="42" type="curve" smooth="yes"/>
      <point x="130" y="42"/>
      <point x="117" y="71"/>
      <point x="117" y="120" type="curve" smooth="yes"/>
      <point x="117" y="187"/>
      <point x="138" y="259"/>
      <point x="176" y="325" type="curve" smooth="yes"/>
      <point x="204" y="373"/>
      <point x="230" y="397"/>
      <point x="256" y="397" type="curve" smooth="yes"/>
      <point x="282" y="397"/>
      <point x="305" y="375"/>
    </contour>
  </outline>
</glyph>
<glyph name="f" format="2">
  <advance width="283"/>
  <unicode hex="0066"/>
  <outline>
    <contour>
      <point x="444" y="703" type="curve" smooth="yes"/>
      <point x="445" y="732"/>
      <point x="409" y="758"/>
      <point x="369" y="758" type="curve" smooth="yes"/>
      <point x="322" y="758"/>
      <point x="270" y="731"/>
      <point x="233" y="685" type="curve" smooth="yes"/>
      <point x="206" y="653"/>
      <point x="188" y="617"/>
      <point x="168" y="557" type="curve" smooth="yes"/>
      <point x="154" y="516"/>
      <point x="141" y="454"/>
      <point x="134" y="416" type="curve"/>
      <point x="123" y="413"/>
      <point x="115" y="410"/>
      <point x="107" y="408" type="curve" smooth="yes"/>
      <point x="97" y="405"/>
      <point x="87" y="404"/>
      <point x="72" y="402" type="curve"/>
      <point x="68" y="402"/>
      <point x="64" y="396"/>
      <point x="63" y="388" type="curve"/>
      <point x="62" y="383"/>
      <point x="62" y="377"/>
      <point x="67" y="378" type="curve"/>
      <point x="120" y="378" type="line" smooth="yes"/>
      <point x="126" y="378"/>
      <point x="126" y="370"/>
      <point x="125" y="365" type="curve" smooth="yes"/>
      <point x="106" y="252"/>
      <point x="88" y="133"/>
      <point x="65" y="16" type="curve" smooth="yes"/>
      <point x="57" y="-28"/>
      <point x="49" y="-68"/>
      <point x="41" y="-102" type="curve" smooth="yes"/>
      <point x="34" y="-135"/>
      <point x="27" y="-162"/>
      <point x="18" y="-179" type="curve" smooth="yes"/>
      <point x="1" y="-212"/>
      <point x="-31" y="-237"/>
      <point x="-61" y="-237" type="curve" smooth="yes"/>
      <point x="-84" y="-237"/>
      <point x="-97" y="-221"/>
      <point x="-111" y="-206" type="curve"/>
      <point x="-118" y="-200"/>
      <point x="-126" y="-192"/>
      <point x="-137" y="-191" type="curve" smooth="yes"/>
      <point x="-155" y="-189"/>
      <point x="-173" y="-189"/>
      <point x="-178" y="-219" type="curve" smooth="yes"/>
      <point x="-183" y="-245"/>
      <point x="-145" y="-274"/>
      <point x="-102" y="-274" type="curve" smooth="yes"/>
      <point x="-66" y="-274"/>
      <point x="-33" y="-260"/>
      <point x="-3" y="-238" type="curve" smooth="yes"/>
      <point x="102" y="-162"/>
      <point x="128" y="-7"/>
      <point x="148" y="111" type="curve" smooth="yes"/>
      <point x="193" y="371" type="line"/>
      <point x="196" y="376"/>
      <point x="196" y="377"/>
      <point x="201" y="378" type="curve"/>
      <point x="262" y="378" type="line" smooth="yes"/>
      <point x="266" y="378"/>
      <point x="272" y="387"/>
      <point x="276" y="398" type="curve"/>
      <point x="278" y="408"/>
      <point x="279" y="417"/>
      <point x="273" y="417" type="curve" smooth="yes"/>
      <point x="210" y="417" type="line"/>
      <point x="205" y="418"/>
      <point x="203" y="421"/>
      <point x="203" y="425" type="curve"/>
      <point x="220" y="521" type="line" smooth="yes"/>
      <point x="235" y="604"/>
      <point x="249" y="654"/>
      <point x="266" y="680" type="curve" smooth="yes"/>
      <point x="280" y="702"/>
      <point x="303" y="717"/>
      <point x="322" y="717" type="curve" smooth="yes"/>
      <point x="362" y="717"/>
      <point x="369" y="679"/>
      <point x="401" y="675" type="curve" smooth="yes"/>
      <point x="421" y="673"/>
      <point x="443" y="679"/>
    </contour>
  </outline>
</glyph>
<glyph name="g" format="2">
  <advance width="398"/>
  <unicode hex="0067"/>
  <outline>
    <contour>
      <point x="405" y="391" type="curve"/>
      <point x="404" y="405"/>
      <point x="401" y="421"/>
      <point x="393" y="421" type="curve" smooth="yes"/>
      <point x="376" y="421"/>
      <point x="316" y="428"/>
      <point x="278" y="430" type="curve" smooth="yes"/>
      <point x="233" y="432"/>
      <point x="199" y="415"/>
      <point x="165" y="387" type="curve" smooth="yes"/>
      <point x="101" y="334"/>
      <point x="52" y="258"/>
      <point x="52" y="195" type="curve" smooth="yes"/>
      <point x="52" y="136"/>
      <point x="80" y="83"/>
      <point x="127" y="55" type="curve" smooth="yes"/>
      <point x="132" y="52"/>
      <point x="129" y="48"/>
      <point x="127" y="47" type="curve"/>
      <point x="96" y="25"/>
      <point x="74" y="0"/>
      <point x="99" y="-40" type="curve"/>
      <point x="56" y="-63"/>
      <point x="15" y="-86"/>
      <point x="-23" y="-112" type="curve" smooth="yes"/>
      <point x="-62" y="-138"/>
      <point x="-83" y="-163"/>
      <point x="-83" y="-187" type="curve" smooth="yes"/>
      <point x="-83" y="-240"/>
      <point x="-1" y="-275"/>
      <point x="110" y="-275" type="curve" smooth="yes"/>
      <point x="236" y="-275"/>
      <point x="331" y="-233"/>
      <point x="331" y="-173" type="curve" smooth="yes"/>
      <point x="331" y="-142"/>
      <point x="300" y="-110"/>
      <point x="208" y="-48" type="curve" smooth="yes"/>
      <point x="154" y="-12"/>
      <point x="138" y="4"/>
      <point x="138" y="19" type="curve" smooth="yes"/>
      <point x="138" y="29"/>
      <point x="146" y="39"/>
      <point x="175" y="52" type="curve" smooth="yes"/>
      <point x="212" y="69"/>
      <point x="267" y="103"/>
      <point x="295" y="127" type="curve" smooth="yes"/>
      <point x="336" y="163"/>
      <point x="363" y="221"/>
      <point x="363" y="278" type="curve" smooth="yes"/>
      <point x="363" y="306"/>
      <point x="358" y="330"/>
      <point x="345" y="365" type="curve" smooth="yes"/>
      <point x="344" y="368"/>
      <point x="346" y="372"/>
      <point x="352" y="371" type="curve" smooth="yes"/>
      <point x="394" y="366" type="line"/>
      <point x="403" y="363"/>
      <point x="405" y="377"/>
    </contour>
    <contour>
      <point x="291" y="291" type="curve" smooth="yes"/>
      <point x="291" y="232"/>
      <point x="275" y="172"/>
      <point x="246" y="130" type="curve" smooth="yes"/>
      <point x="227" y="102"/>
      <point x="204" y="85"/>
      <point x="184" y="85" type="curve" smooth="yes"/>
      <point x="151" y="85"/>
      <point x="122" y="130"/>
      <point x="122" y="186" type="curve" smooth="yes"/>
      <point x="122" y="244"/>
      <point x="163" y="397"/>
      <point x="232" y="397" type="curve" smooth="yes"/>
      <point x="267" y="397"/>
      <point x="291" y="355"/>
    </contour>
    <contour>
      <point x="270" y="-196" type="curve" smooth="yes"/>
      <point x="270" y="-228"/>
      <point x="207" y="-254"/>
      <point x="111" y="-254" type="curve" smooth="yes"/>
      <point x="33" y="-254"/>
      <point x="-20" y="-221"/>
      <point x="-20" y="-177" type="curve" smooth="yes"/>
      <point x="-20" y="-141"/>
      <point x="20" y="-109"/>
      <point x="106" y="-60" type="curve"/>
      <point x="108" y="-59"/>
      <point x="114" y="-58"/>
      <point x="117" y="-60" type="curve"/>
      <point x="153" y="-92"/>
      <point x="196" y="-126"/>
      <point x="237" y="-156" type="curve" smooth="yes"/>
      <point x="261" y="-173"/>
      <point x="270" y="-186"/>
    </contour>
  </outline>
</glyph>
<glyph name="h" format="2">
  <advance width="457"/>
  <unicode hex="0068"/>
  <outline>
    <contour>
      <point x="440" y="101" type="curve"/>
      <point x="444" y="107"/>
      <point x="435" y="126"/>
      <point x="427" y="119" type="curve"/>
      <point x="384" y="71"/>
      <point x="359" y="47"/>
      <point x="348" y="47" type="curve" smooth="yes"/>
      <point x="336" y="47"/>
      <point x="343" y="66"/>
      <point x="345" y="72" type="curve"/>
      <point x="404" y="302" type="line" smooth="yes"/>
      <point x="411" y="331"/>
      <point x="431" y="428"/>
      <point x="373" y="428" type="curve" smooth="yes"/>
      <point x="329" y="428"/>
      <point x="265" y="370"/>
      <point x="173" y="241" type="curve"/>
      <point x="168" y="233"/>
      <point x="162" y="227"/>
      <point x="166" y="246" type="curve" smooth="yes"/>
      <point x="263" y="732" type="line"/>
      <point x="263" y="743"/>
      <point x="268" y="755"/>
      <point x="250" y="755" type="curve" smooth="yes"/>
      <point x="243" y="755"/>
      <point x="233" y="751"/>
      <point x="220" y="744" type="curve" smooth="yes"/>
      <point x="119" y="686" type="line"/>
      <point x="117" y="685"/>
      <point x="115" y="677"/>
      <point x="117" y="670" type="curve" smooth="yes"/>
      <point x="119" y="663"/>
      <point x="122" y="661"/>
      <point x="127" y="665" type="curve"/>
      <point x="156" y="681"/>
      <point x="175" y="690"/>
      <point x="179" y="690" type="curve" smooth="yes"/>
      <point x="188" y="690"/>
      <point x="183" y="676"/>
      <point x="182" y="672" type="curve" smooth="yes"/>
      <point x="52" y="14" type="line"/>
      <point x="50" y="8"/>
      <point x="48" y="-8"/>
      <point x="58" y="-7" type="curve"/>
      <point x="75" y="-8"/>
      <point x="85" y="-7"/>
      <point x="96" y="-7" type="curve" smooth="yes"/>
      <point x="120" y="-7"/>
      <point x="118" y="14"/>
      <point x="122" y="33" type="curve" smooth="yes"/>
      <point x="126" y="49"/>
      <point x="132" y="81"/>
      <point x="150" y="169" type="curve"/>
      <point x="177" y="208"/>
      <point x="301" y="379"/>
      <point x="331" y="379" type="curve" smooth="yes"/>
      <point x="357" y="379"/>
      <point x="340" y="315"/>
      <point x="336" y="301" type="curve" smooth="yes"/>
      <point x="283" y="93" type="line" smooth="yes"/>
      <point x="278" y="74"/>
      <point x="258" y="-12"/>
      <point x="303" y="-12" type="curve" smooth="yes"/>
      <point x="333" y="-12"/>
      <point x="392" y="37"/>
    </contour>
  </outline>
</glyph>
<glyph name="i" format="2">
  <advance width="255"/>
  <unicode hex="0069"/>
  <outline>
    <contour>
      <point x="239" y="588" type="curve" smooth="yes"/>
      <point x="242" y="609"/>
      <point x="245" y="643"/>
      <point x="216" y="644" type="curve" smooth="yes"/>
      <point x="195" y="644"/>
      <point x="177" y="620"/>
      <point x="170" y="589" type="curve" smooth="yes"/>
      <point x="165" y="568"/>
      <point x="160" y="526"/>
      <point x="192" y="526" type="curve" smooth="yes"/>
      <point x="215" y="526"/>
      <point x="234" y="553"/>
    </contour>
    <contour>
      <point x="222" y="88" type="curve"/>
      <point x="225" y="91"/>
      <point x="224" y="99"/>
      <point x="220" y="107" type="curve"/>
      <point x="216" y="114"/>
      <point x="211" y="115"/>
      <point x="207" y="109" type="curve"/>
      <point x="196" y="96"/>
      <point x="156" y="51"/>
      <point x="146" y="51" type="curve"/>
      <point x="131" y="50"/>
      <point x="136" y="62"/>
      <point x="139" y="78" type="curve" smooth="yes"/>
      <point x="198" y="368" type="line" smooth="yes"/>
      <point x="202" y="386"/>
      <point x="212" y="429"/>
      <point x="181" y="429" type="curve" smooth="yes"/>
      <point x="157" y="429"/>
      <point x="109" y="392"/>
      <point x="56" y="329" type="curve" smooth="yes"/>
      <point x="48" y="319"/>
      <point x="61" y="299"/>
      <point x="67" y="307" type="curve"/>
      <point x="71" y="310"/>
      <point x="82" y="323"/>
      <point x="93" y="335" type="curve" smooth="yes"/>
      <point x="105" y="348"/>
      <point x="118" y="358"/>
      <point x="123" y="357" type="curve" smooth="yes"/>
      <point x="132" y="355"/>
      <point x="123" y="327"/>
      <point x="122" y="321" type="curve" smooth="yes"/>
      <point x="69" y="67" type="line" smooth="yes"/>
      <point x="65" y="47"/>
      <point x="53" y="-10"/>
      <point x="94" y="-11" type="curve" smooth="yes"/>
      <point x="133" y="-11"/>
      <point x="200" y="59"/>
    </contour>
  </outline>
</glyph>
<glyph name="j" format="2">
  <advance width="245"/>
  <unicode hex="006A"/>
  <outline>
    <contour>
      <point x="259" y="585" type="curve" smooth="yes"/>
      <point x="263" y="606"/>
      <point x="272" y="648"/>
      <point x="233" y="647" type="curve" smooth="yes"/>
      <point x="208" y="646"/>
      <point x="193" y="624"/>
      <point x="187" y="590" type="curve" smooth="yes"/>
      <point x="183" y="568"/>
      <point x="182" y="529"/>
      <point x="213" y="528" type="curve" smooth="yes"/>
      <point x="240" y="528"/>
      <point x="253" y="552"/>
    </contour>
    <contour>
      <point x="207" y="341" type="line" smooth="yes"/>
      <point x="212" y="361"/>
      <point x="227" y="421"/>
      <point x="191" y="421" type="curve" smooth="yes"/>
      <point x="166" y="421"/>
      <point x="119" y="387"/>
      <point x="68" y="322" type="curve"/>
      <point x="61" y="317"/>
      <point x="72" y="299"/>
      <point x="82" y="307" type="curve"/>
      <point x="86" y="311"/>
      <point x="96" y="322"/>
      <point x="106" y="332" type="curve" smooth="yes"/>
      <point x="118" y="343"/>
      <point x="130" y="352"/>
      <point x="134" y="350" type="curve"/>
      <point x="142" y="347"/>
      <point x="140" y="337"/>
      <point x="138" y="330" type="curve" smooth="yes"/>
      <point x="46" y="-60" type="line" smooth="yes"/>
      <point x="40" y="-85"/>
      <point x="38" y="-104"/>
      <point x="29" y="-136" type="curve" smooth="yes"/>
      <point x="11" y="-204"/>
      <point x="-16" y="-265"/>
      <point x="-63" y="-232" type="curve" smooth="yes"/>
      <point x="-70" y="-227"/>
      <point x="-76" y="-217"/>
      <point x="-82" y="-210" type="curve" smooth="yes"/>
      <point x="-89" y="-201"/>
      <point x="-98" y="-193"/>
      <point x="-111" y="-191" type="curve" smooth="yes"/>
      <point x="-131" y="-188"/>
      <point x="-143" y="-200"/>
      <point x="-145" y="-220" type="curve" smooth="yes"/>
      <point x="-147" y="-242"/>
      <point x="-125" y="-272"/>
      <point x="-84" y="-272" type="curve" smooth="yes"/>
      <point x="-27" y="-272"/>
      <point x="13" y="-234"/>
      <point x="45" y="-189" type="curve" smooth="yes"/>
      <point x="87" y="-132"/>
      <point x="108" y="-74"/>
      <point x="126" y="3" type="curve" smooth="yes"/>
    </contour>
  </outline>
</glyph>
<glyph name="k" format="2">
  <advance width="459"/>
  <unicode hex="006B"/>
  <outline>
    <contour>
      <point x="452" y="343" type="curve" smooth="yes"/>
      <point x="449" y="387"/>
      <point x="423" y="429"/>
      <point x="390" y="429" type="curve" smooth="yes"/>
      <point x="340" y="429"/>
      <point x="228" y="325"/>
      <point x="186" y="286" type="curve" smooth="yes"/>
      <point x="170" y="270"/>
      <point x="173" y="277"/>
      <point x="176" y="291" type="curve" smooth="yes"/>
      <point x="267" y="732" type="line" smooth="yes"/>
      <point x="275" y="769"/>
      <point x="253" y="761"/>
      <point x="233" y="749" type="curve" smooth="yes"/>
      <point x="132" y="690" type="line"/>
      <point x="126" y="688"/>
      <point x="125" y="681"/>
      <point x="129" y="674" type="curve"/>
      <point x="131" y="669"/>
      <point x="136" y="663"/>
      <point x="140" y="667" type="curve"/>
      <point x="151" y="673"/>
      <point x="162" y="680"/>
      <point x="173" y="686" type="curve" smooth="yes"/>
      <point x="190" y="695"/>
      <point x="193" y="698"/>
      <point x="189" y="679" type="curve" smooth="yes"/>
      <point x="55" y="11" type="line"/>
      <point x="54" y="4"/>
      <point x="49" y="-9"/>
      <point x="61" y="-9" type="curve"/>
      <point x="74" y="-10"/>
      <point x="88" y="-10"/>
      <point x="102" y="-10" type="curve" smooth="yes"/>
      <point x="114" y="-10"/>
      <point x="118" y="-11"/>
      <point x="122" y="10" type="curve" smooth="yes"/>
      <point x="156" y="186" type="line" smooth="yes"/>
      <point x="159" y="204"/>
      <point x="162" y="203"/>
      <point x="168" y="197" type="curve" smooth="yes"/>
      <point x="186" y="178"/>
      <point x="205" y="152"/>
      <point x="234" y="107" type="curve" smooth="yes"/>
      <point x="262" y="62"/>
      <point x="284" y="31"/>
      <point x="327" y="2" type="curve"/>
      <point x="339" y="-7"/>
      <point x="351" y="-10"/>
      <point x="367" y="-10" type="curve"/>
      <point x="391" y="9"/>
      <point x="426" y="46"/>
      <point x="450" y="77" type="curve" smooth="yes"/>
      <point x="454" y="82"/>
      <point x="441" y="105"/>
      <point x="432" y="94" type="curve"/>
      <point x="421" y="82"/>
      <point x="405" y="64"/>
      <point x="390" y="50" type="curve"/>
      <point x="368" y="46"/>
      <point x="335" y="75"/>
      <point x="310" y="112" type="curve" smooth="yes"/>
      <point x="287" y="146" type="line" smooth="yes"/>
      <point x="275" y="164"/>
      <point x="260" y="180"/>
      <point x="235" y="206" type="curve"/>
      <point x="395" y="201"/>
      <point x="459" y="255"/>
    </contour>
    <contour>
      <point x="396" y="334" type="curve" smooth="yes"/>
      <point x="397" y="270"/>
      <point x="363" y="244"/>
      <point x="316" y="233" type="curve" smooth="yes"/>
      <point x="293" y="227"/>
      <point x="267" y="224"/>
      <point x="241" y="225" type="curve" smooth="yes"/>
      <point x="215" y="226"/>
      <point x="193" y="224"/>
      <point x="169" y="225" type="curve"/>
      <point x="168" y="227"/>
      <point x="162" y="230"/>
      <point x="164" y="233" type="curve"/>
      <point x="243" y="315"/>
      <point x="328" y="379"/>
      <point x="355" y="379" type="curve" smooth="yes"/>
      <point x="379" y="379"/>
      <point x="396" y="356"/>
    </contour>
  </outline>
</glyph>
<glyph name="l" format="2">
  <advance width="256"/>
  <unicode hex="006C"/>
  <outline>
    <contour>
      <point x="264" y="724" type="line" smooth="yes"/>
      <point x="274" y="776"/>
      <point x="238" y="756"/>
      <point x="212" y="741" type="curve" smooth="yes"/>
      <point x="115" y="684" type="line"/>
      <point x="110" y="683"/>
      <point x="107" y="676"/>
      <point x="109" y="669" type="curve" smooth="yes"/>
      <point x="111" y="661"/>
      <point x="119" y="661"/>
      <point x="126" y="663" type="curve"/>
      <point x="158" y="681"/>
      <point x="177" y="691"/>
      <point x="181" y="691" type="curve" smooth="yes"/>
      <point x="186" y="691"/>
      <point x="191" y="691"/>
      <point x="187" y="672" type="curve" smooth="yes"/>
      <point x="68" y="74" type="line" smooth="yes"/>
      <point x="60" y="34"/>
      <point x="56" y="-13"/>
      <point x="99" y="-13" type="curve" smooth="yes"/>
      <point x="129" y="-13"/>
      <point x="173" y="21"/>
      <point x="223" y="80" type="curve"/>
      <point x="225" y="85"/>
      <point x="227" y="92"/>
      <point x="222" y="96" type="curve"/>
      <point x="218" y="100"/>
      <point x="210" y="99"/>
      <point x="209" y="96" type="curve"/>
      <point x="170" y="52"/>
      <point x="147" y="35"/>
      <point x="137" y="35" type="curve" smooth="yes"/>
      <point x="128" y="35"/>
      <point x="128" y="43"/>
      <point x="132" y="61" type="curve" smooth="yes"/>
    </contour>
  </outline>
</glyph>
<glyph name="m" format="2">
  <advance width="674"/>
  <unicode hex="006D"/>
  <outline>
    <contour>
      <point x="642" y="119" type="curve"/>
      <point x="638" y="124"/>
      <point x="631" y="123"/>
      <point x="626" y="117" type="curve" smooth="yes"/>
      <point x="622" y="112"/>
      <point x="609" y="96"/>
      <point x="596" y="81" type="curve"/>
      <point x="593" y="77"/>
      <point x="551" y="31"/>
      <point x="558" y="66" type="curve" smooth="yes"/>
      <point x="614" y="340" type="line" smooth="yes"/>
      <point x="618" y="362"/>
      <point x="631" y="426"/>
      <point x="589" y="426" type="curve" smooth="yes"/>
      <point x="505" y="426"/>
      <point x="419" y="272"/>
      <point x="394" y="235" type="curve" smooth="yes"/>
      <point x="388" y="226"/>
      <point x="388" y="234"/>
      <point x="391" y="250" type="curve" smooth="yes"/>
      <point x="400" y="297"/>
      <point x="411" y="333"/>
      <point x="411" y="382" type="curve" smooth="yes"/>
      <point x="411" y="410"/>
      <point x="399" y="428"/>
      <point x="381" y="428" type="curve" smooth="yes"/>
      <point x="307" y="428"/>
      <point x="203" y="272"/>
      <point x="176" y="233" type="curve"/>
      <point x="173" y="227"/>
      <point x="170" y="227"/>
      <point x="172" y="238" type="curve" smooth="yes"/>
      <point x="202" y="388" type="line" smooth="yes"/>
      <point x="204" y="399"/>
      <point x="208" y="428"/>
      <point x="185" y="428" type="curve" smooth="yes"/>
      <point x="162" y="428"/>
      <point x="91" y="371"/>
      <point x="47" y="303" type="curve"/>
      <point x="42" y="286"/>
      <point x="59" y="288"/>
      <point x="64" y="293" type="curve"/>
      <point x="69" y="300"/>
      <point x="71" y="302"/>
      <point x="75" y="307" type="curve"/>
      <point x="82" y="317"/>
      <point x="113" y="352"/>
      <point x="121" y="352" type="curve" smooth="yes"/>
      <point x="128" y="352"/>
      <point x="124" y="336"/>
      <point x="123" y="332" type="curve" smooth="yes"/>
      <point x="59" y="9" type="line" smooth="yes"/>
      <point x="56" y="-6"/>
      <point x="61" y="-11"/>
      <point x="75" y="-11" type="curve" smooth="yes"/>
      <point x="85" y="-11"/>
      <point x="98" y="-10"/>
      <point x="108" y="-10" type="curve" smooth="yes"/>
      <point x="122" y="-10"/>
      <point x="124" y="-5"/>
      <point x="127" y="7" type="curve" smooth="yes"/>
      <point x="133" y="32"/>
      <point x="136" y="59"/>
      <point x="141" y="84" type="curve" smooth="yes"/>
      <point x="150" y="126"/>
      <point x="157" y="160"/>
      <point x="172" y="186" type="curve" smooth="yes"/>
      <point x="192" y="219"/>
      <point x="294" y="375"/>
      <point x="336" y="375" type="curve" smooth="yes"/>
      <point x="345" y="375"/>
      <point x="343" y="356"/>
      <point x="341" y="348" type="curve" smooth="yes"/>
      <point x="274" y="9" type="line" smooth="yes"/>
      <point x="272" y="-2"/>
      <point x="269" y="-11"/>
      <point x="286" y="-11" type="curve" smooth="yes"/>
      <point x="298" y="-11"/>
      <point x="308" y="-11"/>
      <point x="325" y="-11" type="curve" smooth="yes"/>
      <point x="333" y="-11"/>
      <point x="338" y="-3"/>
      <point x="341" y="10" type="curve" smooth="yes"/>
      <point x="362" y="115" type="line" smooth="yes"/>
      <point x="367" y="138"/>
      <point x="375" y="163"/>
      <point x="391" y="190" type="curve" smooth="yes"/>
      <point x="410" y="223"/>
      <point x="508" y="376"/>
      <point x="538" y="376" type="curve" smooth="yes"/>
      <point x="550" y="376"/>
      <point x="552" y="372"/>
      <point x="547" y="349" type="curve" smooth="yes"/>
      <point x="527" y="244"/>
      <point x="510" y="157"/>
      <point x="488" y="48" type="curve" smooth="yes"/>
      <point x="484" y="28"/>
      <point x="476" y="-12"/>
      <point x="511" y="-12" type="curve" smooth="yes"/>
      <point x="537" y="-12"/>
      <point x="593" y="33"/>
      <point x="641" y="100" type="curve" smooth="yes"/>
      <point x="643" y="103"/>
      <point x="645" y="113"/>
    </contour>
  </outline>
</glyph>
<glyph name="n" format="2">
  <advance width="469"/>
  <unicode hex="006E"/>
  <outline>
    <contour>
      <point x="449" y="123" type="curve"/>
      <point x="446" y="126"/>
      <point x="441" y="125"/>
      <point x="435" y="118" type="curve" smooth="yes"/>
      <point x="428" y="109"/>
      <point x="412" y="90"/>
      <point x="397" y="73" type="curve" smooth="yes"/>
      <point x="378" y="52"/>
      <point x="357" y="32"/>
      <point x="351" y="34" type="curve"/>
      <point x="340" y="37"/>
      <point x="351" y="68"/>
      <point x="353" y="75" type="curve" smooth="yes"/>
      <point x="413" y="306" type="line" smooth="yes"/>
      <point x="418" y="326"/>
      <point x="421" y="349"/>
      <point x="421" y="367" type="curve" smooth="yes"/>
      <point x="421" y="405"/>
      <point x="406" y="429"/>
      <point x="379" y="429" type="curve" smooth="yes"/>
      <point x="310" y="429"/>
      <point x="206" y="272"/>
      <point x="166" y="221" type="curve" smooth="yes"/>
      <point x="158" y="211"/>
      <point x="158" y="211"/>
      <point x="161" y="224" type="curve" smooth="yes"/>
      <point x="172" y="275"/>
      <point x="182" y="326"/>
      <point x="192" y="378" type="curve" smooth="yes"/>
      <point x="197" y="405"/>
      <point x="195" y="428"/>
      <point x="177" y="429" type="curve" smooth="yes"/>
      <point x="146" y="431"/>
      <point x="69" y="331"/>
      <point x="49" y="304" type="curve" smooth="yes"/>
      <point x="45" y="299"/>
      <point x="46" y="290"/>
      <point x="49" y="284" type="curve"/>
      <point x="50" y="281"/>
      <point x="57" y="280"/>
      <point x="60" y="283" type="curve"/>
      <point x="66" y="292"/>
      <point x="100" y="337"/>
      <point x="108" y="342" type="curve" smooth="yes"/>
      <point x="118" y="348"/>
      <point x="115" y="333"/>
      <point x="115" y="330" type="curve"/>
      <point x="51" y="9" type="line"/>
      <point x="46" y="-6"/>
      <point x="56" y="-11"/>
      <point x="67" y="-11" type="curve" smooth="yes"/>
      <point x="95" y="-11" type="line" smooth="yes"/>
      <point x="111" y="-11"/>
      <point x="114" y="-9"/>
      <point x="117" y="8" type="curve" smooth="yes"/>
      <point x="148" y="160" type="line"/>
      <point x="176" y="199"/>
      <point x="296" y="374"/>
      <point x="338" y="374" type="curve" smooth="yes"/>
      <point x="361" y="374"/>
      <point x="351" y="338"/>
      <point x="348" y="326" type="curve" smooth="yes"/>
      <point x="283" y="66" type="line" smooth="yes"/>
      <point x="275" y="33"/>
      <point x="273" y="-12"/>
      <point x="310" y="-12" type="curve" smooth="yes"/>
      <point x="341" y="-12"/>
      <point x="395" y="27"/>
      <point x="444" y="94" type="curve" smooth="yes"/>
      <point x="452" y="105"/>
      <point x="459" y="111"/>
    </contour>
  </outline>
</glyph>
<glyph name="p" format="2">
  <advance width="445"/>
  <unicode hex="0070"/>
  <outline>
    <contour>
      <point x="414" y="276" type="curve" smooth="yes"/>
      <point x="414" y="335"/>
      <point x="394" y="428"/>
      <point x="344" y="428" type="curve" smooth="yes"/>
      <point x="285" y="428"/>
      <point x="230" y="334"/>
      <point x="200" y="292" type="curve"/>
      <point x="193" y="281"/>
      <point x="187" y="269"/>
      <point x="193" y="302" type="curve" smooth="yes"/>
      <point x="199" y="333"/>
      <point x="206" y="366"/>
      <point x="206" y="398" type="curve" smooth="yes"/>
      <point x="206" y="418"/>
      <point x="201" y="429"/>
      <point x="187" y="429" type="curve" smooth="yes"/>
      <point x="160" y="429"/>
      <point x="92" y="375"/>
      <point x="40" y="298" type="curve" smooth="yes"/>
      <point x="30" y="283"/>
      <point x="48" y="271"/>
      <point x="53" y="278" type="curve"/>
      <point x="59" y="285"/>
      <point x="73" y="303"/>
      <point x="88" y="320" type="curve" smooth="yes"/>
      <point x="102" y="336"/>
      <point x="119" y="352"/>
      <point x="129" y="352" type="curve" smooth="yes"/>
      <point x="137" y="352"/>
      <point x="128" y="314"/>
      <point x="127" y="309" type="curve" smooth="yes"/>
      <point x="93" y="146"/>
      <point x="59" y="-13"/>
      <point x="27" y="-175" type="curve" smooth="yes"/>
      <point x="19" y="-216"/>
      <point x="15" y="-242"/>
      <point x="-40" y="-249" type="curve" smooth="yes"/>
      <point x="-48" y="-250"/>
      <point x="-59" y="-249"/>
      <point x="-63" y="-255" type="curve" smooth="yes"/>
      <point x="-66" y="-260"/>
      <point x="-69" y="-274"/>
      <point x="-62" y="-274" type="curve" smooth="yes"/>
      <point x="-14" y="-272"/>
      <point x="94" y="-271"/>
      <point x="162" y="-274" type="curve" smooth="yes"/>
      <point x="177" y="-275"/>
      <point x="179" y="-251"/>
      <point x="171" y="-251" type="curve" smooth="yes"/>
      <point x="98" y="-248"/>
      <point x="80" y="-245"/>
      <point x="93" y="-177" type="curve" smooth="yes"/>
      <point x="104" y="-123"/>
      <point x="117" y="-67"/>
      <point x="129" y="-14" type="curve"/>
      <point x="129" y="-11"/>
      <point x="131" y="-3"/>
      <point x="135" y="-5" type="curve"/>
      <point x="284" y="-50"/>
      <point x="414" y="142"/>
    </contour>
    <contour>
      <point x="346" y="272" type="curve" smooth="yes"/>
      <point x="346" y="140"/>
      <point x="267" y="17"/>
      <point x="185" y="17" type="curve" smooth="yes"/>
      <point x="173" y="17"/>
      <point x="158" y="25"/>
      <point x="149" y="31" type="curve" smooth="yes"/>
      <point x="143" y="35"/>
      <point x="143" y="41"/>
      <point x="143" y="50" type="curve"/>
      <point x="176" y="213" type="line"/>
      <point x="196" y="244"/>
      <point x="222" y="282"/>
      <point x="246" y="314" type="curve" smooth="yes"/>
      <point x="271" y="347"/>
      <point x="293" y="373"/>
      <point x="307" y="373" type="curve" smooth="yes"/>
      <point x="330" y="373"/>
      <point x="346" y="331"/>
    </contour>
  </outline>
</glyph>
<glyph name="q" format="2">
  <advance width="426"/>
  <unicode hex="0071"/>
  <outline>
    <contour>
      <point x="407" y="405" type="line" smooth="yes"/>
      <point x="411" y="423"/>
      <point x="403" y="429"/>
      <point x="388" y="429" type="curve" smooth="yes"/>
      <point x="286" y="429"/>
      <point x="200" y="377"/>
      <point x="135" y="299" type="curve" smooth="yes"/>
      <point x="81" y="236"/>
      <point x="52" y="169"/>
      <point x="52" y="106" type="curve" smooth="yes"/>
      <point x="52" y="45"/>
      <point x="80" y="-12"/>
      <point x="114" y="-12" type="curve" smooth="yes"/>
      <point x="155" y="-12"/>
      <point x="248" y="83"/>
      <point x="276" y="117" type="curve" smooth="yes"/>
      <point x="284" y="127"/>
      <point x="279" y="100"/>
      <point x="277" y="93" type="curve"/>
      <point x="231" y="-125"/>
      <point x="222" y="-170"/>
      <point x="218" y="-190" type="curve" smooth="yes"/>
      <point x="209" y="-236"/>
      <point x="199" y="-243"/>
      <point x="131" y="-250" type="curve"/>
      <point x="120" y="-247"/>
      <point x="111" y="-272"/>
      <point x="123" y="-274" type="curve"/>
      <point x="202" y="-272"/>
      <point x="255" y="-272"/>
      <point x="346" y="-274" type="curve"/>
      <point x="353" y="-276"/>
      <point x="359" y="-270"/>
      <point x="360" y="-262" type="curve"/>
      <point x="362" y="-254"/>
      <point x="358" y="-249"/>
      <point x="352" y="-250" type="curve"/>
      <point x="322" y="-250"/>
      <point x="282" y="-256"/>
      <point x="282" y="-215" type="curve" smooth="yes"/>
      <point x="282" y="-193"/>
      <point x="289" y="-171"/>
      <point x="293" y="-150" type="curve" smooth="yes"/>
    </contour>
    <contour>
      <point x="330" y="356" type="curve" smooth="yes"/>
      <point x="294" y="170" type="line"/>
      <point x="213" y="82"/>
      <point x="175" y="45"/>
      <point x="155" y="45" type="curve" smooth="yes"/>
      <point x="133" y="45"/>
      <point x="121" y="70"/>
      <point x="121" y="122" type="curve" smooth="yes"/>
      <point x="121" y="203"/>
      <point x="156" y="288"/>
      <point x="209" y="331" type="curve" smooth="yes"/>
      <point x="237" y="354"/>
      <point x="269" y="367"/>
      <point x="323" y="370" type="curve"/>
      <point x="327" y="370"/>
      <point x="332" y="368"/>
    </contour>
  </outline>
</glyph>
<glyph name="r" format="2">
  <advance width="323"/>
  <unicode hex="0072"/>
  <outline>
    <contour>
      <point x="341" y="395" type="curve" smooth="yes"/>
      <point x="339" y="420"/>
      <point x="320" y="428"/>
      <point x="304" y="428" type="curve" smooth="yes"/>
      <point x="239" y="428"/>
      <point x="178" y="271"/>
      <point x="155" y="208" type="curve" smooth="yes"/>
      <point x="143" y="174"/>
      <point x="143" y="185"/>
      <point x="151" y="218" type="curve" smooth="yes"/>
      <point x="155" y="233"/>
      <point x="158" y="248"/>
      <point x="161" y="264" type="curve" smooth="yes"/>
      <point x="166" y="288"/>
      <point x="172" y="319"/>
      <point x="177" y="354" type="curve" smooth="yes"/>
      <point x="179" y="369"/>
      <point x="182" y="384"/>
      <point x="181" y="399" type="curve" smooth="yes"/>
      <point x="180" y="416"/>
      <point x="175" y="428"/>
      <point x="160" y="428" type="curve" smooth="yes"/>
      <point x="138" y="428"/>
      <point x="103" y="392"/>
      <point x="40" y="314" type="curve"/>
      <point x="34" y="308"/>
      <point x="36" y="300"/>
      <point x="39" y="296" type="curve" smooth="yes"/>
      <point x="42" y="292"/>
      <point x="49" y="294"/>
      <point x="55" y="300" type="curve"/>
      <point x="59" y="306"/>
      <point x="95" y="352"/>
      <point x="104" y="352" type="curve" smooth="yes"/>
      <point x="111" y="352"/>
      <point x="113" y="338"/>
      <point x="111" y="325" type="curve" smooth="yes"/>
      <point x="58" y="11" type="line" smooth="yes"/>
      <point x="56" y="0"/>
      <point x="56" y="-12"/>
      <point x="70" y="-12" type="curve" smooth="yes"/>
      <point x="81" y="-12"/>
      <point x="87" y="-12"/>
      <point x="97" y="-12" type="curve" smooth="yes"/>
      <point x="111" y="-12"/>
      <point x="117" y="-4"/>
      <point x="119" y="6" type="curve" smooth="yes"/>
      <point x="131" y="56"/>
      <point x="136" y="95"/>
      <point x="155" y="144" type="curve" smooth="yes"/>
      <point x="165" y="170"/>
      <point x="182" y="221"/>
      <point x="204" y="266" type="curve" smooth="yes"/>
      <point x="225" y="307"/>
      <point x="249" y="342"/>
      <point x="282" y="347" type="curve"/>
      <point x="288" y="345"/>
      <point x="294" y="343"/>
      <point x="300" y="341" type="curve" smooth="yes"/>
      <point x="330" y="331"/>
      <point x="344" y="355"/>
    </contour>
  </outline>
</glyph>
<glyph name="s" format="2">
  <advance width="320"/>
  <unicode hex="0073"/>
  <outline>
    <contour>
      <point x="313" y="359" type="curve" smooth="yes"/>
      <point x="313" y="391"/>
      <point x="272" y="429"/>
      <point x="238" y="429" type="curve" smooth="yes"/>
      <point x="205" y="429"/>
      <point x="169" y="410"/>
      <point x="138" y="379" type="curve" smooth="yes"/>
      <point x="80" y="319"/>
      <point x="80" y="270"/>
      <point x="132" y="207" type="curve" smooth="yes"/>
      <point x="160" y="174"/>
      <point x="212" y="123"/>
      <point x="212" y="77" type="curve" smooth="yes"/>
      <point x="212" y="48"/>
      <point x="188" y="25"/>
      <point x="158" y="25" type="curve" smooth="yes"/>
      <point x="129" y="25"/>
      <point x="105" y="44"/>
      <point x="82" y="58" type="curve" smooth="yes"/>
      <point x="58" y="73"/>
      <point x="19" y="82"/>
      <point x="14" y="37" type="curve" smooth="yes"/>
      <point x="10" y="6"/>
      <point x="44" y="-12"/>
      <point x="94" y="-12" type="curve" smooth="yes"/>
      <point x="193" y="-12"/>
      <point x="257" y="40"/>
      <point x="257" y="120" type="curve" smooth="yes"/>
      <point x="257" y="153"/>
      <point x="243" y="183"/>
      <point x="213" y="218" type="curve" smooth="yes"/>
      <point x="191" y="244"/>
      <point x="143" y="291"/>
      <point x="143" y="326" type="curve" smooth="yes"/>
      <point x="143" y="354"/>
      <point x="176" y="394"/>
      <point x="204" y="394" type="curve" smooth="yes"/>
      <point x="226" y="394"/>
      <point x="245" y="362"/>
      <point x="255" y="345" type="curve" smooth="yes"/>
      <point x="262" y="332"/>
      <point x="272" y="324"/>
      <point x="283" y="324" type="curve" smooth="yes"/>
      <point x="300" y="324"/>
      <point x="313" y="340"/>
    </contour>
  </outline>
</glyph>
<glyph name="t" format="2">
  <advance width="282"/>
  <unicode hex="0074"/>
  <outline>
    <contour>
      <point x="289" y="398" type="curve" smooth="yes"/>
      <point x="291" y="408"/>
      <point x="291" y="419"/>
      <point x="285" y="419" type="curve" smooth="yes"/>
      <point x="221" y="419" type="line"/>
      <point x="215" y="418"/>
      <point x="209" y="421"/>
      <point x="210" y="426" type="curve" smooth="yes"/>
      <point x="212" y="436"/>
      <point x="222" y="464"/>
      <point x="258" y="552" type="curve"/>
      <point x="257" y="566"/>
      <point x="243" y="561"/>
      <point x="238" y="553" type="curve" smooth="yes"/>
      <point x="198" y="489"/>
      <point x="159" y="434"/>
      <point x="81" y="395" type="curve" smooth="yes"/>
      <point x="72" y="391"/>
      <point x="74" y="378"/>
      <point x="86" y="378" type="curve" smooth="yes"/>
      <point x="124" y="378" type="line" smooth="yes"/>
      <point x="138" y="378"/>
      <point x="132" y="364"/>
      <point x="130" y="355" type="curve" smooth="yes"/>
      <point x="108" y="266"/>
      <point x="112" y="284"/>
      <point x="80" y="152" type="curve" smooth="yes"/>
      <point x="65" y="90"/>
      <point x="59" y="47"/>
      <point x="59" y="30" type="curve" smooth="yes"/>
      <point x="59" y="3"/>
      <point x="74" y="-12"/>
      <point x="96" y="-12" type="curve" smooth="yes"/>
      <point x="133" y="-12"/>
      <point x="187" y="28"/>
      <point x="245" y="91" type="curve"/>
      <point x="253" y="98"/>
      <point x="240" y="121"/>
      <point x="231" y="111" type="curve" smooth="yes"/>
      <point x="214" y="93"/>
      <point x="159" y="35"/>
      <point x="136" y="35" type="curve" smooth="yes"/>
      <point x="122" y="35"/>
      <point x="128" y="58"/>
      <point x="130" y="66" type="curve" smooth="yes"/>
      <point x="199" y="369" type="line"/>
      <point x="202" y="378"/>
      <point x="200" y="375"/>
      <point x="210" y="378" type="curve"/>
      <point x="276" y="378" type="line"/>
      <point x="283" y="377"/>
      <point x="287" y="388"/>
    </contour>
  </outline>
</glyph>
<glyph name="v" format="2">
  <advance width="406"/>
  <unicode hex="0076"/>
  <outline>
    <contour>
      <point x="417" y="365" type="curve" smooth="yes"/>
      <point x="417" y="402"/>
      <point x="398" y="429"/>
      <point x="371" y="429" type="curve" smooth="yes"/>
      <point x="351" y="429"/>
      <point x="319" y="403"/>
      <point x="319" y="381" type="curve" smooth="yes"/>
      <point x="319" y="373"/>
      <point x="323" y="367"/>
      <point x="332" y="362" type="curve" smooth="yes"/>
      <point x="342" y="356"/>
      <point x="344" y="354"/>
      <point x="344" y="342" type="curve" smooth="yes"/>
      <point x="344" y="272"/>
      <point x="219" y="39"/>
      <point x="150" y="39" type="curve" smooth="yes"/>
      <point x="135" y="39"/>
      <point x="144" y="80"/>
      <point x="145" y="89" type="curve" smooth="yes"/>
      <point x="184" y="330" type="line" smooth="yes"/>
      <point x="188" y="354"/>
      <point x="191" y="383"/>
      <point x="191" y="392" type="curve" smooth="yes"/>
      <point x="191" y="414"/>
      <point x="184" y="428"/>
      <point x="168" y="428" type="curve" smooth="yes"/>
      <point x="137" y="428"/>
      <point x="88" y="375"/>
      <point x="40" y="308" type="curve" smooth="yes"/>
      <point x="33" y="298"/>
      <point x="47" y="283"/>
      <point x="55" y="293" type="curve" smooth="yes"/>
      <point x="80" y="326"/>
      <point x="106" y="360"/>
      <point x="118" y="360" type="curve" smooth="yes"/>
      <point x="126" y="360"/>
      <point x="119" y="324"/>
      <point x="118" y="317" type="curve" smooth="yes"/>
      <point x="88" y="132" type="line" smooth="yes"/>
      <point x="84" y="107"/>
      <point x="65" y="-12"/>
      <point x="108" y="-12" type="curve" smooth="yes"/>
      <point x="193" y="-12"/>
      <point x="417" y="257"/>
    </contour>
  </outline>
</glyph>
<glyph name="w" format="2">
  <advance width="610"/>
  <unicode hex="0077"/>
  <outline>
    <contour>
      <point x="630" y="369" type="curve" smooth="yes"/>
      <point x="630" y="402"/>
      <point x="611" y="428"/>
      <point x="586" y="428" type="curve" smooth="yes"/>
      <point x="560" y="428"/>
      <point x="537" y="410"/>
      <point x="537" y="382" type="curve" smooth="yes"/>
      <point x="537" y="372"/>
      <point x="542" y="368"/>
      <point x="549" y="363" type="curve"/>
      <point x="554" y="358"/>
      <point x="560" y="352"/>
      <point x="560" y="338" type="curve" smooth="yes"/>
      <point x="560" y="243"/>
      <point x="427" y="40"/>
      <point x="374" y="40" type="curve" smooth="yes"/>
      <point x="359" y="40"/>
      <point x="368" y="81"/>
      <point x="369" y="90" type="curve" smooth="yes"/>
      <point x="418" y="408" type="line" smooth="yes"/>
      <point x="420" y="418"/>
      <point x="415" y="428"/>
      <point x="400" y="428" type="curve" smooth="yes"/>
      <point x="390" y="428"/>
      <point x="387" y="428"/>
      <point x="376" y="427" type="curve"/>
      <point x="358" y="427"/>
      <point x="356" y="417"/>
      <point x="355" y="409" type="curve" smooth="yes"/>
      <point x="330" y="246" type="line"/>
      <point x="302" y="197"/>
      <point x="189" y="41"/>
      <point x="153" y="41" type="curve" smooth="yes"/>
      <point x="137" y="41"/>
      <point x="145" y="86"/>
      <point x="146" y="95" type="curve" smooth="yes"/>
      <point x="182" y="339" type="line" smooth="yes"/>
      <point x="185" y="357"/>
      <point x="199" y="429"/>
      <point x="166" y="429" type="curve" smooth="yes"/>
      <point x="127" y="429"/>
      <point x="54" y="331"/>
      <point x="35" y="304" type="curve"/>
      <point x="23" y="293"/>
      <point x="44" y="277"/>
      <point x="51" y="286" type="curve" smooth="yes"/>
      <point x="68" y="308"/>
      <point x="84" y="332"/>
      <point x="106" y="350" type="curve"/>
      <point x="117" y="360"/>
      <point x="119" y="358"/>
      <point x="117" y="343" type="curve" smooth="yes"/>
      <point x="108" y="272"/>
      <point x="94" y="179"/>
      <point x="84" y="113" type="curve" smooth="yes"/>
      <point x="81" y="95"/>
      <point x="79" y="76"/>
      <point x="78" y="57" type="curve" smooth="yes"/>
      <point x="76" y="28"/>
      <point x="79" y="-11"/>
      <point x="111" y="-11" type="curve" smooth="yes"/>
      <point x="171" y="-11"/>
      <point x="269" y="102"/>
      <point x="305" y="161" type="curve" smooth="yes"/>
      <point x="317" y="181"/>
      <point x="321" y="186"/>
      <point x="317" y="168" type="curve"/>
      <point x="315" y="149"/>
      <point x="312" y="137"/>
      <point x="308" y="111" type="curve" smooth="yes"/>
      <point x="303" y="84"/>
      <point x="300" y="56"/>
      <point x="300" y="31" type="curve" smooth="yes"/>
      <point x="300" y="-50"/>
      <point x="382" y="5"/>
      <point x="407" y="25" type="curve" smooth="yes"/>
      <point x="484" y="87"/>
      <point x="630" y="268"/>
    </contour>
  </outline>
</glyph>
<glyph name="x" format="2">
  <advance width="504"/>
  <unicode hex="0078"/>
  <outline>
    <contour>
      <point x="505" y="374" type="curve" smooth="yes"/>
      <point x="505" y="443"/>
      <point x="440" y="438"/>
      <point x="402" y="400" type="curve" smooth="yes"/>
      <point x="361" y="358"/>
      <point x="334" y="317"/>
      <point x="299" y="269" type="curve" smooth="yes"/>
      <point x="294" y="262"/>
      <point x="286" y="253"/>
      <point x="283" y="262" type="curve" smooth="yes"/>
      <point x="250" y="349" type="line" smooth="yes"/>
      <point x="227" y="409"/>
      <point x="212" y="429"/>
      <point x="182" y="429" type="curve" smooth="yes"/>
      <point x="148" y="429"/>
      <point x="122" y="399"/>
      <point x="68" y="307" type="curve" smooth="yes"/>
      <point x="65" y="302"/>
      <point x="66" y="293"/>
      <point x="71" y="289" type="curve" smooth="yes"/>
      <point x="75" y="286"/>
      <point x="81" y="284"/>
      <point x="87" y="295" type="curve" smooth="yes"/>
      <point x="124" y="357"/>
      <point x="137" y="373"/>
      <point x="155" y="373" type="curve" smooth="yes"/>
      <point x="168" y="373"/>
      <point x="176" y="362"/>
      <point x="190" y="326" type="curve" smooth="yes"/>
      <point x="239" y="203" type="line" smooth="yes"/>
      <point x="242" y="195"/>
      <point x="240" y="194"/>
      <point x="238" y="189" type="curve"/>
      <point x="195" y="135" type="line" smooth="yes"/>
      <point x="180" y="117"/>
      <point x="101" y="22"/>
      <point x="76" y="80" type="curve" smooth="yes"/>
      <point x="71" y="92"/>
      <point x="70" y="106"/>
      <point x="68" y="119" type="curve" smooth="yes"/>
      <point x="64" y="149"/>
      <point x="51" y="126"/>
      <point x="45" y="111" type="curve" smooth="yes"/>
      <point x="37" y="89"/>
      <point x="-4" y="-12"/>
      <point x="56" y="-12" type="curve" smooth="yes"/>
      <point x="105" y="-12"/>
      <point x="180" y="77"/>
      <point x="208" y="111" type="curve" smooth="yes"/>
      <point x="244" y="155" type="line" smooth="yes"/>
      <point x="248" y="160"/>
      <point x="252" y="165"/>
      <point x="256" y="156" type="curve" smooth="yes"/>
      <point x="293" y="63" type="line" smooth="yes"/>
      <point x="318" y="0"/>
      <point x="324" y="-12"/>
      <point x="353" y="-12" type="curve" smooth="yes"/>
      <point x="385" y="-12"/>
      <point x="414" y="3"/>
      <point x="460" y="107" type="curve"/>
      <point x="460" y="116"/>
      <point x="458" y="124"/>
      <point x="454" y="127" type="curve"/>
      <point x="450" y="131"/>
      <point x="444" y="130"/>
      <point x="440" y="121" type="curve" smooth="yes"/>
      <point x="421" y="81"/>
      <point x="404" y="53"/>
      <point x="382" y="52" type="curve" smooth="yes"/>
      <point x="369" y="52"/>
      <point x="359" y="65"/>
      <point x="340" y="116" type="curve" smooth="yes"/>
      <point x="302" y="218" type="line"/>
      <point x="301" y="220"/>
      <point x="299" y="227"/>
      <point x="305" y="234" type="curve"/>
      <point x="355" y="304" type="line" smooth="yes"/>
      <point x="386" y="347"/>
      <point x="411" y="367"/>
      <point x="437" y="367" type="curve" smooth="yes"/>
      <point x="459" y="367"/>
      <point x="474" y="352"/>
      <point x="479" y="326" type="curve" smooth="yes"/>
      <point x="482" y="313"/>
      <point x="490" y="303"/>
      <point x="496" y="326" type="curve" smooth="yes"/>
      <point x="503" y="351"/>
      <point x="505" y="358"/>
    </contour>
  </outline>
</glyph>
<glyph name="braceleft" format="2">
  <advance width="403"/>
  <unicode hex="007B"/>
  <outline>
    <contour>
      <point x="131" y="221" type="curve"/>
      <point x="128" y="222"/>
      <point x="115" y="228"/>
      <point x="129" y="234" type="curve" smooth="yes"/>
      <point x="157" y="246"/>
      <point x="171" y="256"/>
      <point x="193" y="278" type="curve" smooth="yes"/>
      <point x="228" y="313"/>
      <point x="246" y="352"/>
      <point x="246" y="397" type="curve" smooth="yes"/>
      <point x="246" y="450"/>
      <point x="226" y="502"/>
      <point x="226" y="556" type="curve" smooth="yes"/>
      <point x="226" y="617"/>
      <point x="267" y="660"/>
      <point x="340" y="674" type="curve" smooth="yes"/>
      <point x="351" y="676"/>
      <point x="356" y="701"/>
      <point x="340" y="699" type="curve" smooth="yes"/>
      <point x="228" y="685"/>
      <point x="149" y="601"/>
      <point x="149" y="499" type="curve" smooth="yes"/>
      <point x="149" y="446"/>
      <point x="173" y="396"/>
      <point x="173" y="343" type="curve" smooth="yes"/>
      <point x="173" y="296"/>
      <point x="133" y="256"/>
      <point x="70" y="241" type="curve" smooth="yes"/>
      <point x="65" y="240"/>
      <point x="63" y="238"/>
      <point x="63" y="234" type="curve" smooth="yes"/>
      <point x="63" y="223" type="line" smooth="yes"/>
      <point x="63" y="217"/>
      <point x="66" y="214"/>
      <point x="74" y="212" type="curve" smooth="yes"/>
      <point x="138" y="196"/>
      <point x="173" y="158"/>
      <point x="173" y="109" type="curve" smooth="yes"/>
      <point x="173" y="57"/>
      <point x="150" y="8"/>
      <point x="150" y="-44" type="curve" smooth="yes"/>
      <point x="150" y="-145"/>
      <point x="228" y="-229"/>
      <point x="340" y="-244" type="curve"/>
      <point x="349" y="-244"/>
      <point x="355" y="-224"/>
      <point x="339" y="-220" type="curve" smooth="yes"/>
      <point x="264" y="-201"/>
      <point x="226" y="-160"/>
      <point x="226" y="-100" type="curve" smooth="yes"/>
      <point x="226" y="-46"/>
      <point x="246" y="5"/>
      <point x="246" y="59" type="curve" smooth="yes"/>
      <point x="246" y="127"/>
      <point x="205" y="184"/>
    </contour>
  </outline>
</glyph>
<glyph name="bar" format="2">
  <advance width="519"/>
  <unicode hex="007C"/>
  <outline>
    <contour>
      <point x="288" y="-19" type="line"/>
      <point x="288" y="845" type="line"/>
      <point x="230" y="845" type="line"/>
      <point x="230" y="-19" type="line"/>
    </contour>
  </outline>
</glyph>
<glyph name="braceright" format="2">
  <advance width="403"/>
  <unicode hex="007D"/>
  <outline>
    <contour>
      <point x="231" y="112" type="line"/>
      <point x="231" y="161"/>
      <point x="272" y="203"/>
      <point x="342" y="215" type="curve" smooth="yes"/>
      <point x="356" y="218"/>
      <point x="347" y="237"/>
      <point x="341" y="240" type="curve"/>
      <point x="269" y="254"/>
      <point x="230" y="294"/>
      <point x="230" y="346" type="curve" smooth="yes"/>
      <point x="230" y="398"/>
      <point x="253" y="448"/>
      <point x="253" y="500" type="curve" smooth="yes"/>
      <point x="253" y="601"/>
      <point x="175" y="684"/>
      <point x="63" y="700" type="curve"/>
      <point x="55" y="700"/>
      <point x="46" y="684"/>
      <point x="64" y="676" type="curve"/>
      <point x="138" y="656"/>
      <point x="177" y="613"/>
      <point x="177" y="554" type="curve" smooth="yes"/>
      <point x="177" y="527"/>
      <point x="171" y="500"/>
      <point x="166" y="474" type="curve" smooth="yes"/>
      <point x="162" y="449"/>
      <point x="156" y="423"/>
      <point x="156" y="397" type="curve" smooth="yes"/>
      <point x="156" y="330"/>
      <point x="197" y="274"/>
      <point x="269" y="236" type="curve" smooth="yes"/>
      <point x="285" y="228"/>
      <point x="281" y="224"/>
      <point x="263" y="217" type="curve"/>
      <point x="242" y="206"/>
      <point x="229" y="196"/>
      <point x="210" y="177" type="curve" smooth="yes"/>
      <point x="175" y="142"/>
      <point x="157" y="103"/>
      <point x="157" y="59" type="curve" smooth="yes"/>
      <point x="157" y="5"/>
      <point x="177" y="-47"/>
      <point x="177" y="-102" type="curve" smooth="yes"/>
      <point x="177" y="-162"/>
      <point x="136" y="-205"/>
      <point x="63" y="-219" type="curve"/>
      <point x="44" y="-220"/>
      <point x="46" y="-246"/>
      <point x="63" y="-244" type="curve" smooth="yes"/>
      <point x="175" y="-230"/>
      <point x="254" y="-146"/>
      <point x="254" y="-43" type="curve" smooth="yes"/>
      <point x="254" y="10"/>
      <point x="230" y="59"/>
      <point x="230" y="112" type="curve"/>
    </contour>
  </outline>
</glyph>
